<svg width="100%" viewBox="0 0 726 880" xmlns="http://www.w3.org/2000/svg">
<defs><marker id="ar" viewBox="0 0 10 10" refX="6" refY="5" markerWidth="6" markerHeight="6" orient="auto"><path d="M1 1L8 5L1 9" fill="none" stroke="rgb(250,249,245)" stroke-width="1.6"/></marker></defs>
<rect width="726" height="880" fill="rgb(26,27,25)"/>
<text x="363.0" y="30.5" text-anchor="middle" font-family="Anthropic Sans,Segoe UI,sans-serif" font-size="21" font-weight="700" fill="rgb(233,231,222)">烂尾楼 · 一层平面图(真实场景 · 含全部走道与楼梯)</text>
<line x1="90.0" y1="804.0" x2="90.0" y2="76.0" stroke="rgb(64,66,62)" stroke-width="0.5" opacity="0.5"/>
<line x1="142.0" y1="804.0" x2="142.0" y2="76.0" stroke="rgb(64,66,62)" stroke-width="0.5" opacity="0.5"/>
<line x1="194.0" y1="804.0" x2="194.0" y2="76.0" stroke="rgb(64,66,62)" stroke-width="0.5" opacity="0.5"/>
<line x1="246.0" y1="804.0" x2="246.0" y2="76.0" stroke="rgb(64,66,62)" stroke-width="0.5" opacity="0.5"/>
<line x1="298.0" y1="804.0" x2="298.0" y2="76.0" stroke="rgb(64,66,62)" stroke-width="0.5" opacity="0.5"/>
<line x1="350.0" y1="804.0" x2="350.0" y2="76.0" stroke="rgb(64,66,62)" stroke-width="0.5" opacity="0.5"/>
<line x1="402.0" y1="804.0" x2="402.0" y2="76.0" stroke="rgb(64,66,62)" stroke-width="0.5" opacity="0.5"/>
<line x1="454.0" y1="804.0" x2="454.0" y2="76.0" stroke="rgb(64,66,62)" stroke-width="0.5" opacity="0.5"/>
<line x1="506.0" y1="804.0" x2="506.0" y2="76.0" stroke="rgb(64,66,62)" stroke-width="0.5" opacity="0.5"/>
<line x1="558.0" y1="804.0" x2="558.0" y2="76.0" stroke="rgb(64,66,62)" stroke-width="0.5" opacity="0.5"/>
<line x1="610.0" y1="804.0" x2="610.0" y2="76.0" stroke="rgb(64,66,62)" stroke-width="0.5" opacity="0.5"/>
<line x1="662.0" y1="804.0" x2="662.0" y2="76.0" stroke="rgb(64,66,62)" stroke-width="0.5" opacity="0.5"/>
<line x1="64.0" y1="804.0" x2="662.0" y2="804.0" stroke="rgb(64,66,62)" stroke-width="0.5" opacity="0.5"/>
<line x1="64.0" y1="752.0" x2="662.0" y2="752.0" stroke="rgb(64,66,62)" stroke-width="0.5" opacity="0.5"/>
<line x1="64.0" y1="700.0" x2="662.0" y2="700.0" stroke="rgb(64,66,62)" stroke-width="0.5" opacity="0.5"/>
<line x1="64.0" y1="648.0" x2="662.0" y2="648.0" stroke="rgb(64,66,62)" stroke-width="0.5" opacity="0.5"/>
<line x1="64.0" y1="596.0" x2="662.0" y2="596.0" stroke="rgb(64,66,62)" stroke-width="0.5" opacity="0.5"/>
<line x1="64.0" y1="544.0" x2="662.0" y2="544.0" stroke="rgb(64,66,62)" stroke-width="0.5" opacity="0.5"/>
<line x1="64.0" y1="492.0" x2="662.0" y2="492.0" stroke="rgb(64,66,62)" stroke-width="0.5" opacity="0.5"/>
<line x1="64.0" y1="440.0" x2="662.0" y2="440.0" stroke="rgb(64,66,62)" stroke-width="0.5" opacity="0.5"/>
<line x1="64.0" y1="388.0" x2="662.0" y2="388.0" stroke="rgb(64,66,62)" stroke-width="0.5" opacity="0.5"/>
<line x1="64.0" y1="336.0" x2="662.0" y2="336.0" stroke="rgb(64,66,62)" stroke-width="0.5" opacity="0.5"/>
<line x1="64.0" y1="284.0" x2="662.0" y2="284.0" stroke="rgb(64,66,62)" stroke-width="0.5" opacity="0.5"/>
<line x1="64.0" y1="232.0" x2="662.0" y2="232.0" stroke="rgb(64,66,62)" stroke-width="0.5" opacity="0.5"/>
<line x1="64.0" y1="180.0" x2="662.0" y2="180.0" stroke="rgb(64,66,62)" stroke-width="0.5" opacity="0.5"/>
<line x1="64.0" y1="128.0" x2="662.0" y2="128.0" stroke="rgb(64,66,62)" stroke-width="0.5" opacity="0.5"/>
<line x1="64.0" y1="76.0" x2="662.0" y2="76.0" stroke="rgb(64,66,62)" stroke-width="0.5" opacity="0.5"/>
<rect x="298.0" y="492.0" width="104.0" height="52.0" rx="2" fill="rgb(70,108,96)" stroke="rgb(120,165,148)" stroke-width="1" fill-opacity="0.95"/>
<rect x="506.0" y="505.0" width="26.0" height="26.0" rx="2" fill="rgb(70,108,96)" stroke="rgb(120,165,148)" stroke-width="1" fill-opacity="0.95"/>
<rect x="298.0" y="466.0" width="52.0" height="104.0" rx="2" fill="rgb(70,108,96)" stroke="rgb(120,165,148)" stroke-width="1" fill-opacity="0.95"/>
<rect x="506.0" y="492.0" width="26.0" height="52.0" rx="2" fill="rgb(70,108,96)" stroke="rgb(120,165,148)" stroke-width="1" fill-opacity="0.95"/>
<rect x="344.2" y="157.8" width="89.6" height="202.5" rx="2" fill="rgb(70,108,96)" stroke="rgb(120,165,148)" stroke-width="1" fill-opacity="0.95"/>
<rect x="142.0" y="492.0" width="104.0" height="52.0" rx="2" fill="rgb(70,108,96)" stroke="rgb(120,165,148)" stroke-width="1" fill-opacity="0.95"/>
<rect x="90.0" y="466.0" width="52.0" height="26.0" rx="2" fill="rgb(70,108,96)" stroke="rgb(120,165,148)" stroke-width="1" fill-opacity="0.95"/>
<rect x="195.8" y="616.2" width="26.0" height="58.6" rx="2" fill="rgb(70,108,96)" stroke="rgb(120,165,148)" stroke-width="1" fill-opacity="0.95"/>
<rect x="298.0" y="466.0" width="52.0" height="26.0" rx="2" fill="rgb(70,108,96)" stroke="rgb(120,165,148)" stroke-width="1" fill-opacity="0.95"/>
<rect x="400.8" y="622.0" width="26.0" height="26.0" rx="2" fill="rgb(70,108,96)" stroke="rgb(120,165,148)" stroke-width="1" fill-opacity="0.95"/>
<rect x="350.0" y="180.0" width="26.0" height="52.0" rx="2" fill="rgb(70,108,96)" stroke="rgb(120,165,148)" stroke-width="1" fill-opacity="0.95"/>
<rect x="103.0" y="616.2" width="26.0" height="58.6" rx="2" fill="rgb(70,108,96)" stroke="rgb(120,165,148)" stroke-width="1" fill-opacity="0.95"/>
<rect x="140.8" y="518.0" width="52.0" height="104.0" rx="2" fill="rgb(70,108,96)" stroke="rgb(120,165,148)" stroke-width="1" fill-opacity="0.95"/>
<rect x="90.0" y="362.0" width="52.0" height="104.0" rx="2" fill="rgb(8,80,65)" stroke="rgb(93,202,165)" stroke-width="1" fill-opacity="0.9"/>
<text x="116.0" y="416.0" text-anchor="middle" font-family="Anthropic Sans,Segoe UI,sans-serif" font-size="14" font-weight="700" fill="rgb(93,202,165)">B梯</text>
<text x="116.0" y="431.0" text-anchor="middle" font-family="Anthropic Sans,Segoe UI,sans-serif" font-size="10" font-weight="400" fill="rgb(93,202,165)">暗安全</text>
<rect x="90.0" y="492.0" width="52.0" height="52.0" rx="2" fill="rgb(99,56,6)" stroke="rgb(239,159,39)" stroke-width="1" fill-opacity="0.9"/>
<text x="116.0" y="520.0" text-anchor="middle" font-family="Anthropic Sans,Segoe UI,sans-serif" font-size="14" font-weight="700" fill="rgb(239,159,39)">配电</text>
<text x="116.0" y="535.0" text-anchor="middle" font-family="Anthropic Sans,Segoe UI,sans-serif" font-size="10" font-weight="400" fill="rgb(239,159,39)">S⚡</text>
<rect x="374.1" y="103.8" width="103.9" height="103.9" rx="2" fill="rgb(68,68,65)" stroke="rgb(180,178,169)" stroke-width="1" fill-opacity="0.9"/>
<text x="426.1" y="157.7" text-anchor="middle" font-family="Anthropic Sans,Segoe UI,sans-serif" font-size="14" font-weight="700" fill="rgb(180,178,169)">工头</text>
<text x="426.1" y="172.7" text-anchor="middle" font-family="Anthropic Sans,Segoe UI,sans-serif" font-size="10" font-weight="400" fill="rgb(180,178,169)">M单90</text>
<rect x="194.0" y="492.0" width="52.0" height="52.0" rx="2" fill="rgb(68,68,65)" stroke="rgb(180,178,169)" stroke-width="1" fill-opacity="0.9"/>
<text x="220.0" y="520.0" text-anchor="middle" font-family="Anthropic Sans,Segoe UI,sans-serif" font-size="14" font-weight="700" fill="rgb(180,178,169)">保安</text>
<text x="220.0" y="535.0" text-anchor="middle" font-family="Anthropic Sans,Segoe UI,sans-serif" font-size="10" font-weight="400" fill="rgb(180,178,169)">S单30</text>
<rect x="246.0" y="154.0" width="104.0" height="104.0" rx="2" fill="rgb(68,68,65)" stroke="rgb(180,178,169)" stroke-width="1" fill-opacity="0.9"/>
<text x="298.0" y="208.0" text-anchor="middle" font-family="Anthropic Sans,Segoe UI,sans-serif" font-size="14" font-weight="700" fill="rgb(180,178,169)">食堂</text>
<text x="298.0" y="223.0" text-anchor="middle" font-family="Anthropic Sans,Segoe UI,sans-serif" font-size="10" font-weight="400" fill="rgb(180,178,169)">M单40</text>
<rect x="246.0" y="570.0" width="156.0" height="104.0" rx="2" fill="rgb(8,80,65)" stroke="rgb(93,202,165)" stroke-width="1" fill-opacity="0.9"/>
<text x="324.0" y="624.0" text-anchor="middle" font-family="Anthropic Sans,Segoe UI,sans-serif" font-size="14" font-weight="700" fill="rgb(93,202,165)">大堂</text>
<text x="324.0" y="639.0" text-anchor="middle" font-family="Anthropic Sans,Segoe UI,sans-serif" font-size="10" font-weight="400" fill="rgb(93,202,165)">L★◆</text>
<text x="324.0" y="653.0" text-anchor="middle" font-family="Anthropic Sans,Segoe UI,sans-serif" font-size="9" font-weight="500" fill="rgb(180,205,215)">◼铁质stairs材质</text>
<rect x="246.0" y="258.0" width="104.0" height="104.0" rx="2" fill="rgb(99,56,6)" stroke="rgb(239,159,39)" stroke-width="1" fill-opacity="0.9"/>
<text x="298.0" y="312.0" text-anchor="middle" font-family="Anthropic Sans,Segoe UI,sans-serif" font-size="14" font-weight="700" fill="rgb(239,159,39)">宿舍</text>
<text x="298.0" y="327.0" text-anchor="middle" font-family="Anthropic Sans,Segoe UI,sans-serif" font-size="10" font-weight="400" fill="rgb(239,159,39)">M!证据</text>
<rect x="402.0" y="466.0" width="104.0" height="104.0" rx="2" fill="rgb(68,68,65)" stroke="rgb(180,178,169)" stroke-width="1" fill-opacity="0.9"/>
<text x="454.0" y="520.0" text-anchor="middle" font-family="Anthropic Sans,Segoe UI,sans-serif" font-size="14" font-weight="700" fill="rgb(180,178,169)">工坊</text>
<text x="454.0" y="535.0" text-anchor="middle" font-family="Anthropic Sans,Segoe UI,sans-serif" font-size="10" font-weight="400" fill="rgb(180,178,169)">M耗材</text>
<rect x="477.3" y="102.7" width="106.1" height="106.1" rx="2" fill="rgb(8,80,65)" stroke="rgb(93,202,165)" stroke-width="1" fill-opacity="0.9"/>
<text x="530.3" y="157.7" text-anchor="middle" font-family="Anthropic Sans,Segoe UI,sans-serif" font-size="14" font-weight="700" fill="rgb(93,202,165)">消防▲</text>
<text x="530.3" y="172.7" text-anchor="middle" font-family="Anthropic Sans,Segoe UI,sans-serif" font-size="10" font-weight="400" fill="rgb(93,202,165)">唯一出口</text>
<rect x="428.0" y="622.0" width="52.0" height="52.0" rx="2" fill="rgb(68,68,65)" stroke="rgb(180,178,169)" stroke-width="1" fill-opacity="0.9"/>
<text x="454.0" y="650.0" text-anchor="middle" font-family="Anthropic Sans,Segoe UI,sans-serif" font-size="14" font-weight="700" fill="rgb(180,178,169)">水泵</text>
<text x="454.0" y="665.0" text-anchor="middle" font-family="Anthropic Sans,Segoe UI,sans-serif" font-size="10" font-weight="400" fill="rgb(180,178,169)">S</text>
<rect x="223.1" y="674.0" width="257.4" height="104.0" rx="2" fill="rgb(8,80,65)" stroke="rgb(93,202,165)" stroke-width="1" fill-opacity="0.9"/>
<text x="351.8" y="728.0" text-anchor="middle" font-family="Anthropic Sans,Segoe UI,sans-serif" font-size="14" font-weight="700" fill="rgb(93,202,165)">货车◆</text>
<text x="351.8" y="743.0" text-anchor="middle" font-family="Anthropic Sans,Segoe UI,sans-serif" font-size="10" font-weight="400" fill="rgb(93,202,165)">撤离</text>
<rect x="428.0" y="185.3" width="52.0" height="145.5" rx="2" fill="rgb(8,80,65)" stroke="rgb(93,202,165)" stroke-width="1" fill-opacity="0.9"/>
<text x="454.0" y="260.0" text-anchor="middle" font-family="Anthropic Sans,Segoe UI,sans-serif" font-size="14" font-weight="700" fill="rgb(93,202,165)">A梯</text>
<text x="454.0" y="275.0" text-anchor="middle" font-family="Anthropic Sans,Segoe UI,sans-serif" font-size="10" font-weight="400" fill="rgb(93,202,165)">快暴露</text>
<rect x="246.0" y="492.0" width="52.0" height="52.0" rx="2" fill="rgb(68,68,65)" stroke="rgb(180,178,169)" stroke-width="1" fill-opacity="0.9"/>
<text x="272.0" y="520.0" text-anchor="middle" font-family="Anthropic Sans,Segoe UI,sans-serif" font-size="14" font-weight="700" fill="rgb(180,178,169)">样品</text>
<text x="272.0" y="535.0" text-anchor="middle" font-family="Anthropic Sans,Segoe UI,sans-serif" font-size="10" font-weight="400" fill="rgb(180,178,169)">S单55</text>
<rect x="532.0" y="310.0" width="52.0" height="52.0" rx="2" fill="rgb(68,68,65)" stroke="rgb(180,178,169)" stroke-width="1" fill-opacity="0.9"/>
<text x="558.0" y="338.0" text-anchor="middle" font-family="Anthropic Sans,Segoe UI,sans-serif" font-size="14" font-weight="700" fill="rgb(180,178,169)">工棚</text>
<text x="558.0" y="353.0" text-anchor="middle" font-family="Anthropic Sans,Segoe UI,sans-serif" font-size="10" font-weight="400" fill="rgb(180,178,169)">S</text>
<rect x="246.0" y="362.0" width="156.0" height="104.0" rx="2" fill="rgb(8,80,65)" stroke="rgb(93,202,165)" stroke-width="1" fill-opacity="0.9"/>
<text x="324.0" y="416.0" text-anchor="middle" font-family="Anthropic Sans,Segoe UI,sans-serif" font-size="14" font-weight="700" fill="rgb(93,202,165)">施工厅</text>
<text x="324.0" y="431.0" text-anchor="middle" font-family="Anthropic Sans,Segoe UI,sans-serif" font-size="10" font-weight="400" fill="rgb(93,202,165)">L▒竖井</text>
<rect x="142.0" y="440.0" width="52.0" height="52.0" rx="2" fill="rgb(99,56,6)" stroke="rgb(239,159,39)" stroke-width="1" fill-opacity="0.9"/>
<text x="168.0" y="468.0" text-anchor="middle" font-family="Anthropic Sans,Segoe UI,sans-serif" font-size="14" font-weight="700" fill="rgb(239,159,39)">临办</text>
<text x="168.0" y="483.0" text-anchor="middle" font-family="Anthropic Sans,Segoe UI,sans-serif" font-size="10" font-weight="400" fill="rgb(239,159,39)">S!线索</text>
<rect x="532.0" y="362.0" width="104.0" height="104.0" rx="2" fill="rgb(68,68,65)" stroke="rgb(180,178,169)" stroke-width="1" fill-opacity="0.9"/>
<text x="584.0" y="416.0" text-anchor="middle" font-family="Anthropic Sans,Segoe UI,sans-serif" font-size="14" font-weight="700" fill="rgb(180,178,169)">装卸</text>
<text x="584.0" y="431.0" text-anchor="middle" font-family="Anthropic Sans,Segoe UI,sans-serif" font-size="10" font-weight="400" fill="rgb(180,178,169)">M双110</text>
<rect x="532.0" y="466.0" width="104.0" height="104.0" rx="2" fill="rgb(68,68,65)" stroke="rgb(180,178,169)" stroke-width="1" fill-opacity="0.9"/>
<text x="584.0" y="520.0" text-anchor="middle" font-family="Anthropic Sans,Segoe UI,sans-serif" font-size="14" font-weight="700" fill="rgb(180,178,169)">钢筋</text>
<text x="584.0" y="535.0" text-anchor="middle" font-family="Anthropic Sans,Segoe UI,sans-serif" font-size="10" font-weight="400" fill="rgb(180,178,169)">M</text>
<rect x="90.0" y="674.0" width="156.0" height="104.0" rx="2" fill="rgb(68,68,65)" stroke="rgb(180,178,169)" stroke-width="1" fill-opacity="0.9"/>
<text x="168.0" y="728.0" text-anchor="middle" font-family="Anthropic Sans,Segoe UI,sans-serif" font-size="14" font-weight="700" fill="rgb(180,178,169)">西仓库</text>
<text x="168.0" y="743.0" text-anchor="middle" font-family="Anthropic Sans,Segoe UI,sans-serif" font-size="10" font-weight="400" fill="rgb(180,178,169)">L双140</text>
<rect x="126.3" y="427.0" width="52.0" height="26.0" rx="2" fill="rgb(150,95,20)" stroke="rgb(239,159,39)" stroke-width="1.4" fill-opacity="0.97"/>
<line x1="139.3" y1="453.0" x2="139.3" y2="427.0" stroke="rgb(250,210,150)" stroke-width="0.8"/>
<line x1="152.3" y1="453.0" x2="152.3" y2="427.0" stroke="rgb(250,210,150)" stroke-width="0.8"/>
<line x1="165.3" y1="453.0" x2="165.3" y2="427.0" stroke="rgb(250,210,150)" stroke-width="0.8"/>
<text x="152.3" y="444.0" text-anchor="middle" font-family="Anthropic Sans,Segoe UI,sans-serif" font-size="11" font-weight="700" fill="rgb(255,235,200)">梯</text>
<rect x="181.0" y="479.1" width="52.0" height="26.0" rx="2" fill="rgb(150,95,20)" stroke="rgb(239,159,39)" stroke-width="1.4" fill-opacity="0.97"/>
<line x1="194.0" y1="505.1" x2="194.0" y2="479.1" stroke="rgb(250,210,150)" stroke-width="0.8"/>
<line x1="207.0" y1="505.1" x2="207.0" y2="479.1" stroke="rgb(250,210,150)" stroke-width="0.8"/>
<line x1="220.0" y1="505.1" x2="220.0" y2="479.1" stroke="rgb(250,210,150)" stroke-width="0.8"/>
<text x="207.0" y="496.1" text-anchor="middle" font-family="Anthropic Sans,Segoe UI,sans-serif" font-size="11" font-weight="700" fill="rgb(255,235,200)">梯</text>
<rect x="233.4" y="614.9" width="26.0" height="52.0" rx="2" fill="rgb(150,95,20)" stroke="rgb(239,159,39)" stroke-width="1.4" fill-opacity="0.97"/>
<line x1="233.4" y1="653.9" x2="259.4" y2="653.9" stroke="rgb(250,210,150)" stroke-width="0.8"/>
<line x1="233.4" y1="640.9" x2="259.4" y2="640.9" stroke="rgb(250,210,150)" stroke-width="0.8"/>
<line x1="233.4" y1="627.9" x2="259.4" y2="627.9" stroke="rgb(250,210,150)" stroke-width="0.8"/>
<text x="246.4" y="644.9" text-anchor="middle" font-family="Anthropic Sans,Segoe UI,sans-serif" font-size="11" font-weight="700" fill="rgb(255,235,200)">梯</text>
<rect x="233.4" y="380.8" width="26.0" height="52.0" rx="2" fill="rgb(150,95,20)" stroke="rgb(239,159,39)" stroke-width="1.4" fill-opacity="0.97"/>
<line x1="233.4" y1="419.8" x2="259.4" y2="419.8" stroke="rgb(250,210,150)" stroke-width="0.8"/>
<line x1="233.4" y1="406.8" x2="259.4" y2="406.8" stroke="rgb(250,210,150)" stroke-width="0.8"/>
<line x1="233.4" y1="393.8" x2="259.4" y2="393.8" stroke="rgb(250,210,150)" stroke-width="0.8"/>
<text x="246.4" y="410.8" text-anchor="middle" font-family="Anthropic Sans,Segoe UI,sans-serif" font-size="11" font-weight="700" fill="rgb(255,235,200)">梯</text>
<rect x="521.9" y="331.2" width="26.0" height="52.0" rx="2" fill="rgb(150,95,20)" stroke="rgb(239,159,39)" stroke-width="1.4" fill-opacity="0.97"/>
<line x1="521.9" y1="370.2" x2="547.9" y2="370.2" stroke="rgb(250,210,150)" stroke-width="0.8"/>
<line x1="521.9" y1="357.2" x2="547.9" y2="357.2" stroke="rgb(250,210,150)" stroke-width="0.8"/>
<line x1="521.9" y1="344.2" x2="547.9" y2="344.2" stroke="rgb(250,210,150)" stroke-width="0.8"/>
<text x="534.9" y="361.2" text-anchor="middle" font-family="Anthropic Sans,Segoe UI,sans-serif" font-size="11" font-weight="700" fill="rgb(255,235,200)">梯</text>
<text x="649.0" y="89.0" text-anchor="middle" font-family="Anthropic Sans,Segoe UI,sans-serif" font-size="13" font-weight="500" fill="rgb(233,231,222)">北↑</text>
<rect x="64" y="838" width="14" height="14" rx="2" fill="rgb(8,80,65)"/>
<text x="83" y="850" font-family="sans-serif" font-size="12" fill="rgb(200,198,188)">房间(动线/固定)</text>
<rect x="225" y="838" width="14" height="14" rx="2" fill="rgb(68,68,65)"/>
<text x="244" y="850" font-family="sans-serif" font-size="12" fill="rgb(200,198,188)">房间(随机/战利品)</text>
<rect x="399" y="838" width="14" height="14" rx="2" fill="rgb(99,56,6)"/>
<text x="418" y="850" font-family="sans-serif" font-size="12" fill="rgb(200,198,188)">房间(闸门/线索)</text>
<rect x="560" y="838" width="14" height="14" rx="2" fill="rgb(70,108,96)"/>
<text x="579" y="850" font-family="sans-serif" font-size="12" fill="rgb(200,198,188)">走廊 走道</text>
<rect x="669" y="838" width="14" height="14" rx="2" fill="rgb(150,95,20)"/>
<text x="688" y="850" font-family="sans-serif" font-size="12" fill="rgb(200,198,188)">楼梯走道(梯)</text>
</svg>