<?xml version="1.0" encoding="UTF-8"?>
<svg xmlns="http://www.w3.org/2000/svg" width="1160" height="1060" viewBox="0 0 1160 1060">
<style>text{font-family:Arial,Helvetica,sans-serif}.label{font-size:10px;font-weight:700;fill:#111}.sub{font-size:8px;fill:#333}.legend{font-size:12px;fill:#222}.title{font-size:18px;font-weight:700;fill:#111}.small{font-size:10px;fill:#333}</style>
<rect width="100%" height="100%" fill="#f7f5ef"/>
<text class="title" x="80" y="34">Tower EarthCoast 01 - F1 Current Saved Scene Plan</text>
<text class="small" x="80" y="52">Source: Assets/Scene/AbandonedBuilding_Blockout.unity | Room size by saved floor footprint area</text>
<line x1="50.24" y1="980.48" x2="50.24" y2="80.00" stroke="#d9d5ca" stroke-width="0.5"/>
<line x1="114.24" y1="980.48" x2="114.24" y2="80.00" stroke="#d9d5ca" stroke-width="0.5"/>
<line x1="178.24" y1="980.48" x2="178.24" y2="80.00" stroke="#d9d5ca" stroke-width="0.5"/>
<line x1="242.24" y1="980.48" x2="242.24" y2="80.00" stroke="#d9d5ca" stroke-width="0.5"/>
<line x1="306.24" y1="980.48" x2="306.24" y2="80.00" stroke="#d9d5ca" stroke-width="0.5"/>
<line x1="370.24" y1="980.48" x2="370.24" y2="80.00" stroke="#d9d5ca" stroke-width="0.5"/>
<line x1="434.24" y1="980.48" x2="434.24" y2="80.00" stroke="#d9d5ca" stroke-width="0.5"/>
<line x1="498.24" y1="980.48" x2="498.24" y2="80.00" stroke="#d9d5ca" stroke-width="0.5"/>
<line x1="562.24" y1="980.48" x2="562.24" y2="80.00" stroke="#d9d5ca" stroke-width="0.5"/>
<line x1="626.24" y1="980.48" x2="626.24" y2="80.00" stroke="#d9d5ca" stroke-width="0.5"/>
<line x1="690.24" y1="980.48" x2="690.24" y2="80.00" stroke="#d9d5ca" stroke-width="0.5"/>
<line x1="754.24" y1="980.48" x2="754.24" y2="80.00" stroke="#d9d5ca" stroke-width="0.5"/>
<line x1="818.24" y1="980.48" x2="818.24" y2="80.00" stroke="#d9d5ca" stroke-width="0.5"/>
<line x1="882.24" y1="980.48" x2="882.24" y2="80.00" stroke="#d9d5ca" stroke-width="0.5"/>
<line x1="80.00" y1="1010.24" x2="820.48" y2="1010.24" stroke="#d9d5ca" stroke-width="0.5"/>
<line x1="80.00" y1="946.24" x2="820.48" y2="946.24" stroke="#d9d5ca" stroke-width="0.5"/>
<line x1="80.00" y1="882.24" x2="820.48" y2="882.24" stroke="#d9d5ca" stroke-width="0.5"/>
<line x1="80.00" y1="818.24" x2="820.48" y2="818.24" stroke="#d9d5ca" stroke-width="0.5"/>
<line x1="80.00" y1="754.24" x2="820.48" y2="754.24" stroke="#d9d5ca" stroke-width="0.5"/>
<line x1="80.00" y1="690.24" x2="820.48" y2="690.24" stroke="#d9d5ca" stroke-width="0.5"/>
<line x1="80.00" y1="626.24" x2="820.48" y2="626.24" stroke="#d9d5ca" stroke-width="0.5"/>
<line x1="80.00" y1="562.24" x2="820.48" y2="562.24" stroke="#d9d5ca" stroke-width="0.5"/>
<line x1="80.00" y1="498.24" x2="820.48" y2="498.24" stroke="#d9d5ca" stroke-width="0.5"/>
<line x1="80.00" y1="434.24" x2="820.48" y2="434.24" stroke="#d9d5ca" stroke-width="0.5"/>
<line x1="80.00" y1="370.24" x2="820.48" y2="370.24" stroke="#d9d5ca" stroke-width="0.5"/>
<line x1="80.00" y1="306.24" x2="820.48" y2="306.24" stroke="#d9d5ca" stroke-width="0.5"/>
<line x1="80.00" y1="242.24" x2="820.48" y2="242.24" stroke="#d9d5ca" stroke-width="0.5"/>
<line x1="80.00" y1="178.24" x2="820.48" y2="178.24" stroke="#d9d5ca" stroke-width="0.5"/>
<line x1="80.00" y1="114.24" x2="820.48" y2="114.24" stroke="#d9d5ca" stroke-width="0.5"/>
<line x1="80.00" y1="50.24" x2="820.48" y2="50.24" stroke="#d9d5ca" stroke-width="0.5"/>
<rect x="114.24" y="433.12" width="192.00" height="2.24" fill="#d8dde2" fill-opacity="0.42" stroke="#9aa4ad" stroke-width="0.8" />
<rect x="305.12" y="178.24" width="2.24" height="256.00" fill="#d8dde2" fill-opacity="0.42" stroke="#9aa4ad" stroke-width="0.8" />
<rect x="370.24" y="562.24" width="64.00" height="128.00" fill="#d2b26f" fill-opacity="0.45" stroke="#987a37" stroke-width="0.6" />
<rect x="178.24" y="594.24" width="128.00" height="64.00" fill="#d2b26f" fill-opacity="0.45" stroke="#987a37" stroke-width="0.6" />
<rect x="176.80" y="626.24" width="64.00" height="128.00" fill="#d2b26f" fill-opacity="0.45" stroke="#987a37" stroke-width="0.6" />
<rect x="114.24" y="562.24" width="64.00" height="32.00" fill="#d2b26f" fill-opacity="0.45" stroke="#987a37" stroke-width="0.6" />
<rect x="370.24" y="562.24" width="64.00" height="32.00" fill="#d2b26f" fill-opacity="0.45" stroke="#987a37" stroke-width="0.6" />
<rect x="626.24" y="610.24" width="32.00" height="32.00" fill="#d2b26f" fill-opacity="0.45" stroke="#987a37" stroke-width="0.6" />
<rect x="434.24" y="210.24" width="32.00" height="64.00" fill="#d2b26f" fill-opacity="0.45" stroke="#987a37" stroke-width="0.6" />
<rect x="626.24" y="594.24" width="32.00" height="64.00" fill="#d2b26f" fill-opacity="0.45" stroke="#987a37" stroke-width="0.6" />
<rect x="496.80" y="754.24" width="32.00" height="32.00" fill="#d2b26f" fill-opacity="0.45" stroke="#987a37" stroke-width="0.6" />
<rect x="370.24" y="594.24" width="128.00" height="64.00" fill="#d2b26f" fill-opacity="0.45" stroke="#987a37" stroke-width="0.6" />
<rect x="130.24" y="747.12" width="32.00" height="72.16" fill="#d2b26f" fill-opacity="0.45" stroke="#987a37" stroke-width="0.6" />
<rect x="244.48" y="747.12" width="32.00" height="72.16" fill="#d2b26f" fill-opacity="0.45" stroke="#987a37" stroke-width="0.6" />
<rect x="427.12" y="182.88" width="110.24" height="249.28" fill="#d2b26f" fill-opacity="0.45" stroke="#987a37" stroke-width="0.6" />
<rect x="278.08" y="818.24" width="316.80" height="128.00" fill="#b8b8b8" fill-opacity="0.45" stroke="#666" stroke-width="1.0" stroke-dasharray="4 2"/>
<rect x="590.88" y="115.04" width="130.56" height="130.56" fill="#b8b8b8" fill-opacity="0.45" stroke="#666" stroke-width="1.0" stroke-dasharray="4 2"/>
<rect x="114.24" y="178.24" width="194.24" height="258.24" fill="#b8b8b8" fill-opacity="0.45" stroke="#666" stroke-width="1.0" stroke-dasharray="4 2"/>
<rect x="530.24" y="216.72" width="64.00" height="179.04" fill="#b8b8b8" fill-opacity="0.45" stroke="#666" stroke-width="1.0" stroke-dasharray="4 2"/>
<rect x="114.24" y="434.24" width="64.00" height="128.00" fill="#b8b8b8" fill-opacity="0.45" stroke="#666" stroke-width="1.0" stroke-dasharray="4 2"/>
<rect x="306.24" y="690.24" width="192.00" height="128.00" fill="#8cc084" fill-opacity="0.62" stroke="#232323" stroke-width="1.8" />
<rect x="114.24" y="818.24" width="192.00" height="128.00" fill="#8cc084" fill-opacity="0.62" stroke="#232323" stroke-width="1.8" />
<rect x="306.24" y="434.24" width="192.00" height="128.00" fill="#8cc084" fill-opacity="0.62" stroke="#232323" stroke-width="1.8" />
<rect x="498.24" y="562.24" width="128.00" height="128.00" fill="#7fb3d5" fill-opacity="0.62" stroke="#232323" stroke-width="1.8" />
<rect x="658.24" y="434.24" width="128.00" height="128.00" fill="#7fb3d5" fill-opacity="0.62" stroke="#232323" stroke-width="1.8" />
<rect x="306.24" y="306.24" width="128.00" height="128.00" fill="#7fb3d5" fill-opacity="0.62" stroke="#232323" stroke-width="1.8" />
<rect x="306.24" y="178.24" width="128.00" height="128.00" fill="#7fb3d5" fill-opacity="0.62" stroke="#232323" stroke-width="1.8" />
<rect x="463.92" y="116.40" width="127.84" height="127.84" fill="#7fb3d5" fill-opacity="0.62" stroke="#232323" stroke-width="1.8" />
<rect x="658.24" y="562.24" width="128.00" height="128.00" fill="#7fb3d5" fill-opacity="0.62" stroke="#232323" stroke-width="1.8" />
<rect x="114.24" y="594.24" width="64.00" height="64.00" fill="#f2d46b" fill-opacity="0.62" stroke="#232323" stroke-width="1.8" />
<rect x="178.24" y="530.24" width="64.00" height="64.00" fill="#f2d46b" fill-opacity="0.62" stroke="#232323" stroke-width="1.8" />
<rect x="242.24" y="594.24" width="64.00" height="64.00" fill="#f2d46b" fill-opacity="0.62" stroke="#232323" stroke-width="1.8" />
<rect x="306.24" y="594.24" width="64.00" height="64.00" fill="#f2d46b" fill-opacity="0.62" stroke="#232323" stroke-width="1.8" />
<rect x="530.24" y="754.24" width="64.00" height="64.00" fill="#f2d46b" fill-opacity="0.62" stroke="#232323" stroke-width="1.8" />
<rect x="658.24" y="370.24" width="64.00" height="64.00" fill="#f2d46b" fill-opacity="0.62" stroke="#232323" stroke-width="1.8" />
<rect x="306.24" y="688.22" width="74.72" height="4.48" fill="#161616" fill-opacity="0.85" stroke="#161616" stroke-width="0.2" />
<rect x="424.64" y="688.00" width="73.60" height="4.48" fill="#161616" fill-opacity="0.85" stroke="#161616" stroke-width="0.2" />
<rect x="496.00" y="802.24" width="4.48" height="16.00" fill="#161616" fill-opacity="0.85" stroke="#161616" stroke-width="0.2" />
<rect x="496.00" y="690.40" width="4.48" height="56.64" fill="#161616" fill-opacity="0.85" stroke="#161616" stroke-width="0.2" />
<rect x="114.24" y="816.00" width="16.00" height="4.48" fill="#161616" fill-opacity="0.85" stroke="#161616" stroke-width="0.2" />
<rect x="162.24" y="816.00" width="144.00" height="4.48" fill="#161616" fill-opacity="0.85" stroke="#161616" stroke-width="0.2" />
<rect x="114.24" y="944.00" width="192.00" height="4.48" fill="#161616" fill-opacity="0.85" stroke="#161616" stroke-width="0.2" />
<rect x="304.00" y="818.24" width="4.48" height="128.00" fill="#161616" fill-opacity="0.85" stroke="#161616" stroke-width="0.2" />
<rect x="112.00" y="818.24" width="4.48" height="128.00" fill="#161616" fill-opacity="0.85" stroke="#161616" stroke-width="0.2" />
<rect x="114.24" y="592.00" width="9.60" height="4.48" fill="#161616" fill-opacity="0.85" stroke="#161616" stroke-width="0.2" />
<rect x="168.64" y="592.00" width="9.60" height="4.48" fill="#161616" fill-opacity="0.85" stroke="#161616" stroke-width="0.2" />
<rect x="114.24" y="656.00" width="64.00" height="4.48" fill="#161616" fill-opacity="0.85" stroke="#161616" stroke-width="0.2" />
<rect x="112.00" y="594.24" width="4.48" height="64.00" fill="#161616" fill-opacity="0.85" stroke="#161616" stroke-width="0.2" />
<rect x="178.24" y="644.48" width="4.48" height="16.00" fill="#161616" fill-opacity="0.85" stroke="#161616" stroke-width="0.2" />
<rect x="178.24" y="596.48" width="4.48" height="16.00" fill="#161616" fill-opacity="0.85" stroke="#161616" stroke-width="0.2" />
<rect x="178.24" y="592.00" width="64.00" height="4.48" fill="#161616" fill-opacity="0.85" stroke="#161616" stroke-width="0.2" />
<rect x="240.00" y="530.24" width="4.48" height="64.00" fill="#161616" fill-opacity="0.85" stroke="#161616" stroke-width="0.2" />
<rect x="242.24" y="656.00" width="64.00" height="4.48" fill="#161616" fill-opacity="0.85" stroke="#161616" stroke-width="0.2" />
<rect x="304.00" y="642.24" width="4.48" height="16.00" fill="#161616" fill-opacity="0.85" stroke="#161616" stroke-width="0.2" />
<rect x="304.00" y="594.24" width="4.48" height="16.00" fill="#161616" fill-opacity="0.85" stroke="#161616" stroke-width="0.2" />
<rect x="237.76" y="644.48" width="4.48" height="16.00" fill="#161616" fill-opacity="0.85" stroke="#161616" stroke-width="0.2" />
<rect x="237.76" y="596.48" width="4.48" height="16.00" fill="#161616" fill-opacity="0.85" stroke="#161616" stroke-width="0.2" />
<rect x="306.24" y="592.00" width="64.00" height="4.48" fill="#161616" fill-opacity="0.85" stroke="#161616" stroke-width="0.2" />
<rect x="306.24" y="656.00" width="64.00" height="4.48" fill="#161616" fill-opacity="0.85" stroke="#161616" stroke-width="0.2" />
<rect x="368.00" y="648.64" width="4.48" height="9.60" fill="#161616" fill-opacity="0.85" stroke="#161616" stroke-width="0.2" />
<rect x="368.00" y="594.24" width="4.48" height="9.60" fill="#161616" fill-opacity="0.85" stroke="#161616" stroke-width="0.2" />
<rect x="304.00" y="642.24" width="4.48" height="16.00" fill="#161616" fill-opacity="0.85" stroke="#161616" stroke-width="0.2" />
<rect x="304.00" y="594.24" width="4.48" height="16.00" fill="#161616" fill-opacity="0.85" stroke="#161616" stroke-width="0.2" />
<rect x="306.24" y="432.00" width="41.60" height="4.48" fill="#161616" fill-opacity="0.85" stroke="#161616" stroke-width="0.2" />
<rect x="392.64" y="432.00" width="105.60" height="4.48" fill="#161616" fill-opacity="0.85" stroke="#161616" stroke-width="0.2" />
<rect x="306.24" y="560.00" width="9.60" height="4.48" fill="#161616" fill-opacity="0.85" stroke="#161616" stroke-width="0.2" />
<rect x="360.64" y="560.00" width="19.20" height="4.48" fill="#161616" fill-opacity="0.85" stroke="#161616" stroke-width="0.2" />
<rect x="424.64" y="560.00" width="73.60" height="4.48" fill="#161616" fill-opacity="0.85" stroke="#161616" stroke-width="0.2" />
<rect x="496.00" y="434.24" width="4.48" height="128.00" fill="#161616" fill-opacity="0.85" stroke="#161616" stroke-width="0.2" />
<rect x="306.24" y="490.40" width="4.48" height="69.60" fill="#161616" fill-opacity="0.85" stroke="#161616" stroke-width="0.2" />
<rect x="498.24" y="560.00" width="128.00" height="4.48" fill="#161616" fill-opacity="0.85" stroke="#161616" stroke-width="0.2" />
<rect x="498.24" y="688.00" width="128.00" height="4.48" fill="#161616" fill-opacity="0.85" stroke="#161616" stroke-width="0.2" />
<rect x="624.00" y="648.64" width="4.48" height="41.60" fill="#161616" fill-opacity="0.85" stroke="#161616" stroke-width="0.2" />
<rect x="624.00" y="562.24" width="4.48" height="41.60" fill="#161616" fill-opacity="0.85" stroke="#161616" stroke-width="0.2" />
<rect x="496.00" y="648.64" width="4.48" height="41.60" fill="#161616" fill-opacity="0.85" stroke="#161616" stroke-width="0.2" />
<rect x="496.00" y="562.24" width="4.48" height="41.60" fill="#161616" fill-opacity="0.85" stroke="#161616" stroke-width="0.2" />
<rect x="658.24" y="432.00" width="16.00" height="4.48" fill="#161616" fill-opacity="0.85" stroke="#161616" stroke-width="0.2" />
<rect x="706.24" y="432.00" width="80.00" height="4.48" fill="#161616" fill-opacity="0.85" stroke="#161616" stroke-width="0.2" />
<rect x="658.24" y="560.00" width="48.00" height="4.48" fill="#161616" fill-opacity="0.85" stroke="#161616" stroke-width="0.2" />
<rect x="738.24" y="560.00" width="48.00" height="4.48" fill="#161616" fill-opacity="0.85" stroke="#161616" stroke-width="0.2" />
<rect x="784.00" y="434.24" width="4.48" height="128.00" fill="#161616" fill-opacity="0.85" stroke="#161616" stroke-width="0.2" />
<rect x="656.00" y="434.24" width="4.48" height="128.00" fill="#161616" fill-opacity="0.85" stroke="#161616" stroke-width="0.2" />
<rect x="306.24" y="304.00" width="41.60" height="4.48" fill="#161616" fill-opacity="0.85" stroke="#161616" stroke-width="0.2" />
<rect x="392.64" y="304.00" width="41.60" height="4.48" fill="#161616" fill-opacity="0.85" stroke="#161616" stroke-width="0.2" />
<rect x="304.72" y="432.00" width="46.56" height="4.48" fill="#161616" fill-opacity="0.85" stroke="#161616" stroke-width="0.2" />
<rect x="424.64" y="432.00" width="9.60" height="4.48" fill="#161616" fill-opacity="0.85" stroke="#161616" stroke-width="0.2" />
<rect x="432.00" y="304.48" width="4.48" height="84.16" fill="#161616" fill-opacity="0.85" stroke="#161616" stroke-width="0.2" />
<rect x="304.00" y="306.24" width="4.48" height="128.00" fill="#161616" fill-opacity="0.85" stroke="#161616" stroke-width="0.2" />
<rect x="306.24" y="176.00" width="128.00" height="4.48" fill="#161616" fill-opacity="0.85" stroke="#161616" stroke-width="0.2" />
<rect x="306.24" y="304.00" width="41.60" height="4.48" fill="#161616" fill-opacity="0.85" stroke="#161616" stroke-width="0.2" />
<rect x="392.64" y="304.00" width="41.60" height="4.48" fill="#161616" fill-opacity="0.85" stroke="#161616" stroke-width="0.2" />
<rect x="432.00" y="203.04" width="4.48" height="103.20" fill="#161616" fill-opacity="0.85" stroke="#161616" stroke-width="0.2" />
<rect x="432.00" y="178.24" width="4.48" height="2.40" fill="#161616" fill-opacity="0.85" stroke="#161616" stroke-width="0.2" />
<rect x="304.00" y="178.24" width="4.48" height="128.00" fill="#161616" fill-opacity="0.85" stroke="#161616" stroke-width="0.2" />
<rect x="466.24" y="112.00" width="128.00" height="4.48" fill="#161616" fill-opacity="0.85" stroke="#161616" stroke-width="0.2" />
<rect x="466.24" y="240.00" width="73.60" height="4.48" fill="#161616" fill-opacity="0.85" stroke="#161616" stroke-width="0.2" />
<rect x="584.64" y="240.00" width="9.60" height="4.48" fill="#161616" fill-opacity="0.85" stroke="#161616" stroke-width="0.2" />
<rect x="592.00" y="194.24" width="4.48" height="48.00" fill="#161616" fill-opacity="0.85" stroke="#161616" stroke-width="0.2" />
<rect x="592.00" y="114.24" width="4.48" height="48.00" fill="#161616" fill-opacity="0.85" stroke="#161616" stroke-width="0.2" />
<rect x="464.00" y="239.84" width="4.48" height="2.40" fill="#161616" fill-opacity="0.85" stroke="#161616" stroke-width="0.2" />
<rect x="464.00" y="114.24" width="4.48" height="103.20" fill="#161616" fill-opacity="0.85" stroke="#161616" stroke-width="0.2" />
<rect x="658.24" y="560.00" width="48.00" height="4.48" fill="#161616" fill-opacity="0.85" stroke="#161616" stroke-width="0.2" />
<rect x="738.24" y="560.00" width="48.00" height="4.48" fill="#161616" fill-opacity="0.85" stroke="#161616" stroke-width="0.2" />
<rect x="658.24" y="688.00" width="128.00" height="4.48" fill="#161616" fill-opacity="0.85" stroke="#161616" stroke-width="0.2" />
<rect x="784.00" y="562.24" width="4.48" height="128.00" fill="#161616" fill-opacity="0.85" stroke="#161616" stroke-width="0.2" />
<rect x="656.00" y="648.64" width="4.48" height="41.60" fill="#161616" fill-opacity="0.85" stroke="#161616" stroke-width="0.2" />
<rect x="656.00" y="562.24" width="4.48" height="41.60" fill="#161616" fill-opacity="0.85" stroke="#161616" stroke-width="0.2" />
<rect x="530.24" y="752.00" width="64.00" height="4.48" fill="#161616" fill-opacity="0.85" stroke="#161616" stroke-width="0.2" />
<rect x="530.24" y="816.00" width="64.00" height="4.48" fill="#161616" fill-opacity="0.85" stroke="#161616" stroke-width="0.2" />
<rect x="592.00" y="754.24" width="4.48" height="64.00" fill="#161616" fill-opacity="0.85" stroke="#161616" stroke-width="0.2" />
<rect x="528.00" y="772.64" width="4.48" height="45.60" fill="#161616" fill-opacity="0.85" stroke="#161616" stroke-width="0.2" />
<rect x="658.24" y="368.00" width="64.00" height="4.48" fill="#161616" fill-opacity="0.85" stroke="#161616" stroke-width="0.2" />
<rect x="719.84" y="432.00" width="2.40" height="4.48" fill="#161616" fill-opacity="0.85" stroke="#161616" stroke-width="0.2" />
<rect x="720.00" y="370.24" width="4.48" height="64.00" fill="#161616" fill-opacity="0.85" stroke="#161616" stroke-width="0.2" />
<rect x="594.24" y="112.00" width="128.00" height="4.48" fill="#161616" fill-opacity="0.85" stroke="#161616" stroke-width="0.2" />
<rect x="594.24" y="240.00" width="128.00" height="4.48" fill="#161616" fill-opacity="0.85" stroke="#161616" stroke-width="0.2" />
<rect x="720.00" y="114.24" width="4.48" height="128.00" fill="#161616" fill-opacity="0.85" stroke="#161616" stroke-width="0.2" />
<rect x="592.00" y="194.24" width="4.48" height="48.00" fill="#161616" fill-opacity="0.85" stroke="#161616" stroke-width="0.2" />
<rect x="592.00" y="114.24" width="4.48" height="48.00" fill="#161616" fill-opacity="0.85" stroke="#161616" stroke-width="0.2" />
<rect x="114.24" y="432.00" width="9.60" height="4.48" fill="#161616" fill-opacity="0.85" stroke="#161616" stroke-width="0.2" />
<rect x="168.64" y="432.00" width="137.60" height="4.48" fill="#161616" fill-opacity="0.85" stroke="#161616" stroke-width="0.2" />
<rect x="304.00" y="203.04" width="4.48" height="231.20" fill="#161616" fill-opacity="0.85" stroke="#161616" stroke-width="0.2" />
<rect x="304.00" y="178.24" width="4.48" height="2.40" fill="#161616" fill-opacity="0.85" stroke="#161616" stroke-width="0.2" />
<rect x="530.24" y="240.00" width="2.40" height="4.48" fill="#161616" fill-opacity="0.85" stroke="#161616" stroke-width="0.2" />
<rect x="555.04" y="240.00" width="39.20" height="4.48" fill="#161616" fill-opacity="0.85" stroke="#161616" stroke-width="0.2" />
<rect x="530.24" y="368.00" width="2.40" height="4.48" fill="#161616" fill-opacity="0.85" stroke="#161616" stroke-width="0.2" />
<rect x="592.00" y="242.24" width="4.48" height="128.00" fill="#161616" fill-opacity="0.85" stroke="#161616" stroke-width="0.2" />
<rect x="528.00" y="242.24" width="4.48" height="128.00" fill="#161616" fill-opacity="0.85" stroke="#161616" stroke-width="0.2" />
<rect x="114.24" y="432.00" width="64.00" height="4.48" fill="#161616" fill-opacity="0.85" stroke="#161616" stroke-width="0.2" />
<rect x="114.24" y="560.00" width="9.60" height="4.48" fill="#161616" fill-opacity="0.85" stroke="#161616" stroke-width="0.2" />
<rect x="168.64" y="560.00" width="9.60" height="4.48" fill="#161616" fill-opacity="0.85" stroke="#161616" stroke-width="0.2" />
<rect x="173.76" y="498.72" width="4.48" height="61.28" fill="#161616" fill-opacity="0.85" stroke="#161616" stroke-width="0.2" />
<rect x="112.00" y="434.24" width="4.48" height="128.00" fill="#161616" fill-opacity="0.85" stroke="#161616" stroke-width="0.2" />
<rect x="112.00" y="434.24" width="4.48" height="128.00" fill="#161616" fill-opacity="0.85" stroke="#161616" stroke-width="0.2" />
<text class="label" x="402.24" y="751.24" text-anchor="middle">LOBBY</text>
<text class="sub" x="402.24" y="763.24" text-anchor="middle">L 12.0x8.0m</text>
<text class="label" x="210.24" y="879.24" text-anchor="middle">WAREHOUSE</text>
<text class="sub" x="210.24" y="891.24" text-anchor="middle">L 12.0x8.0m</text>
<text class="label" x="146.24" y="623.24" text-anchor="middle">POWER</text>
<text class="sub" x="146.24" y="635.24" text-anchor="middle">S 4.0x4.0m</text>
<text class="label" x="210.24" y="559.24" text-anchor="middle">TEMP</text>
<text class="sub" x="210.24" y="571.24" text-anchor="middle">S 4.0x4.0m</text>
<text class="label" x="274.24" y="623.24" text-anchor="middle">SECUR</text>
<text class="sub" x="274.24" y="635.24" text-anchor="middle">S 4.0x4.0m</text>
<text class="label" x="338.24" y="623.24" text-anchor="middle">SAMPLE</text>
<text class="sub" x="338.24" y="635.24" text-anchor="middle">S 4.0x4.0m</text>
<text class="label" x="402.24" y="495.24" text-anchor="middle">HALL</text>
<text class="sub" x="402.24" y="507.24" text-anchor="middle">L 12.0x8.0m</text>
<text class="label" x="562.24" y="623.24" text-anchor="middle">WORKSHOP</text>
<text class="sub" x="562.24" y="635.24" text-anchor="middle">M 8.0x8.0m</text>
<text class="label" x="722.24" y="495.24" text-anchor="middle">DOCK</text>
<text class="sub" x="722.24" y="507.24" text-anchor="middle">M 8.0x8.0m</text>
<text class="label" x="370.24" y="367.24" text-anchor="middle">DORM</text>
<text class="sub" x="370.24" y="379.24" text-anchor="middle">M 8.0x8.0m</text>
<text class="label" x="370.24" y="239.24" text-anchor="middle">CANTEEN</text>
<text class="sub" x="370.24" y="251.24" text-anchor="middle">M 8.0x8.0m</text>
<text class="label" x="527.84" y="177.32" text-anchor="middle">FOREMAN</text>
<text class="sub" x="527.84" y="189.32" text-anchor="middle">M 8.0x8.0m</text>
<text class="label" x="722.24" y="623.24" text-anchor="middle">REBAR</text>
<text class="sub" x="722.24" y="635.24" text-anchor="middle">M 8.0x8.0m</text>
<text class="label" x="562.24" y="783.24" text-anchor="middle">PUMP</text>
<text class="sub" x="562.24" y="795.24" text-anchor="middle">S 4.0x4.0m</text>
<text class="label" x="690.24" y="399.24" text-anchor="middle">SHANTY</text>
<text class="sub" x="690.24" y="411.24" text-anchor="middle">S 4.0x4.0m</text>
<text class="label" x="436.48" y="879.24" text-anchor="middle">VAN</text>
<text class="sub" x="436.48" y="891.24" text-anchor="middle">STRUCT 19.8x8.0m</text>
<text class="label" x="656.16" y="177.32" text-anchor="middle">FIRE</text>
<text class="sub" x="656.16" y="189.32" text-anchor="middle">STRUCT 8.2x8.2m</text>
<text class="label" x="211.36" y="304.36" text-anchor="middle">COLLAPSE</text>
<text class="sub" x="211.36" y="316.36" text-anchor="middle">STRUCT 12.1x16.1m</text>
<text class="label" x="562.24" y="303.24" text-anchor="middle">STAIRA1</text>
<text class="sub" x="562.24" y="315.24" text-anchor="middle">STRUCT 4.0x11.2m</text>
<text class="label" x="146.24" y="495.24" text-anchor="middle">STAIRB1</text>
<text class="sub" x="146.24" y="507.24" text-anchor="middle">STRUCT 4.0x8.0m</text>
<rect x="908" y="44" width="220" height="220" fill="#fff" fill-opacity="0.82" stroke="#999"/>
<text class="legend" x="924" y="72">Legend</text>
<rect x="924" y="82" width="18" height="14" fill="#f2d46b" fill-opacity="0.7" stroke="#333"/>
<text class="small" x="950" y="94">S: Small room <= 25 sqm</text>
<rect x="924" y="106" width="18" height="14" fill="#7fb3d5" fill-opacity="0.7" stroke="#333"/>
<text class="small" x="950" y="118">M: Medium room <= 80 sqm</text>
<rect x="924" y="130" width="18" height="14" fill="#8cc084" fill-opacity="0.7" stroke="#333"/>
<text class="small" x="950" y="142">L: Large room > 80 sqm</text>
<rect x="924" y="154" width="18" height="14" fill="#b8b8b8" fill-opacity="0.7" stroke="#333"/>
<text class="small" x="950" y="166">STRUCT: Stair/Van/Fire/Collapse</text>
<rect x="924" y="178" width="18" height="14" fill="#161616" fill-opacity="0.85"/>
<text class="small" x="950" y="190">Black: saved wall segments</text>
<rect x="924" y="202" width="18" height="14" fill="#d2b26f" fill-opacity="0.45" stroke="#987a37"/>
<text class="small" x="950" y="214">Ochre: connector floor runs</text>
<rect x="924" y="226" width="18" height="14" fill="#d8dde2" fill-opacity="0.42" stroke="#9aa4ad"/>
<text class="small" x="950" y="238">Blue grey: F1 slab/rim plates</text>
</svg>