<svg xmlns="http://www.w3.org/2000/svg" width="1920" height="1080" viewBox="0 0 1920 1080"><defs>
  <radialGradient id="vig" cx="0.5" cy="0.46" r="0.75">
    <stop offset="0.45" stop-color="#000" stop-opacity="0"/>
    <stop offset="1" stop-color="#000" stop-opacity="0.72"/>
  </radialGradient>
  <radialGradient id="lamp" cx="0.5" cy="0.5" r="0.5">
    <stop offset="0" stop-color="#FF9820" stop-opacity="0.34"/>
    <stop offset="0.55" stop-color="#9A6418" stop-opacity="0.10"/>
    <stop offset="1" stop-color="#FF9820" stop-opacity="0"/>
  </radialGradient>
  <radialGradient id="crtglow" cx="0.5" cy="0.5" r="0.6">
    <stop offset="0" stop-color="#6CFF5F" stop-opacity="0.16"/>
    <stop offset="1" stop-color="#6CFF5F" stop-opacity="0"/>
  </radialGradient>
  <linearGradient id="paperg" x1="0" y1="0" x2="0" y2="1">
    <stop offset="0" stop-color="#CFC4A4"/><stop offset="1" stop-color="#B8AD8E"/>
  </linearGradient>
  <filter id="grain"><feTurbulence type="fractalNoise" baseFrequency="0.9" numOctaves="2" stitchTiles="stitch"/>
    <feColorMatrix type="matrix" values="0 0 0 0 0  0 0 0 0 0  0 0 0 0 0  0 0 0 0.5 0"/></filter>
</defs><rect x="0" y="0" width="1920" height="1080" fill="#1A1A17"/><rect x="1060" y="0" width="860" height="1080" fill="#1E1E1B"/><line x1="1060" y1="0" x2="1060" y2="1080" stroke="#000" stroke-width="3" opacity="0.5"/><ellipse cx="1520" cy="720" rx="520" ry="430" fill="url(#lamp)"/><rect x="1300" y="760" width="520" height="220" fill="#241F18"/><line x1="1300" y1="760" x2="1820" y2="760" stroke="#9A6418" stroke-width="2" opacity="0.4"/><ellipse cx="1430" cy="660" rx="160" ry="130" fill="url(#crtglow)"/><rect x="1360" y="600" width="150" height="120" fill="#15170F"/><rect x="1372" y="612" width="126" height="84" fill="#0E140C"/><line x1="1384" y1="648" x2="1486" y2="648" stroke="#2E7A33" stroke-width="3" opacity="0.7"/><line x1="1384" y1="664" x2="1460" y2="664" stroke="#2E7A33" stroke-width="3" opacity="0.5"/><rect x="1650" y="560" width="130" height="420" fill="#201E18"/><line x1="1650" y1="560" x2="1780" y2="560" stroke="#9A6418" stroke-width="2" opacity="0.3"/><line x1="1650" y1="660" x2="1780" y2="660" stroke="#15140F" stroke-width="4"/><line x1="1650" y1="770" x2="1780" y2="770" stroke="#15140F" stroke-width="4"/><line x1="1650" y1="880" x2="1780" y2="880" stroke="#15140F" stroke-width="4"/><g transform="translate(1140,300) rotate(-2)"><rect x="0" y="0" width="150" height="196" fill="#D6CCAE" opacity="0.32"/><line x1="16" y1="40" x2="134" y2="40" stroke="#4A4136" stroke-width="2" opacity="0.3"/><line x1="16" y1="64" x2="134" y2="64" stroke="#4A4136" stroke-width="2" opacity="0.25"/><line x1="16" y1="88" x2="110" y2="88" stroke="#4A4136" stroke-width="2" opacity="0.25"/><g transform="translate(40,120) rotate(-10)"><rect x="0" y="0" width="84" height="44" fill="none" opacity="0.4" stroke="#C23A2B" stroke-width="4"/><text x="42" y="30" font-family="'Liberation Sans','Arial','Helvetica Neue',sans-serif" font-size="13" fill="#C23A2B" text-anchor="middle" font-weight="bold" opacity="0.4">OVERDUE</text></g></g><rect x="1250" y="600" width="7" height="380" fill="#1A1610"/><rect x="0" y="0" width="1920" height="1080" fill="url(#vig)"/><rect x="0" y="0" width="1920" height="1080" filter="url(#grain)" opacity="0.055"/><text x="120" y="170" font-family="'Liberation Sans','Arial','Helvetica Neue',sans-serif" font-size="68" fill="#D6CCAE" text-anchor="start" letter-spacing="6" font-weight="bold">BLACK COMMISSION</text><rect x="124" y="196" width="540" height="5" fill="#FF9820"/><text x="126" y="240" font-family="'Liberation Sans','Arial','Helvetica Neue',sans-serif" font-size="21" fill="#9A917A" text-anchor="start" letter-spacing="10">OUTSOURCED COMMISSION OFFICE</text><g transform="translate(680,100) rotate(-9)" opacity="0.85"><rect x="0" y="0" width="150" height="70" fill="none" stroke="#C23A2B" stroke-width="5"/><text x="75" y="30" font-family="'Liberation Sans','Arial','Helvetica Neue',sans-serif" font-size="16" fill="#C23A2B" text-anchor="middle" font-weight="bold">MUNICIPAL</text><text x="75" y="54" font-family="'Liberation Sans','Arial','Helvetica Neue',sans-serif" font-size="20" fill="#C23A2B" text-anchor="middle" font-weight="bold">OVERDUE</text></g><rect x="120" y="360" width="560" height="84" fill="#1F1F1B" stroke="#39392F" stroke-width="2"/><text x="184" y="404" font-family="'Liberation Sans','Arial','Helvetica Neue',sans-serif" font-size="32" fill="#D6CCAE" text-anchor="start" letter-spacing="3" font-weight="bold">CONTINUE SHIFT</text><text x="184" y="434" font-family="'Liberation Sans','Arial','Helvetica Neue',sans-serif" font-size="17" fill="#9A917A" text-anchor="start" letter-spacing="1">Resume the last ledger</text><rect x="120" y="460" width="560" height="84" fill="#1F1F1B" stroke="#39392F" stroke-width="2"/><text x="184" y="504" font-family="'Liberation Sans','Arial','Helvetica Neue',sans-serif" font-size="32" fill="#D6CCAE" text-anchor="start" letter-spacing="3" font-weight="bold">NEW OFFICE</text><text x="184" y="534" font-family="'Liberation Sans','Arial','Helvetica Neue',sans-serif" font-size="17" fill="#9A917A" text-anchor="start" letter-spacing="1">Open a fresh commission office</text><rect x="120" y="560" width="560" height="84" fill="#2A2418" stroke="#FF9820" stroke-width="2"/><rect x="120" y="560" width="6" height="84" fill="#FF9820"/><text x="146" y="606.64" font-family="'Liberation Sans','Arial','Helvetica Neue',sans-serif" font-size="26" fill="#FF9820" text-anchor="start">▸</text><text x="184" y="604" font-family="'Liberation Sans','Arial','Helvetica Neue',sans-serif" font-size="32" fill="#FFAB40" text-anchor="start" letter-spacing="3" font-weight="bold">JOIN OFFICE</text><text x="184" y="634" font-family="'Liberation Sans','Arial','Helvetica Neue',sans-serif" font-size="17" fill="#C9A86A" text-anchor="start" letter-spacing="1">Enter a teammate's room code</text><rect x="120" y="660" width="560" height="84" fill="#1F1F1B" stroke="#39392F" stroke-width="2"/><text x="184" y="704" font-family="'Liberation Sans','Arial','Helvetica Neue',sans-serif" font-size="32" fill="#D6CCAE" text-anchor="start" letter-spacing="3" font-weight="bold">SETTINGS</text><text x="184" y="734" font-family="'Liberation Sans','Arial','Helvetica Neue',sans-serif" font-size="17" fill="#9A917A" text-anchor="start" letter-spacing="1">Name · language · volume · sensitivity</text><rect x="120" y="760" width="560" height="84" fill="#1F1F1B" stroke="#39392F" stroke-width="2"/><text x="184" y="804" font-family="'Liberation Sans','Arial','Helvetica Neue',sans-serif" font-size="32" fill="#D6CCAE" text-anchor="start" letter-spacing="3" font-weight="bold">SHUT DOWN</text><text x="184" y="834" font-family="'Liberation Sans','Arial','Helvetica Neue',sans-serif" font-size="17" fill="#9A917A" text-anchor="start" letter-spacing="1">Clock out and power down</text><text x="120" y="1028" font-family="'Consolas','Courier New',monospace" font-size="18" fill="#6A6456" text-anchor="start">ver 0.1</text><text x="232" y="1028" font-family="'Liberation Sans','Arial','Helvetica Neue',sans-serif" font-size="18" fill="#6A6456" text-anchor="start" letter-spacing="2">LAN DIRECT…</text><text x="1800" y="1028" font-family="'Liberation Sans','Arial','Helvetica Neue',sans-serif" font-size="18" fill="#C23A2B" text-anchor="end" opacity="0.85">QUARTERLY DEBT: 1,200G  ·  OVERDUE</text><rect x="0" y="0" width="1920" height="1080" fill="#000" opacity="0.6"/><rect x="674" y="316" width="600" height="460" fill="#000" opacity="0.5"/><rect x="660" y="300" width="600" height="460" fill="url(#paperg)"/><rect x="660" y="300" width="600" height="60" fill="#3F5F5C"/><text x="688" y="340" font-family="'Liberation Sans','Arial','Helvetica Neue',sans-serif" font-size="26" fill="#D6CCAE" text-anchor="start" letter-spacing="8" font-weight="bold">TRANSFER REQUEST</text><text x="1236" y="339" font-family="'Consolas','Courier New',monospace" font-size="17" fill="#A9C0B8" text-anchor="end">FORM BC-03</text><text x="700" y="426" font-family="'Liberation Sans','Arial','Helvetica Neue',sans-serif" font-size="21" fill="#4A4136" text-anchor="start">Enter the host's 6-digit room code:</text><rect x="700" y="456" width="72" height="88" fill="#EFE6C8" stroke="#8A7F63" stroke-width="3"/><text x="736" y="518" font-family="'Consolas','Courier New',monospace" font-size="46" fill="#26201A" text-anchor="middle" font-weight="bold">K</text><rect x="788" y="456" width="72" height="88" fill="#EFE6C8" stroke="#8A7F63" stroke-width="3"/><text x="824" y="518" font-family="'Consolas','Courier New',monospace" font-size="46" fill="#26201A" text-anchor="middle" font-weight="bold">7</text><rect x="876" y="456" width="72" height="88" fill="#EFE6C8" stroke="#8A7F63" stroke-width="3"/><text x="912" y="518" font-family="'Consolas','Courier New',monospace" font-size="46" fill="#26201A" text-anchor="middle" font-weight="bold">F</text><rect x="964" y="456" width="72" height="88" fill="#DCD1AF" stroke="#8A7F63" stroke-width="3"/><rect x="1052" y="456" width="72" height="88" fill="#DCD1AF" stroke="#8A7F63" stroke-width="3"/><rect x="1140" y="456" width="72" height="88" fill="#DCD1AF" stroke="#8A7F63" stroke-width="3"/><line x1="700" y1="632" x2="1220" y2="632" stroke="#8A7F63" stroke-width="2"/><text x="700" y="690" font-family="'Liberation Sans','Arial','Helvetica Neue',sans-serif" font-size="24" fill="#26201A" text-anchor="start" font-weight="bold">[ENTER]  SUBMIT</text><text x="1220" y="690" font-family="'Liberation Sans','Arial','Helvetica Neue',sans-serif" font-size="20" fill="#4A4136" text-anchor="end">[ESC] BACK</text></svg>