<svg xmlns="http://www.w3.org/2000/svg" width="1920" height="1080" viewBox="0 0 1920 1080"><defs><linearGradient id="olive" x1="0" y1="0" x2="0" y2="1"><stop offset="0" stop-color="#222B22"/><stop offset="1" stop-color="#181F18"/></linearGradient><linearGradient id="paperg" x1="0" y1="0" x2="0" y2="1"><stop offset="0" stop-color="#CFC4A4"/><stop offset="1" stop-color="#B8AD8E"/></linearGradient><radialGradient id="sodium" cx="0.5" cy="0.5" r="0.5"><stop offset="0" stop-color="#C8861E" stop-opacity="0.5"/><stop offset="1" stop-color="#C8861E" stop-opacity="0"/></radialGradient></defs><rect x="0" y="0" width="1920" height="1080" fill="url(#olive)"/><g opacity="0.45"><rect x="1050" y="330" width="870" height="690" fill="#1C241C"/><rect x="1050" y="860" width="870" height="12" fill="#161D16"/><rect x="1120" y="600" width="260" height="260" fill="#222C24"/><rect x="1150" y="480" width="160" height="120" fill="#283430"/><rect x="1162" y="492" width="136" height="84" fill="#1A241E"/><rect x="1180" y="520" width="100" height="6" fill="#2E5C36"/><rect x="1430" y="560" width="90" height="300" fill="#202A22"/><rect x="1438" y="580" width="74" height="8" fill="#161D16"/><rect x="1438" y="650" width="74" height="8" fill="#161D16"/><rect x="1438" y="720" width="74" height="8" fill="#161D16"/><rect x="1438" y="790" width="74" height="8" fill="#161D16"/><rect x="1600" y="470" width="300" height="390" fill="#242E26"/><line x1="1600" y1="500" x2="1900" y2="500" stroke="#1A221C" stroke-width="6"/><line x1="1600" y1="544" x2="1900" y2="544" stroke="#1A221C" stroke-width="6"/><line x1="1600" y1="588" x2="1900" y2="588" stroke="#1A221C" stroke-width="6"/><line x1="1600" y1="632" x2="1900" y2="632" stroke="#1A221C" stroke-width="6"/><line x1="1600" y1="676" x2="1900" y2="676" stroke="#1A221C" stroke-width="6"/><line x1="1600" y1="720" x2="1900" y2="720" stroke="#1A221C" stroke-width="6"/><line x1="1600" y1="764" x2="1900" y2="764" stroke="#1A221C" stroke-width="6"/><line x1="1600" y1="808" x2="1900" y2="808" stroke="#1A221C" stroke-width="6"/><rect x="1330" y="760" width="8" height="100" fill="#2A1F14"/><ellipse cx="1240" cy="880" rx="220" ry="26" fill="#10160F"/></g><text x="120" y="240" font-family="Microsoft YaHei" font-size="96" fill="#D8D2BC" text-anchor="start" letter-spacing="10" font-weight="bold">黑色委托</text><rect x="124" y="268" width="430" height="6" fill="#C78A33"/><text x="124" y="318" font-family="Consolas,Microsoft YaHei" font-size="24" fill="#8B9484" text-anchor="start" letter-spacing="8">BLACK COMMISSION · 外包黑色委托事务所</text><text x="120" y="1016" font-family="Consolas,Microsoft YaHei" font-size="18" fill="#6E7A66" text-anchor="start">ver 0.1</text><text x="220" y="1016" font-family="Microsoft YaHei" font-size="18" fill="#6E7A66" text-anchor="start">局域网直连…</text><text x="1800" y="1016" font-family="Microsoft YaHei" font-size="18" fill="#9A5A4A" text-anchor="end">本季度欠款：1,200G</text><text x="120" y="468" font-family="Microsoft YaHei" font-size="34" fill="#E8B25C" text-anchor="start" font-weight="bold">▸</text><text x="164" y="468" font-family="Microsoft YaHei" font-size="40" fill="#E8B25C" text-anchor="start" letter-spacing="4" font-weight="bold">继续营业</text><text x="660" y="462" font-family="Microsoft YaHei" font-size="20" fill="#7E8872" text-anchor="start">继续上一份账本</text><line x1="120" y1="496" x2="640" y2="496" stroke="#3A453A" stroke-width="2"/><text x="164" y="566" font-family="Microsoft YaHei" font-size="36" fill="#BFC4AE" text-anchor="start" letter-spacing="4">新事务所</text><line x1="120" y1="594" x2="640" y2="594" stroke="#3A453A" stroke-width="2"/><text x="164" y="664" font-family="Microsoft YaHei" font-size="36" fill="#BFC4AE" text-anchor="start" letter-spacing="4">加入事务所</text><line x1="120" y1="692" x2="640" y2="692" stroke="#3A453A" stroke-width="2"/><text x="164" y="762" font-family="Microsoft YaHei" font-size="36" fill="#BFC4AE" text-anchor="start" letter-spacing="4">设置</text><line x1="120" y1="790" x2="640" y2="790" stroke="#3A453A" stroke-width="2"/><text x="164" y="860" font-family="Microsoft YaHei" font-size="36" fill="#BFC4AE" text-anchor="start" letter-spacing="4">关机</text><line x1="120" y1="888" x2="640" y2="888" stroke="#3A453A" stroke-width="2"/><rect x="0" y="0" width="1920" height="1080" fill="#000" opacity="0.55"/><rect x="574" y="196" width="800" height="700" fill="#000" opacity="0.45"/><rect x="560" y="180" width="800" height="700" fill="url(#paperg)"/><rect x="560" y="180" width="800" height="64" fill="#3F5F5C"/><text x="588" y="223" font-family="KaiTi,FangSong" font-size="30" fill="#D6CCAE" text-anchor="start" letter-spacing="12" font-weight="bold">派 工 名 单</text><text x="1100" y="224" font-family="Microsoft YaHei" font-size="18" fill="#9DB5AE" text-anchor="start">房间码</text><text x="1180" y="230" font-family="Consolas,Microsoft YaHei" font-size="34" fill="#E8B25C" text-anchor="start" letter-spacing="4" font-weight="bold">K7F2Q</text><rect x="596" y="270" width="10" height="44" fill="#3E6E4E"/><text x="620" y="300" font-family="Consolas,Microsoft YaHei" font-size="20" fill="#4A4136" text-anchor="start">01</text><text x="664" y="300" font-family="Microsoft YaHei" font-size="28" fill="#26201A" text-anchor="start" font-weight="bold">老王（你）</text><rect x="880" y="274" width="70" height="34" fill="#3F5F5C"/><text x="915" y="298" font-family="Microsoft YaHei" font-size="20" fill="#D6CCAE" text-anchor="middle">负责</text><text x="1020" y="300" font-family="Consolas,Microsoft YaHei" font-size="30" fill="#26201A" text-anchor="start">‹</text><rect x="1050" y="276" width="34" height="30" fill="#3E6E4E"/><text x="1100" y="300" font-family="Consolas,Microsoft YaHei" font-size="30" fill="#26201A" text-anchor="start">›</text><text x="1140" y="298" font-family="Microsoft YaHei" font-size="20" fill="#4A4136" text-anchor="start">更换工装…</text><line x1="596" y1="326" x2="1324" y2="326" stroke="#A2967A" stroke-width="1.5"/><rect x="596" y="366" width="10" height="44" fill="#7A5230"/><text x="620" y="396" font-family="Consolas,Microsoft YaHei" font-size="20" fill="#4A4136" text-anchor="start">02</text><text x="664" y="396" font-family="Microsoft YaHei" font-size="28" fill="#26201A" text-anchor="start" font-weight="bold">Agent 2</text><text x="1060" y="394" font-family="Microsoft YaHei" font-size="20" fill="#4A4136" text-anchor="start">[静音]</text><text x="1150" y="394" font-family="Microsoft YaHei" font-size="20" fill="#8A5A50" text-anchor="start">[按住除名]</text><line x1="596" y1="422" x2="1324" y2="422" stroke="#A2967A" stroke-width="1.5"/><text x="620" y="492" font-family="Consolas,Microsoft YaHei" font-size="20" fill="#9A8F73" text-anchor="start">03</text><text x="664" y="492" font-family="Microsoft YaHei" font-size="24" fill="#9A8F73" text-anchor="start">（空缺）</text><line x1="800" y1="484" x2="1280" y2="484" stroke="#A2967A" stroke-width="2"/><line x1="596" y1="518" x2="1324" y2="518" stroke="#A2967A" stroke-width="1.5"/><text x="620" y="588" font-family="Consolas,Microsoft YaHei" font-size="20" fill="#9A8F73" text-anchor="start">04</text><text x="664" y="588" font-family="Microsoft YaHei" font-size="24" fill="#9A8F73" text-anchor="start">（空缺）</text><line x1="800" y1="580" x2="1280" y2="580" stroke="#A2967A" stroke-width="2"/><line x1="596" y1="614" x2="1324" y2="614" stroke="#A2967A" stroke-width="1.5"/><text x="680" y="760" font-family="Microsoft YaHei" font-size="30" fill="#26201A" text-anchor="start" font-weight="bold">[ Enter ] 确认到岗，进入办公室</text><text x="700" y="802" font-family="Microsoft YaHei" font-size="18" fill="#4A4136" text-anchor="start">报到先后不限——办公室就是集合点</text><g transform="translate(1170,740) rotate(-8)" opacity="0.8"><rect x="0" y="0" width="120" height="56" fill="none" stroke="#C23A2B" stroke-width="5" /><text x="60.0" y="38.8" font-family="KaiTi,FangSong" font-size="30" fill="#C23A2B" text-anchor="middle">成立</text></g></svg>