<svg xmlns="http://www.w3.org/2000/svg" width="1920" height="1080" viewBox="0 0 1920 1080"><defs><linearGradient id="olive" x1="0" y1="0" x2="0" y2="1"><stop offset="0" stop-color="#222B22"/><stop offset="1" stop-color="#181F18"/></linearGradient><linearGradient id="paperg" x1="0" y1="0" x2="0" y2="1"><stop offset="0" stop-color="#CFC4A4"/><stop offset="1" stop-color="#B8AD8E"/></linearGradient><radialGradient id="sodium" cx="0.5" cy="0.5" r="0.5"><stop offset="0" stop-color="#C8861E" stop-opacity="0.5"/><stop offset="1" stop-color="#C8861E" stop-opacity="0"/></radialGradient></defs><rect x="0" y="0" width="1920" height="1080" fill="url(#olive)"/><g opacity="0.45"><rect x="1050" y="330" width="870" height="690" fill="#1C241C"/><rect x="1050" y="860" width="870" height="12" fill="#161D16"/><rect x="1120" y="600" width="260" height="260" fill="#222C24"/><rect x="1150" y="480" width="160" height="120" fill="#283430"/><rect x="1162" y="492" width="136" height="84" fill="#1A241E"/><rect x="1180" y="520" width="100" height="6" fill="#2E5C36"/><rect x="1430" y="560" width="90" height="300" fill="#202A22"/><rect x="1438" y="580" width="74" height="8" fill="#161D16"/><rect x="1438" y="650" width="74" height="8" fill="#161D16"/><rect x="1438" y="720" width="74" height="8" fill="#161D16"/><rect x="1438" y="790" width="74" height="8" fill="#161D16"/><rect x="1600" y="470" width="300" height="390" fill="#242E26"/><line x1="1600" y1="500" x2="1900" y2="500" stroke="#1A221C" stroke-width="6"/><line x1="1600" y1="544" x2="1900" y2="544" stroke="#1A221C" stroke-width="6"/><line x1="1600" y1="588" x2="1900" y2="588" stroke="#1A221C" stroke-width="6"/><line x1="1600" y1="632" x2="1900" y2="632" stroke="#1A221C" stroke-width="6"/><line x1="1600" y1="676" x2="1900" y2="676" stroke="#1A221C" stroke-width="6"/><line x1="1600" y1="720" x2="1900" y2="720" stroke="#1A221C" stroke-width="6"/><line x1="1600" y1="764" x2="1900" y2="764" stroke="#1A221C" stroke-width="6"/><line x1="1600" y1="808" x2="1900" y2="808" stroke="#1A221C" stroke-width="6"/><rect x="1330" y="760" width="8" height="100" fill="#2A1F14"/><ellipse cx="1240" cy="880" rx="220" ry="26" fill="#10160F"/></g><text x="120" y="240" font-family="Microsoft YaHei" font-size="96" fill="#D8D2BC" text-anchor="start" letter-spacing="10" font-weight="bold">黑色委托</text><rect x="124" y="268" width="430" height="6" fill="#C78A33"/><text x="124" y="318" font-family="Consolas,Microsoft YaHei" font-size="24" fill="#8B9484" text-anchor="start" letter-spacing="8">BLACK COMMISSION · 外包黑色委托事务所</text><text x="120" y="1016" font-family="Consolas,Microsoft YaHei" font-size="18" fill="#6E7A66" text-anchor="start">ver 0.1</text><text x="220" y="1016" font-family="Microsoft YaHei" font-size="18" fill="#6E7A66" text-anchor="start">局域网直连…</text><text x="1800" y="1016" font-family="Microsoft YaHei" font-size="18" fill="#9A5A4A" text-anchor="end">本季度欠款：1,200G</text><text x="164" y="468" font-family="Microsoft YaHei" font-size="36" fill="#BFC4AE" text-anchor="start" letter-spacing="4">继续营业</text><line x1="120" y1="496" x2="640" y2="496" stroke="#3A453A" stroke-width="2"/><text x="164" y="566" font-family="Microsoft YaHei" font-size="36" fill="#BFC4AE" text-anchor="start" letter-spacing="4">新事务所</text><line x1="120" y1="594" x2="640" y2="594" stroke="#3A453A" stroke-width="2"/><text x="164" y="664" font-family="Microsoft YaHei" font-size="36" fill="#BFC4AE" text-anchor="start" letter-spacing="4">加入事务所</text><line x1="120" y1="692" x2="640" y2="692" stroke="#3A453A" stroke-width="2"/><text x="164" y="762" font-family="Microsoft YaHei" font-size="36" fill="#BFC4AE" text-anchor="start" letter-spacing="4">设置</text><line x1="120" y1="790" x2="640" y2="790" stroke="#3A453A" stroke-width="2"/><text x="120" y="860" font-family="Microsoft YaHei" font-size="34" fill="#E8B25C" text-anchor="start" font-weight="bold">▸</text><text x="164" y="860" font-family="Microsoft YaHei" font-size="40" fill="#E8B25C" text-anchor="start" letter-spacing="4" font-weight="bold">关机</text><text x="660" y="854" font-family="Microsoft YaHei" font-size="20" fill="#7E8872" text-anchor="start">离岗，关掉这台机器</text><line x1="120" y1="888" x2="640" y2="888" stroke="#3A453A" stroke-width="2"/><rect x="0" y="0" width="1920" height="1080" fill="#000" opacity="0.55"/><rect x="674" y="336" width="600" height="400" fill="#000" opacity="0.45"/><rect x="660" y="320" width="600" height="400" fill="url(#paperg)"/><rect x="660" y="320" width="600" height="64" fill="#3F5F5C"/><text x="688" y="363" font-family="KaiTi,FangSong" font-size="30" fill="#D6CCAE" text-anchor="start" letter-spacing="12" font-weight="bold">离 岗 单</text><text x="1236" y="361" font-family="Consolas,Microsoft YaHei" font-size="18" fill="#9DB5AE" text-anchor="end">表 BC-09</text><text x="700" y="450" font-family="Microsoft YaHei" font-size="30" fill="#26201A" text-anchor="start" font-weight="bold">确认离岗并关闭终端？</text><text x="700" y="500" font-family="Microsoft YaHei" font-size="20" fill="#4A4136" text-anchor="start">未结算的款项将保留至下次开机。</text><text x="700" y="532" font-family="Microsoft YaHei" font-size="20" fill="#4A4136" text-anchor="start">离岗期间欠款利息照常累计。</text><line x1="700" y1="580" x2="1220" y2="580" stroke="#8A7F63" stroke-width="2"/><text x="700" y="640" font-family="Microsoft YaHei" font-size="26" fill="#C23A2B" text-anchor="start" font-weight="bold">[Enter] 确认离岗</text><text x="1220" y="640" font-family="Microsoft YaHei" font-size="22" fill="#4A4136" text-anchor="end">[Esc] 留下加班</text><g transform="translate(1040,600) rotate(-8)" opacity="0.8"><rect x="0" y="0" width="120" height="56" fill="none" stroke="#C23A2B" stroke-width="5" /><text x="60.0" y="38.8" font-family="KaiTi,FangSong" font-size="30" fill="#C23A2B" text-anchor="middle">离岗</text></g></svg>