<svg xmlns="http://www.w3.org/2000/svg" width="1920" height="1080" viewBox="0 0 1920 1080"><defs>
  <radialGradient id="vig" cx="0.5" cy="0.46" r="0.75">
    <stop offset="0.45" stop-color="#000" stop-opacity="0"/>
    <stop offset="1" stop-color="#000" stop-opacity="0.72"/>
  </radialGradient>
  <radialGradient id="lamp" cx="0.5" cy="0.5" r="0.5">
    <stop offset="0" stop-color="#FF9820" stop-opacity="0.34"/>
    <stop offset="0.55" stop-color="#9A6418" stop-opacity="0.10"/>
    <stop offset="1" stop-color="#FF9820" stop-opacity="0"/>
  </radialGradient>
  <radialGradient id="crtglow" cx="0.5" cy="0.5" r="0.6">
    <stop offset="0" stop-color="#6CFF5F" stop-opacity="0.16"/>
    <stop offset="1" stop-color="#6CFF5F" stop-opacity="0"/>
  </radialGradient>
  <linearGradient id="paperg" x1="0" y1="0" x2="0" y2="1">
    <stop offset="0" stop-color="#CFC4A4"/><stop offset="1" stop-color="#B8AD8E"/>
  </linearGradient>
  <filter id="grain"><feTurbulence type="fractalNoise" baseFrequency="0.9" numOctaves="2" stitchTiles="stitch"/>
    <feColorMatrix type="matrix" values="0 0 0 0 0  0 0 0 0 0  0 0 0 0 0  0 0 0 0.5 0"/></filter>
</defs><rect x="0" y="0" width="1920" height="1080" fill="#070D08"/><rect x="0" y="0" width="1920" height="1080" fill="url(#crtglow)" opacity="0.5"/><rect x="0" y="0" width="1920" height="54" fill="#0C160C"/><text x="40" y="36" font-family="'Consolas','Courier New',monospace" font-size="22" fill="#6CFF5F" text-anchor="start" letter-spacing="1">BC-DOS v2.2  ·  COMMISSION OFFICE TERMINAL</text><text x="1300" y="36" font-family="'Consolas','Courier New',monospace" font-size="22" fill="#6CFF5F" text-anchor="start">FUNDS -180G</text><text x="1560" y="36" font-family="'Consolas','Courier New',monospace" font-size="20" fill="#2E7A33" text-anchor="start">LICENSE: TIER 1 (PROVISIONAL)</text><text x="1880" y="36" font-family="'Consolas','Courier New',monospace" font-size="22" fill="#2E7A33" text-anchor="end">14:32</text><rect x="40" y="78" width="300" height="50" fill="#6CFF5F"/><text x="62" y="112" font-family="'Consolas','Courier New',monospace" font-size="24" fill="#07120A" text-anchor="start" font-weight="bold">[1] COMMISSIONS</text><rect x="356" y="78" width="300" height="50" fill="none" stroke="#2E7A33" stroke-width="2"/><text x="378" y="112" font-family="'Consolas','Courier New',monospace" font-size="24" fill="#2E7A33" text-anchor="start">[2] SUPPLY</text><rect x="672" y="78" width="300" height="50" fill="none" stroke="#2E7A33" stroke-width="2"/><text x="694" y="112" font-family="'Consolas','Courier New',monospace" font-size="24" fill="#2E7A33" text-anchor="start">[3] LEDGER</text><line x1="40" y1="146" x2="1880" y2="146" stroke="#2E7A33" stroke-width="2"/><text x="40" y="1046" font-family="'Consolas','Courier New',monospace" font-size="20" fill="#2E7A33" text-anchor="start">[1][2][3] SWITCH TAB   ·   ↑↓ SELECT   ·   [ENTER] CONFIRM   ·   [ESC] LOG OFF</text><g opacity="0.10"><line x1="0" y1="8" x2="1920" y2="8" stroke="#9CFF9C" stroke-width="1"/><line x1="0" y1="13" x2="1920" y2="13" stroke="#9CFF9C" stroke-width="1"/><line x1="0" y1="18" x2="1920" y2="18" stroke="#9CFF9C" stroke-width="1"/><line x1="0" y1="23" x2="1920" y2="23" stroke="#9CFF9C" stroke-width="1"/><line x1="0" y1="28" x2="1920" y2="28" stroke="#9CFF9C" stroke-width="1"/><line x1="0" y1="33" x2="1920" y2="33" stroke="#9CFF9C" stroke-width="1"/><line x1="0" y1="38" x2="1920" y2="38" stroke="#9CFF9C" stroke-width="1"/><line x1="0" y1="43" x2="1920" y2="43" stroke="#9CFF9C" stroke-width="1"/><line x1="0" y1="48" x2="1920" y2="48" stroke="#9CFF9C" stroke-width="1"/><line x1="0" y1="53" x2="1920" y2="53" stroke="#9CFF9C" stroke-width="1"/><line x1="0" y1="58" x2="1920" y2="58" stroke="#9CFF9C" stroke-width="1"/><line x1="0" y1="63" x2="1920" y2="63" stroke="#9CFF9C" stroke-width="1"/><line x1="0" y1="68" x2="1920" y2="68" stroke="#9CFF9C" stroke-width="1"/><line x1="0" y1="73" x2="1920" y2="73" stroke="#9CFF9C" stroke-width="1"/><line x1="0" y1="78" x2="1920" y2="78" stroke="#9CFF9C" stroke-width="1"/><line x1="0" y1="83" x2="1920" y2="83" stroke="#9CFF9C" stroke-width="1"/><line x1="0" y1="88" x2="1920" y2="88" stroke="#9CFF9C" stroke-width="1"/><line x1="0" y1="93" x2="1920" y2="93" stroke="#9CFF9C" stroke-width="1"/><line x1="0" y1="98" x2="1920" y2="98" stroke="#9CFF9C" stroke-width="1"/><line x1="0" y1="103" x2="1920" y2="103" stroke="#9CFF9C" stroke-width="1"/><line x1="0" y1="108" x2="1920" y2="108" stroke="#9CFF9C" stroke-width="1"/><line x1="0" y1="113" x2="1920" y2="113" stroke="#9CFF9C" stroke-width="1"/><line x1="0" y1="118" x2="1920" y2="118" stroke="#9CFF9C" stroke-width="1"/><line x1="0" y1="123" x2="1920" y2="123" stroke="#9CFF9C" stroke-width="1"/><line x1="0" y1="128" x2="1920" y2="128" stroke="#9CFF9C" stroke-width="1"/><line x1="0" y1="133" x2="1920" y2="133" stroke="#9CFF9C" stroke-width="1"/><line x1="0" y1="138" x2="1920" y2="138" stroke="#9CFF9C" stroke-width="1"/><line x1="0" y1="143" x2="1920" y2="143" stroke="#9CFF9C" stroke-width="1"/><line x1="0" y1="148" x2="1920" y2="148" stroke="#9CFF9C" stroke-width="1"/><line x1="0" y1="153" x2="1920" y2="153" stroke="#9CFF9C" stroke-width="1"/><line x1="0" y1="158" x2="1920" y2="158" stroke="#9CFF9C" stroke-width="1"/><line x1="0" y1="163" x2="1920" y2="163" stroke="#9CFF9C" stroke-width="1"/><line x1="0" y1="168" x2="1920" y2="168" stroke="#9CFF9C" stroke-width="1"/><line x1="0" y1="173" x2="1920" y2="173" stroke="#9CFF9C" stroke-width="1"/><line x1="0" y1="178" x2="1920" y2="178" stroke="#9CFF9C" stroke-width="1"/><line x1="0" y1="183" x2="1920" y2="183" stroke="#9CFF9C" stroke-width="1"/><line x1="0" y1="188" x2="1920" y2="188" stroke="#9CFF9C" stroke-width="1"/><line x1="0" y1="193" x2="1920" y2="193" stroke="#9CFF9C" stroke-width="1"/><line x1="0" y1="198" x2="1920" y2="198" stroke="#9CFF9C" stroke-width="1"/><line x1="0" y1="203" x2="1920" y2="203" stroke="#9CFF9C" stroke-width="1"/><line x1="0" y1="208" x2="1920" y2="208" stroke="#9CFF9C" stroke-width="1"/><line x1="0" y1="213" x2="1920" y2="213" stroke="#9CFF9C" stroke-width="1"/><line x1="0" y1="218" x2="1920" y2="218" stroke="#9CFF9C" stroke-width="1"/><line x1="0" y1="223" x2="1920" y2="223" stroke="#9CFF9C" stroke-width="1"/><line x1="0" y1="228" x2="1920" y2="228" stroke="#9CFF9C" stroke-width="1"/><line x1="0" y1="233" x2="1920" y2="233" stroke="#9CFF9C" stroke-width="1"/><line x1="0" y1="238" x2="1920" y2="238" stroke="#9CFF9C" stroke-width="1"/><line x1="0" y1="243" x2="1920" y2="243" stroke="#9CFF9C" stroke-width="1"/><line x1="0" y1="248" x2="1920" y2="248" stroke="#9CFF9C" stroke-width="1"/><line x1="0" y1="253" x2="1920" y2="253" stroke="#9CFF9C" stroke-width="1"/><line x1="0" y1="258" x2="1920" y2="258" stroke="#9CFF9C" stroke-width="1"/><line x1="0" y1="263" x2="1920" y2="263" stroke="#9CFF9C" stroke-width="1"/><line x1="0" y1="268" x2="1920" y2="268" stroke="#9CFF9C" stroke-width="1"/><line x1="0" y1="273" x2="1920" y2="273" stroke="#9CFF9C" stroke-width="1"/><line x1="0" y1="278" x2="1920" y2="278" stroke="#9CFF9C" stroke-width="1"/><line x1="0" y1="283" x2="1920" y2="283" stroke="#9CFF9C" stroke-width="1"/><line x1="0" y1="288" x2="1920" y2="288" stroke="#9CFF9C" stroke-width="1"/><line x1="0" y1="293" x2="1920" y2="293" stroke="#9CFF9C" stroke-width="1"/><line x1="0" y1="298" x2="1920" y2="298" stroke="#9CFF9C" stroke-width="1"/><line x1="0" y1="303" x2="1920" y2="303" stroke="#9CFF9C" stroke-width="1"/><line x1="0" y1="308" x2="1920" y2="308" stroke="#9CFF9C" stroke-width="1"/><line x1="0" y1="313" x2="1920" y2="313" stroke="#9CFF9C" stroke-width="1"/><line x1="0" y1="318" x2="1920" y2="318" stroke="#9CFF9C" stroke-width="1"/><line x1="0" y1="323" x2="1920" y2="323" stroke="#9CFF9C" stroke-width="1"/><line x1="0" y1="328" x2="1920" y2="328" stroke="#9CFF9C" stroke-width="1"/><line x1="0" y1="333" x2="1920" y2="333" stroke="#9CFF9C" stroke-width="1"/><line x1="0" y1="338" x2="1920" y2="338" stroke="#9CFF9C" stroke-width="1"/><line x1="0" y1="343" x2="1920" y2="343" stroke="#9CFF9C" stroke-width="1"/><line x1="0" y1="348" x2="1920" y2="348" stroke="#9CFF9C" stroke-width="1"/><line x1="0" y1="353" x2="1920" y2="353" stroke="#9CFF9C" stroke-width="1"/><line x1="0" y1="358" x2="1920" y2="358" stroke="#9CFF9C" stroke-width="1"/><line x1="0" y1="363" x2="1920" y2="363" stroke="#9CFF9C" stroke-width="1"/><line x1="0" y1="368" x2="1920" y2="368" stroke="#9CFF9C" stroke-width="1"/><line x1="0" y1="373" x2="1920" y2="373" stroke="#9CFF9C" stroke-width="1"/><line x1="0" y1="378" x2="1920" y2="378" stroke="#9CFF9C" stroke-width="1"/><line x1="0" y1="383" x2="1920" y2="383" stroke="#9CFF9C" stroke-width="1"/><line x1="0" y1="388" x2="1920" y2="388" stroke="#9CFF9C" stroke-width="1"/><line x1="0" y1="393" x2="1920" y2="393" stroke="#9CFF9C" stroke-width="1"/><line x1="0" y1="398" x2="1920" y2="398" stroke="#9CFF9C" stroke-width="1"/><line x1="0" y1="403" x2="1920" y2="403" stroke="#9CFF9C" stroke-width="1"/><line x1="0" y1="408" x2="1920" y2="408" stroke="#9CFF9C" stroke-width="1"/><line x1="0" y1="413" x2="1920" y2="413" stroke="#9CFF9C" stroke-width="1"/><line x1="0" y1="418" x2="1920" y2="418" stroke="#9CFF9C" stroke-width="1"/><line x1="0" y1="423" x2="1920" y2="423" stroke="#9CFF9C" stroke-width="1"/><line x1="0" y1="428" x2="1920" y2="428" stroke="#9CFF9C" stroke-width="1"/><line x1="0" y1="433" x2="1920" y2="433" stroke="#9CFF9C" stroke-width="1"/><line x1="0" y1="438" x2="1920" y2="438" stroke="#9CFF9C" stroke-width="1"/><line x1="0" y1="443" x2="1920" y2="443" stroke="#9CFF9C" stroke-width="1"/><line x1="0" y1="448" x2="1920" y2="448" stroke="#9CFF9C" stroke-width="1"/><line x1="0" y1="453" x2="1920" y2="453" stroke="#9CFF9C" stroke-width="1"/><line x1="0" y1="458" x2="1920" y2="458" stroke="#9CFF9C" stroke-width="1"/><line x1="0" y1="463" x2="1920" y2="463" stroke="#9CFF9C" stroke-width="1"/><line x1="0" y1="468" x2="1920" y2="468" stroke="#9CFF9C" stroke-width="1"/><line x1="0" y1="473" x2="1920" y2="473" stroke="#9CFF9C" stroke-width="1"/><line x1="0" y1="478" x2="1920" y2="478" stroke="#9CFF9C" stroke-width="1"/><line x1="0" y1="483" x2="1920" y2="483" stroke="#9CFF9C" stroke-width="1"/><line x1="0" y1="488" x2="1920" y2="488" stroke="#9CFF9C" stroke-width="1"/><line x1="0" y1="493" x2="1920" y2="493" stroke="#9CFF9C" stroke-width="1"/><line x1="0" y1="498" x2="1920" y2="498" stroke="#9CFF9C" stroke-width="1"/><line x1="0" y1="503" x2="1920" y2="503" stroke="#9CFF9C" stroke-width="1"/><line x1="0" y1="508" x2="1920" y2="508" stroke="#9CFF9C" stroke-width="1"/><line x1="0" y1="513" x2="1920" y2="513" stroke="#9CFF9C" stroke-width="1"/><line x1="0" y1="518" x2="1920" y2="518" stroke="#9CFF9C" stroke-width="1"/><line x1="0" y1="523" x2="1920" y2="523" stroke="#9CFF9C" stroke-width="1"/><line x1="0" y1="528" x2="1920" y2="528" stroke="#9CFF9C" stroke-width="1"/><line x1="0" y1="533" x2="1920" y2="533" stroke="#9CFF9C" stroke-width="1"/><line x1="0" y1="538" x2="1920" y2="538" stroke="#9CFF9C" stroke-width="1"/><line x1="0" y1="543" x2="1920" y2="543" stroke="#9CFF9C" stroke-width="1"/><line x1="0" y1="548" x2="1920" y2="548" stroke="#9CFF9C" stroke-width="1"/><line x1="0" y1="553" x2="1920" y2="553" stroke="#9CFF9C" stroke-width="1"/><line x1="0" y1="558" x2="1920" y2="558" stroke="#9CFF9C" stroke-width="1"/><line x1="0" y1="563" x2="1920" y2="563" stroke="#9CFF9C" stroke-width="1"/><line x1="0" y1="568" x2="1920" y2="568" stroke="#9CFF9C" stroke-width="1"/><line x1="0" y1="573" x2="1920" y2="573" stroke="#9CFF9C" stroke-width="1"/><line x1="0" y1="578" x2="1920" y2="578" stroke="#9CFF9C" stroke-width="1"/><line x1="0" y1="583" x2="1920" y2="583" stroke="#9CFF9C" stroke-width="1"/><line x1="0" y1="588" x2="1920" y2="588" stroke="#9CFF9C" stroke-width="1"/><line x1="0" y1="593" x2="1920" y2="593" stroke="#9CFF9C" stroke-width="1"/><line x1="0" y1="598" x2="1920" y2="598" stroke="#9CFF9C" stroke-width="1"/><line x1="0" y1="603" x2="1920" y2="603" stroke="#9CFF9C" stroke-width="1"/><line x1="0" y1="608" x2="1920" y2="608" stroke="#9CFF9C" stroke-width="1"/><line x1="0" y1="613" x2="1920" y2="613" stroke="#9CFF9C" stroke-width="1"/><line x1="0" y1="618" x2="1920" y2="618" stroke="#9CFF9C" stroke-width="1"/><line x1="0" y1="623" x2="1920" y2="623" stroke="#9CFF9C" stroke-width="1"/><line x1="0" y1="628" x2="1920" y2="628" stroke="#9CFF9C" stroke-width="1"/><line x1="0" y1="633" x2="1920" y2="633" stroke="#9CFF9C" stroke-width="1"/><line x1="0" y1="638" x2="1920" y2="638" stroke="#9CFF9C" stroke-width="1"/><line x1="0" y1="643" x2="1920" y2="643" stroke="#9CFF9C" stroke-width="1"/><line x1="0" y1="648" x2="1920" y2="648" stroke="#9CFF9C" stroke-width="1"/><line x1="0" y1="653" x2="1920" y2="653" stroke="#9CFF9C" stroke-width="1"/><line x1="0" y1="658" x2="1920" y2="658" stroke="#9CFF9C" stroke-width="1"/><line x1="0" y1="663" x2="1920" y2="663" stroke="#9CFF9C" stroke-width="1"/><line x1="0" y1="668" x2="1920" y2="668" stroke="#9CFF9C" stroke-width="1"/><line x1="0" y1="673" x2="1920" y2="673" stroke="#9CFF9C" stroke-width="1"/><line x1="0" y1="678" x2="1920" y2="678" stroke="#9CFF9C" stroke-width="1"/><line x1="0" y1="683" x2="1920" y2="683" stroke="#9CFF9C" stroke-width="1"/><line x1="0" y1="688" x2="1920" y2="688" stroke="#9CFF9C" stroke-width="1"/><line x1="0" y1="693" x2="1920" y2="693" stroke="#9CFF9C" stroke-width="1"/><line x1="0" y1="698" x2="1920" y2="698" stroke="#9CFF9C" stroke-width="1"/><line x1="0" y1="703" x2="1920" y2="703" stroke="#9CFF9C" stroke-width="1"/><line x1="0" y1="708" x2="1920" y2="708" stroke="#9CFF9C" stroke-width="1"/><line x1="0" y1="713" x2="1920" y2="713" stroke="#9CFF9C" stroke-width="1"/><line x1="0" y1="718" x2="1920" y2="718" stroke="#9CFF9C" stroke-width="1"/><line x1="0" y1="723" x2="1920" y2="723" stroke="#9CFF9C" stroke-width="1"/><line x1="0" y1="728" x2="1920" y2="728" stroke="#9CFF9C" stroke-width="1"/><line x1="0" y1="733" x2="1920" y2="733" stroke="#9CFF9C" stroke-width="1"/><line x1="0" y1="738" x2="1920" y2="738" stroke="#9CFF9C" stroke-width="1"/><line x1="0" y1="743" x2="1920" y2="743" stroke="#9CFF9C" stroke-width="1"/><line x1="0" y1="748" x2="1920" y2="748" stroke="#9CFF9C" stroke-width="1"/><line x1="0" y1="753" x2="1920" y2="753" stroke="#9CFF9C" stroke-width="1"/><line x1="0" y1="758" x2="1920" y2="758" stroke="#9CFF9C" stroke-width="1"/><line x1="0" y1="763" x2="1920" y2="763" stroke="#9CFF9C" stroke-width="1"/><line x1="0" y1="768" x2="1920" y2="768" stroke="#9CFF9C" stroke-width="1"/><line x1="0" y1="773" x2="1920" y2="773" stroke="#9CFF9C" stroke-width="1"/><line x1="0" y1="778" x2="1920" y2="778" stroke="#9CFF9C" stroke-width="1"/><line x1="0" y1="783" x2="1920" y2="783" stroke="#9CFF9C" stroke-width="1"/><line x1="0" y1="788" x2="1920" y2="788" stroke="#9CFF9C" stroke-width="1"/><line x1="0" y1="793" x2="1920" y2="793" stroke="#9CFF9C" stroke-width="1"/><line x1="0" y1="798" x2="1920" y2="798" stroke="#9CFF9C" stroke-width="1"/><line x1="0" y1="803" x2="1920" y2="803" stroke="#9CFF9C" stroke-width="1"/><line x1="0" y1="808" x2="1920" y2="808" stroke="#9CFF9C" stroke-width="1"/><line x1="0" y1="813" x2="1920" y2="813" stroke="#9CFF9C" stroke-width="1"/><line x1="0" y1="818" x2="1920" y2="818" stroke="#9CFF9C" stroke-width="1"/><line x1="0" y1="823" x2="1920" y2="823" stroke="#9CFF9C" stroke-width="1"/><line x1="0" y1="828" x2="1920" y2="828" stroke="#9CFF9C" stroke-width="1"/><line x1="0" y1="833" x2="1920" y2="833" stroke="#9CFF9C" stroke-width="1"/><line x1="0" y1="838" x2="1920" y2="838" stroke="#9CFF9C" stroke-width="1"/><line x1="0" y1="843" x2="1920" y2="843" stroke="#9CFF9C" stroke-width="1"/><line x1="0" y1="848" x2="1920" y2="848" stroke="#9CFF9C" stroke-width="1"/><line x1="0" y1="853" x2="1920" y2="853" stroke="#9CFF9C" stroke-width="1"/><line x1="0" y1="858" x2="1920" y2="858" stroke="#9CFF9C" stroke-width="1"/><line x1="0" y1="863" x2="1920" y2="863" stroke="#9CFF9C" stroke-width="1"/><line x1="0" y1="868" x2="1920" y2="868" stroke="#9CFF9C" stroke-width="1"/><line x1="0" y1="873" x2="1920" y2="873" stroke="#9CFF9C" stroke-width="1"/><line x1="0" y1="878" x2="1920" y2="878" stroke="#9CFF9C" stroke-width="1"/><line x1="0" y1="883" x2="1920" y2="883" stroke="#9CFF9C" stroke-width="1"/><line x1="0" y1="888" x2="1920" y2="888" stroke="#9CFF9C" stroke-width="1"/><line x1="0" y1="893" x2="1920" y2="893" stroke="#9CFF9C" stroke-width="1"/><line x1="0" y1="898" x2="1920" y2="898" stroke="#9CFF9C" stroke-width="1"/><line x1="0" y1="903" x2="1920" y2="903" stroke="#9CFF9C" stroke-width="1"/><line x1="0" y1="908" x2="1920" y2="908" stroke="#9CFF9C" stroke-width="1"/><line x1="0" y1="913" x2="1920" y2="913" stroke="#9CFF9C" stroke-width="1"/><line x1="0" y1="918" x2="1920" y2="918" stroke="#9CFF9C" stroke-width="1"/><line x1="0" y1="923" x2="1920" y2="923" stroke="#9CFF9C" stroke-width="1"/><line x1="0" y1="928" x2="1920" y2="928" stroke="#9CFF9C" stroke-width="1"/><line x1="0" y1="933" x2="1920" y2="933" stroke="#9CFF9C" stroke-width="1"/><line x1="0" y1="938" x2="1920" y2="938" stroke="#9CFF9C" stroke-width="1"/><line x1="0" y1="943" x2="1920" y2="943" stroke="#9CFF9C" stroke-width="1"/><line x1="0" y1="948" x2="1920" y2="948" stroke="#9CFF9C" stroke-width="1"/><line x1="0" y1="953" x2="1920" y2="953" stroke="#9CFF9C" stroke-width="1"/><line x1="0" y1="958" x2="1920" y2="958" stroke="#9CFF9C" stroke-width="1"/><line x1="0" y1="963" x2="1920" y2="963" stroke="#9CFF9C" stroke-width="1"/><line x1="0" y1="968" x2="1920" y2="968" stroke="#9CFF9C" stroke-width="1"/><line x1="0" y1="973" x2="1920" y2="973" stroke="#9CFF9C" stroke-width="1"/><line x1="0" y1="978" x2="1920" y2="978" stroke="#9CFF9C" stroke-width="1"/><line x1="0" y1="983" x2="1920" y2="983" stroke="#9CFF9C" stroke-width="1"/><line x1="0" y1="988" x2="1920" y2="988" stroke="#9CFF9C" stroke-width="1"/><line x1="0" y1="993" x2="1920" y2="993" stroke="#9CFF9C" stroke-width="1"/><line x1="0" y1="998" x2="1920" y2="998" stroke="#9CFF9C" stroke-width="1"/><line x1="0" y1="1003" x2="1920" y2="1003" stroke="#9CFF9C" stroke-width="1"/><line x1="0" y1="1008" x2="1920" y2="1008" stroke="#9CFF9C" stroke-width="1"/><line x1="0" y1="1013" x2="1920" y2="1013" stroke="#9CFF9C" stroke-width="1"/><line x1="0" y1="1018" x2="1920" y2="1018" stroke="#9CFF9C" stroke-width="1"/><line x1="0" y1="1023" x2="1920" y2="1023" stroke="#9CFF9C" stroke-width="1"/><line x1="0" y1="1028" x2="1920" y2="1028" stroke="#9CFF9C" stroke-width="1"/><line x1="0" y1="1033" x2="1920" y2="1033" stroke="#9CFF9C" stroke-width="1"/><line x1="0" y1="1038" x2="1920" y2="1038" stroke="#9CFF9C" stroke-width="1"/><line x1="0" y1="1043" x2="1920" y2="1043" stroke="#9CFF9C" stroke-width="1"/><line x1="0" y1="1048" x2="1920" y2="1048" stroke="#9CFF9C" stroke-width="1"/><line x1="0" y1="1053" x2="1920" y2="1053" stroke="#9CFF9C" stroke-width="1"/><line x1="0" y1="1058" x2="1920" y2="1058" stroke="#9CFF9C" stroke-width="1"/><line x1="0" y1="1063" x2="1920" y2="1063" stroke="#9CFF9C" stroke-width="1"/><line x1="0" y1="1068" x2="1920" y2="1068" stroke="#9CFF9C" stroke-width="1"/><line x1="0" y1="1073" x2="1920" y2="1073" stroke="#9CFF9C" stroke-width="1"/><line x1="0" y1="1078" x2="1920" y2="1078" stroke="#9CFF9C" stroke-width="1"/></g><text x="60" y="206" font-family="'Consolas','Courier New',monospace" font-size="22" fill="#2E7A33" text-anchor="start">AVAILABLE COMMISSIONS</text><rect x="40" y="228" width="880" height="96" fill="#6CFF5F"/><text x="70" y="268" font-family="'Consolas','Courier New',monospace" font-size="28" fill="#07120A" text-anchor="start" font-weight="bold">"REAL COAST" ECO-COLUMN RECOVERY</text><text x="70" y="304" font-family="'Consolas','Courier New',monospace" font-size="19" fill="#0E3013" text-anchor="start">Pvt. Collector · Earth Coast 01, derelict tower</text><text x="884" y="288" font-family="'Consolas','Courier New',monospace" font-size="34" fill="#07120A" text-anchor="end" font-weight="bold">300G</text><text x="60" y="386" font-family="'Consolas','Courier New',monospace" font-size="22" fill="#2E7A33" text-anchor="start">ARCHIVED</text><text x="70" y="428" font-family="'Consolas','Courier New',monospace" font-size="19" fill="#2E7A33" text-anchor="start">BC-2098-0006</text><text x="330" y="428" font-family="'Consolas','Courier New',monospace" font-size="19" fill="#2E7A33" text-anchor="start">"REAL COAST" ECO-COLUMN</text><text x="720" y="428" font-family="'Consolas','Courier New',monospace" font-size="19" fill="#2E7A33" text-anchor="start"> 91%</text><text x="884" y="428" font-family="'Consolas','Courier New',monospace" font-size="19" fill="#2E7A33" text-anchor="end">+273G</text><text x="70" y="478" font-family="'Consolas','Courier New',monospace" font-size="19" fill="#2E7A33" text-anchor="start">BC-2098-0005</text><text x="330" y="478" font-family="'Consolas','Courier New',monospace" font-size="19" fill="#2E7A33" text-anchor="start">TRIAL RUN · GEAR HAUL</text><text x="720" y="478" font-family="'Consolas','Courier New',monospace" font-size="19" fill="#2E7A33" text-anchor="start">100%</text><text x="884" y="478" font-family="'Consolas','Courier New',monospace" font-size="19" fill="#2E7A33" text-anchor="end">+120G</text><rect x="960" y="200" width="920" height="720" fill="none" stroke="#2E7A33" stroke-width="2"/><text x="1000" y="256" font-family="'Consolas','Courier New',monospace" font-size="24" fill="#6CFF5F" text-anchor="start" font-weight="bold">COMMISSION DETAIL</text><text x="1000" y="312" font-family="'Consolas','Courier New',monospace" font-size="21" fill="#6CFF5F" text-anchor="start">TARGET:  recover the sealed "Real Coast" eco-column</text><text x="1000" y="350" font-family="'Consolas','Courier New',monospace" font-size="21" fill="#6CFF5F" text-anchor="start">         (heavy object, two-handed carry)</text><text x="1000" y="388" font-family="'Consolas','Courier New',monospace" font-size="21" fill="#6CFF5F" text-anchor="start">SITE:    Earth Coast 01 · derelict pre-sale tower (2F)</text><text x="1000" y="426" font-family="'Consolas','Courier New',monospace" font-size="21" fill="#6CFF5F" text-anchor="start">PAY:     300G  ×  seal completeness</text><text x="1000" y="500" font-family="'Consolas','Courier New',monospace" font-size="19" fill="#2E7A33" text-anchor="start">C-7  Carry impacts deduct seal at 3% each.</text><text x="1000" y="532" font-family="'Consolas','Courier New',monospace" font-size="19" fill="#2E7A33" text-anchor="start">D-1  Below 50% completeness is rejected.</text><rect x="1000" y="820" width="420" height="60" fill="#6CFF5F"/><text x="1210" y="860" font-family="'Consolas','Courier New',monospace" font-size="24" fill="#07120A" text-anchor="middle" font-weight="bold">[ENTER]  ACCEPT &amp; STAMP</text><g opacity="0.10"><line x1="0" y1="8" x2="1920" y2="8" stroke="#9CFF9C" stroke-width="1"/><line x1="0" y1="13" x2="1920" y2="13" stroke="#9CFF9C" stroke-width="1"/><line x1="0" y1="18" x2="1920" y2="18" stroke="#9CFF9C" stroke-width="1"/><line x1="0" y1="23" x2="1920" y2="23" stroke="#9CFF9C" stroke-width="1"/><line x1="0" y1="28" x2="1920" y2="28" stroke="#9CFF9C" stroke-width="1"/><line x1="0" y1="33" x2="1920" y2="33" stroke="#9CFF9C" stroke-width="1"/><line x1="0" y1="38" x2="1920" y2="38" stroke="#9CFF9C" stroke-width="1"/><line x1="0" y1="43" x2="1920" y2="43" stroke="#9CFF9C" stroke-width="1"/><line x1="0" y1="48" x2="1920" y2="48" stroke="#9CFF9C" stroke-width="1"/><line x1="0" y1="53" x2="1920" y2="53" stroke="#9CFF9C" stroke-width="1"/><line x1="0" y1="58" x2="1920" y2="58" stroke="#9CFF9C" stroke-width="1"/><line x1="0" y1="63" x2="1920" y2="63" stroke="#9CFF9C" stroke-width="1"/><line x1="0" y1="68" x2="1920" y2="68" stroke="#9CFF9C" stroke-width="1"/><line x1="0" y1="73" x2="1920" y2="73" stroke="#9CFF9C" stroke-width="1"/><line x1="0" y1="78" x2="1920" y2="78" stroke="#9CFF9C" stroke-width="1"/><line x1="0" y1="83" x2="1920" y2="83" stroke="#9CFF9C" stroke-width="1"/><line x1="0" y1="88" x2="1920" y2="88" stroke="#9CFF9C" stroke-width="1"/><line x1="0" y1="93" x2="1920" y2="93" stroke="#9CFF9C" stroke-width="1"/><line x1="0" y1="98" x2="1920" y2="98" stroke="#9CFF9C" stroke-width="1"/><line x1="0" y1="103" x2="1920" y2="103" stroke="#9CFF9C" stroke-width="1"/><line x1="0" y1="108" x2="1920" y2="108" stroke="#9CFF9C" stroke-width="1"/><line x1="0" y1="113" x2="1920" y2="113" stroke="#9CFF9C" stroke-width="1"/><line x1="0" y1="118" x2="1920" y2="118" stroke="#9CFF9C" stroke-width="1"/><line x1="0" y1="123" x2="1920" y2="123" stroke="#9CFF9C" stroke-width="1"/><line x1="0" y1="128" x2="1920" y2="128" stroke="#9CFF9C" stroke-width="1"/><line x1="0" y1="133" x2="1920" y2="133" stroke="#9CFF9C" stroke-width="1"/><line x1="0" y1="138" x2="1920" y2="138" stroke="#9CFF9C" stroke-width="1"/><line x1="0" y1="143" x2="1920" y2="143" stroke="#9CFF9C" stroke-width="1"/><line x1="0" y1="148" x2="1920" y2="148" stroke="#9CFF9C" stroke-width="1"/><line x1="0" y1="153" x2="1920" y2="153" stroke="#9CFF9C" stroke-width="1"/><line x1="0" y1="158" x2="1920" y2="158" stroke="#9CFF9C" stroke-width="1"/><line x1="0" y1="163" x2="1920" y2="163" stroke="#9CFF9C" stroke-width="1"/><line x1="0" y1="168" x2="1920" y2="168" stroke="#9CFF9C" stroke-width="1"/><line x1="0" y1="173" x2="1920" y2="173" stroke="#9CFF9C" stroke-width="1"/><line x1="0" y1="178" x2="1920" y2="178" stroke="#9CFF9C" stroke-width="1"/><line x1="0" y1="183" x2="1920" y2="183" stroke="#9CFF9C" stroke-width="1"/><line x1="0" y1="188" x2="1920" y2="188" stroke="#9CFF9C" stroke-width="1"/><line x1="0" y1="193" x2="1920" y2="193" stroke="#9CFF9C" stroke-width="1"/><line x1="0" y1="198" x2="1920" y2="198" stroke="#9CFF9C" stroke-width="1"/><line x1="0" y1="203" x2="1920" y2="203" stroke="#9CFF9C" stroke-width="1"/><line x1="0" y1="208" x2="1920" y2="208" stroke="#9CFF9C" stroke-width="1"/><line x1="0" y1="213" x2="1920" y2="213" stroke="#9CFF9C" stroke-width="1"/><line x1="0" y1="218" x2="1920" y2="218" stroke="#9CFF9C" stroke-width="1"/><line x1="0" y1="223" x2="1920" y2="223" stroke="#9CFF9C" stroke-width="1"/><line x1="0" y1="228" x2="1920" y2="228" stroke="#9CFF9C" stroke-width="1"/><line x1="0" y1="233" x2="1920" y2="233" stroke="#9CFF9C" stroke-width="1"/><line x1="0" y1="238" x2="1920" y2="238" stroke="#9CFF9C" stroke-width="1"/><line x1="0" y1="243" x2="1920" y2="243" stroke="#9CFF9C" stroke-width="1"/><line x1="0" y1="248" x2="1920" y2="248" stroke="#9CFF9C" stroke-width="1"/><line x1="0" y1="253" x2="1920" y2="253" stroke="#9CFF9C" stroke-width="1"/><line x1="0" y1="258" x2="1920" y2="258" stroke="#9CFF9C" stroke-width="1"/><line x1="0" y1="263" x2="1920" y2="263" stroke="#9CFF9C" stroke-width="1"/><line x1="0" y1="268" x2="1920" y2="268" stroke="#9CFF9C" stroke-width="1"/><line x1="0" y1="273" x2="1920" y2="273" stroke="#9CFF9C" stroke-width="1"/><line x1="0" y1="278" x2="1920" y2="278" stroke="#9CFF9C" stroke-width="1"/><line x1="0" y1="283" x2="1920" y2="283" stroke="#9CFF9C" stroke-width="1"/><line x1="0" y1="288" x2="1920" y2="288" stroke="#9CFF9C" stroke-width="1"/><line x1="0" y1="293" x2="1920" y2="293" stroke="#9CFF9C" stroke-width="1"/><line x1="0" y1="298" x2="1920" y2="298" stroke="#9CFF9C" stroke-width="1"/><line x1="0" y1="303" x2="1920" y2="303" stroke="#9CFF9C" stroke-width="1"/><line x1="0" y1="308" x2="1920" y2="308" stroke="#9CFF9C" stroke-width="1"/><line x1="0" y1="313" x2="1920" y2="313" stroke="#9CFF9C" stroke-width="1"/><line x1="0" y1="318" x2="1920" y2="318" stroke="#9CFF9C" stroke-width="1"/><line x1="0" y1="323" x2="1920" y2="323" stroke="#9CFF9C" stroke-width="1"/><line x1="0" y1="328" x2="1920" y2="328" stroke="#9CFF9C" stroke-width="1"/><line x1="0" y1="333" x2="1920" y2="333" stroke="#9CFF9C" stroke-width="1"/><line x1="0" y1="338" x2="1920" y2="338" stroke="#9CFF9C" stroke-width="1"/><line x1="0" y1="343" x2="1920" y2="343" stroke="#9CFF9C" stroke-width="1"/><line x1="0" y1="348" x2="1920" y2="348" stroke="#9CFF9C" stroke-width="1"/><line x1="0" y1="353" x2="1920" y2="353" stroke="#9CFF9C" stroke-width="1"/><line x1="0" y1="358" x2="1920" y2="358" stroke="#9CFF9C" stroke-width="1"/><line x1="0" y1="363" x2="1920" y2="363" stroke="#9CFF9C" stroke-width="1"/><line x1="0" y1="368" x2="1920" y2="368" stroke="#9CFF9C" stroke-width="1"/><line x1="0" y1="373" x2="1920" y2="373" stroke="#9CFF9C" stroke-width="1"/><line x1="0" y1="378" x2="1920" y2="378" stroke="#9CFF9C" stroke-width="1"/><line x1="0" y1="383" x2="1920" y2="383" stroke="#9CFF9C" stroke-width="1"/><line x1="0" y1="388" x2="1920" y2="388" stroke="#9CFF9C" stroke-width="1"/><line x1="0" y1="393" x2="1920" y2="393" stroke="#9CFF9C" stroke-width="1"/><line x1="0" y1="398" x2="1920" y2="398" stroke="#9CFF9C" stroke-width="1"/><line x1="0" y1="403" x2="1920" y2="403" stroke="#9CFF9C" stroke-width="1"/><line x1="0" y1="408" x2="1920" y2="408" stroke="#9CFF9C" stroke-width="1"/><line x1="0" y1="413" x2="1920" y2="413" stroke="#9CFF9C" stroke-width="1"/><line x1="0" y1="418" x2="1920" y2="418" stroke="#9CFF9C" stroke-width="1"/><line x1="0" y1="423" x2="1920" y2="423" stroke="#9CFF9C" stroke-width="1"/><line x1="0" y1="428" x2="1920" y2="428" stroke="#9CFF9C" stroke-width="1"/><line x1="0" y1="433" x2="1920" y2="433" stroke="#9CFF9C" stroke-width="1"/><line x1="0" y1="438" x2="1920" y2="438" stroke="#9CFF9C" stroke-width="1"/><line x1="0" y1="443" x2="1920" y2="443" stroke="#9CFF9C" stroke-width="1"/><line x1="0" y1="448" x2="1920" y2="448" stroke="#9CFF9C" stroke-width="1"/><line x1="0" y1="453" x2="1920" y2="453" stroke="#9CFF9C" stroke-width="1"/><line x1="0" y1="458" x2="1920" y2="458" stroke="#9CFF9C" stroke-width="1"/><line x1="0" y1="463" x2="1920" y2="463" stroke="#9CFF9C" stroke-width="1"/><line x1="0" y1="468" x2="1920" y2="468" stroke="#9CFF9C" stroke-width="1"/><line x1="0" y1="473" x2="1920" y2="473" stroke="#9CFF9C" stroke-width="1"/><line x1="0" y1="478" x2="1920" y2="478" stroke="#9CFF9C" stroke-width="1"/><line x1="0" y1="483" x2="1920" y2="483" stroke="#9CFF9C" stroke-width="1"/><line x1="0" y1="488" x2="1920" y2="488" stroke="#9CFF9C" stroke-width="1"/><line x1="0" y1="493" x2="1920" y2="493" stroke="#9CFF9C" stroke-width="1"/><line x1="0" y1="498" x2="1920" y2="498" stroke="#9CFF9C" stroke-width="1"/><line x1="0" y1="503" x2="1920" y2="503" stroke="#9CFF9C" stroke-width="1"/><line x1="0" y1="508" x2="1920" y2="508" stroke="#9CFF9C" stroke-width="1"/><line x1="0" y1="513" x2="1920" y2="513" stroke="#9CFF9C" stroke-width="1"/><line x1="0" y1="518" x2="1920" y2="518" stroke="#9CFF9C" stroke-width="1"/><line x1="0" y1="523" x2="1920" y2="523" stroke="#9CFF9C" stroke-width="1"/><line x1="0" y1="528" x2="1920" y2="528" stroke="#9CFF9C" stroke-width="1"/><line x1="0" y1="533" x2="1920" y2="533" stroke="#9CFF9C" stroke-width="1"/><line x1="0" y1="538" x2="1920" y2="538" stroke="#9CFF9C" stroke-width="1"/><line x1="0" y1="543" x2="1920" y2="543" stroke="#9CFF9C" stroke-width="1"/><line x1="0" y1="548" x2="1920" y2="548" stroke="#9CFF9C" stroke-width="1"/><line x1="0" y1="553" x2="1920" y2="553" stroke="#9CFF9C" stroke-width="1"/><line x1="0" y1="558" x2="1920" y2="558" stroke="#9CFF9C" stroke-width="1"/><line x1="0" y1="563" x2="1920" y2="563" stroke="#9CFF9C" stroke-width="1"/><line x1="0" y1="568" x2="1920" y2="568" stroke="#9CFF9C" stroke-width="1"/><line x1="0" y1="573" x2="1920" y2="573" stroke="#9CFF9C" stroke-width="1"/><line x1="0" y1="578" x2="1920" y2="578" stroke="#9CFF9C" stroke-width="1"/><line x1="0" y1="583" x2="1920" y2="583" stroke="#9CFF9C" stroke-width="1"/><line x1="0" y1="588" x2="1920" y2="588" stroke="#9CFF9C" stroke-width="1"/><line x1="0" y1="593" x2="1920" y2="593" stroke="#9CFF9C" stroke-width="1"/><line x1="0" y1="598" x2="1920" y2="598" stroke="#9CFF9C" stroke-width="1"/><line x1="0" y1="603" x2="1920" y2="603" stroke="#9CFF9C" stroke-width="1"/><line x1="0" y1="608" x2="1920" y2="608" stroke="#9CFF9C" stroke-width="1"/><line x1="0" y1="613" x2="1920" y2="613" stroke="#9CFF9C" stroke-width="1"/><line x1="0" y1="618" x2="1920" y2="618" stroke="#9CFF9C" stroke-width="1"/><line x1="0" y1="623" x2="1920" y2="623" stroke="#9CFF9C" stroke-width="1"/><line x1="0" y1="628" x2="1920" y2="628" stroke="#9CFF9C" stroke-width="1"/><line x1="0" y1="633" x2="1920" y2="633" stroke="#9CFF9C" stroke-width="1"/><line x1="0" y1="638" x2="1920" y2="638" stroke="#9CFF9C" stroke-width="1"/><line x1="0" y1="643" x2="1920" y2="643" stroke="#9CFF9C" stroke-width="1"/><line x1="0" y1="648" x2="1920" y2="648" stroke="#9CFF9C" stroke-width="1"/><line x1="0" y1="653" x2="1920" y2="653" stroke="#9CFF9C" stroke-width="1"/><line x1="0" y1="658" x2="1920" y2="658" stroke="#9CFF9C" stroke-width="1"/><line x1="0" y1="663" x2="1920" y2="663" stroke="#9CFF9C" stroke-width="1"/><line x1="0" y1="668" x2="1920" y2="668" stroke="#9CFF9C" stroke-width="1"/><line x1="0" y1="673" x2="1920" y2="673" stroke="#9CFF9C" stroke-width="1"/><line x1="0" y1="678" x2="1920" y2="678" stroke="#9CFF9C" stroke-width="1"/><line x1="0" y1="683" x2="1920" y2="683" stroke="#9CFF9C" stroke-width="1"/><line x1="0" y1="688" x2="1920" y2="688" stroke="#9CFF9C" stroke-width="1"/><line x1="0" y1="693" x2="1920" y2="693" stroke="#9CFF9C" stroke-width="1"/><line x1="0" y1="698" x2="1920" y2="698" stroke="#9CFF9C" stroke-width="1"/><line x1="0" y1="703" x2="1920" y2="703" stroke="#9CFF9C" stroke-width="1"/><line x1="0" y1="708" x2="1920" y2="708" stroke="#9CFF9C" stroke-width="1"/><line x1="0" y1="713" x2="1920" y2="713" stroke="#9CFF9C" stroke-width="1"/><line x1="0" y1="718" x2="1920" y2="718" stroke="#9CFF9C" stroke-width="1"/><line x1="0" y1="723" x2="1920" y2="723" stroke="#9CFF9C" stroke-width="1"/><line x1="0" y1="728" x2="1920" y2="728" stroke="#9CFF9C" stroke-width="1"/><line x1="0" y1="733" x2="1920" y2="733" stroke="#9CFF9C" stroke-width="1"/><line x1="0" y1="738" x2="1920" y2="738" stroke="#9CFF9C" stroke-width="1"/><line x1="0" y1="743" x2="1920" y2="743" stroke="#9CFF9C" stroke-width="1"/><line x1="0" y1="748" x2="1920" y2="748" stroke="#9CFF9C" stroke-width="1"/><line x1="0" y1="753" x2="1920" y2="753" stroke="#9CFF9C" stroke-width="1"/><line x1="0" y1="758" x2="1920" y2="758" stroke="#9CFF9C" stroke-width="1"/><line x1="0" y1="763" x2="1920" y2="763" stroke="#9CFF9C" stroke-width="1"/><line x1="0" y1="768" x2="1920" y2="768" stroke="#9CFF9C" stroke-width="1"/><line x1="0" y1="773" x2="1920" y2="773" stroke="#9CFF9C" stroke-width="1"/><line x1="0" y1="778" x2="1920" y2="778" stroke="#9CFF9C" stroke-width="1"/><line x1="0" y1="783" x2="1920" y2="783" stroke="#9CFF9C" stroke-width="1"/><line x1="0" y1="788" x2="1920" y2="788" stroke="#9CFF9C" stroke-width="1"/><line x1="0" y1="793" x2="1920" y2="793" stroke="#9CFF9C" stroke-width="1"/><line x1="0" y1="798" x2="1920" y2="798" stroke="#9CFF9C" stroke-width="1"/><line x1="0" y1="803" x2="1920" y2="803" stroke="#9CFF9C" stroke-width="1"/><line x1="0" y1="808" x2="1920" y2="808" stroke="#9CFF9C" stroke-width="1"/><line x1="0" y1="813" x2="1920" y2="813" stroke="#9CFF9C" stroke-width="1"/><line x1="0" y1="818" x2="1920" y2="818" stroke="#9CFF9C" stroke-width="1"/><line x1="0" y1="823" x2="1920" y2="823" stroke="#9CFF9C" stroke-width="1"/><line x1="0" y1="828" x2="1920" y2="828" stroke="#9CFF9C" stroke-width="1"/><line x1="0" y1="833" x2="1920" y2="833" stroke="#9CFF9C" stroke-width="1"/><line x1="0" y1="838" x2="1920" y2="838" stroke="#9CFF9C" stroke-width="1"/><line x1="0" y1="843" x2="1920" y2="843" stroke="#9CFF9C" stroke-width="1"/><line x1="0" y1="848" x2="1920" y2="848" stroke="#9CFF9C" stroke-width="1"/><line x1="0" y1="853" x2="1920" y2="853" stroke="#9CFF9C" stroke-width="1"/><line x1="0" y1="858" x2="1920" y2="858" stroke="#9CFF9C" stroke-width="1"/><line x1="0" y1="863" x2="1920" y2="863" stroke="#9CFF9C" stroke-width="1"/><line x1="0" y1="868" x2="1920" y2="868" stroke="#9CFF9C" stroke-width="1"/><line x1="0" y1="873" x2="1920" y2="873" stroke="#9CFF9C" stroke-width="1"/><line x1="0" y1="878" x2="1920" y2="878" stroke="#9CFF9C" stroke-width="1"/><line x1="0" y1="883" x2="1920" y2="883" stroke="#9CFF9C" stroke-width="1"/><line x1="0" y1="888" x2="1920" y2="888" stroke="#9CFF9C" stroke-width="1"/><line x1="0" y1="893" x2="1920" y2="893" stroke="#9CFF9C" stroke-width="1"/><line x1="0" y1="898" x2="1920" y2="898" stroke="#9CFF9C" stroke-width="1"/><line x1="0" y1="903" x2="1920" y2="903" stroke="#9CFF9C" stroke-width="1"/><line x1="0" y1="908" x2="1920" y2="908" stroke="#9CFF9C" stroke-width="1"/><line x1="0" y1="913" x2="1920" y2="913" stroke="#9CFF9C" stroke-width="1"/><line x1="0" y1="918" x2="1920" y2="918" stroke="#9CFF9C" stroke-width="1"/><line x1="0" y1="923" x2="1920" y2="923" stroke="#9CFF9C" stroke-width="1"/><line x1="0" y1="928" x2="1920" y2="928" stroke="#9CFF9C" stroke-width="1"/><line x1="0" y1="933" x2="1920" y2="933" stroke="#9CFF9C" stroke-width="1"/><line x1="0" y1="938" x2="1920" y2="938" stroke="#9CFF9C" stroke-width="1"/><line x1="0" y1="943" x2="1920" y2="943" stroke="#9CFF9C" stroke-width="1"/><line x1="0" y1="948" x2="1920" y2="948" stroke="#9CFF9C" stroke-width="1"/><line x1="0" y1="953" x2="1920" y2="953" stroke="#9CFF9C" stroke-width="1"/><line x1="0" y1="958" x2="1920" y2="958" stroke="#9CFF9C" stroke-width="1"/><line x1="0" y1="963" x2="1920" y2="963" stroke="#9CFF9C" stroke-width="1"/><line x1="0" y1="968" x2="1920" y2="968" stroke="#9CFF9C" stroke-width="1"/><line x1="0" y1="973" x2="1920" y2="973" stroke="#9CFF9C" stroke-width="1"/><line x1="0" y1="978" x2="1920" y2="978" stroke="#9CFF9C" stroke-width="1"/><line x1="0" y1="983" x2="1920" y2="983" stroke="#9CFF9C" stroke-width="1"/><line x1="0" y1="988" x2="1920" y2="988" stroke="#9CFF9C" stroke-width="1"/><line x1="0" y1="993" x2="1920" y2="993" stroke="#9CFF9C" stroke-width="1"/><line x1="0" y1="998" x2="1920" y2="998" stroke="#9CFF9C" stroke-width="1"/><line x1="0" y1="1003" x2="1920" y2="1003" stroke="#9CFF9C" stroke-width="1"/><line x1="0" y1="1008" x2="1920" y2="1008" stroke="#9CFF9C" stroke-width="1"/><line x1="0" y1="1013" x2="1920" y2="1013" stroke="#9CFF9C" stroke-width="1"/><line x1="0" y1="1018" x2="1920" y2="1018" stroke="#9CFF9C" stroke-width="1"/><line x1="0" y1="1023" x2="1920" y2="1023" stroke="#9CFF9C" stroke-width="1"/><line x1="0" y1="1028" x2="1920" y2="1028" stroke="#9CFF9C" stroke-width="1"/><line x1="0" y1="1033" x2="1920" y2="1033" stroke="#9CFF9C" stroke-width="1"/><line x1="0" y1="1038" x2="1920" y2="1038" stroke="#9CFF9C" stroke-width="1"/><line x1="0" y1="1043" x2="1920" y2="1043" stroke="#9CFF9C" stroke-width="1"/><line x1="0" y1="1048" x2="1920" y2="1048" stroke="#9CFF9C" stroke-width="1"/><line x1="0" y1="1053" x2="1920" y2="1053" stroke="#9CFF9C" stroke-width="1"/><line x1="0" y1="1058" x2="1920" y2="1058" stroke="#9CFF9C" stroke-width="1"/><line x1="0" y1="1063" x2="1920" y2="1063" stroke="#9CFF9C" stroke-width="1"/><line x1="0" y1="1068" x2="1920" y2="1068" stroke="#9CFF9C" stroke-width="1"/><line x1="0" y1="1073" x2="1920" y2="1073" stroke="#9CFF9C" stroke-width="1"/><line x1="0" y1="1078" x2="1920" y2="1078" stroke="#9CFF9C" stroke-width="1"/></g></svg>