<svg xmlns="http://www.w3.org/2000/svg" width="1920" height="1080" viewBox="0 0 1920 1080"><defs><linearGradient id="olive" x1="0" y1="0" x2="0" y2="1"><stop offset="0" stop-color="#222B22"/><stop offset="1" stop-color="#181F18"/></linearGradient><linearGradient id="paperg" x1="0" y1="0" x2="0" y2="1"><stop offset="0" stop-color="#CFC4A4"/><stop offset="1" stop-color="#B8AD8E"/></linearGradient><radialGradient id="sodium" cx="0.5" cy="0.5" r="0.5"><stop offset="0" stop-color="#C8861E" stop-opacity="0.5"/><stop offset="1" stop-color="#C8861E" stop-opacity="0"/></radialGradient></defs><rect x="0" y="0" width="1920" height="1080" fill="#0A140C"/><g opacity="0.12"></g><g opacity="0.10"><line x1="0" y1="8" x2="1920" y2="8" stroke="#46FF46" stroke-width="1"/><line x1="0" y1="24" x2="1920" y2="24" stroke="#46FF46" stroke-width="1"/><line x1="0" y1="40" x2="1920" y2="40" stroke="#46FF46" stroke-width="1"/><line x1="0" y1="56" x2="1920" y2="56" stroke="#46FF46" stroke-width="1"/><line x1="0" y1="72" x2="1920" y2="72" stroke="#46FF46" stroke-width="1"/><line x1="0" y1="88" x2="1920" y2="88" stroke="#46FF46" stroke-width="1"/><line x1="0" y1="104" x2="1920" y2="104" stroke="#46FF46" stroke-width="1"/><line x1="0" y1="120" x2="1920" y2="120" stroke="#46FF46" stroke-width="1"/><line x1="0" y1="136" x2="1920" y2="136" stroke="#46FF46" stroke-width="1"/><line x1="0" y1="152" x2="1920" y2="152" stroke="#46FF46" stroke-width="1"/><line x1="0" y1="168" x2="1920" y2="168" stroke="#46FF46" stroke-width="1"/><line x1="0" y1="184" x2="1920" y2="184" stroke="#46FF46" stroke-width="1"/><line x1="0" y1="200" x2="1920" y2="200" stroke="#46FF46" stroke-width="1"/><line x1="0" y1="216" x2="1920" y2="216" stroke="#46FF46" stroke-width="1"/><line x1="0" y1="232" x2="1920" y2="232" stroke="#46FF46" stroke-width="1"/><line x1="0" y1="248" x2="1920" y2="248" stroke="#46FF46" stroke-width="1"/><line x1="0" y1="264" x2="1920" y2="264" stroke="#46FF46" stroke-width="1"/><line x1="0" y1="280" x2="1920" y2="280" stroke="#46FF46" stroke-width="1"/><line x1="0" y1="296" x2="1920" y2="296" stroke="#46FF46" stroke-width="1"/><line x1="0" y1="312" x2="1920" y2="312" stroke="#46FF46" stroke-width="1"/><line x1="0" y1="328" x2="1920" y2="328" stroke="#46FF46" stroke-width="1"/><line x1="0" y1="344" x2="1920" y2="344" stroke="#46FF46" stroke-width="1"/><line x1="0" y1="360" x2="1920" y2="360" stroke="#46FF46" stroke-width="1"/><line x1="0" y1="376" x2="1920" y2="376" stroke="#46FF46" stroke-width="1"/><line x1="0" y1="392" x2="1920" y2="392" stroke="#46FF46" stroke-width="1"/><line x1="0" y1="408" x2="1920" y2="408" stroke="#46FF46" stroke-width="1"/><line x1="0" y1="424" x2="1920" y2="424" stroke="#46FF46" stroke-width="1"/><line x1="0" y1="440" x2="1920" y2="440" stroke="#46FF46" stroke-width="1"/><line x1="0" y1="456" x2="1920" y2="456" stroke="#46FF46" stroke-width="1"/><line x1="0" y1="472" x2="1920" y2="472" stroke="#46FF46" stroke-width="1"/><line x1="0" y1="488" x2="1920" y2="488" stroke="#46FF46" stroke-width="1"/><line x1="0" y1="504" x2="1920" y2="504" stroke="#46FF46" stroke-width="1"/><line x1="0" y1="520" x2="1920" y2="520" stroke="#46FF46" stroke-width="1"/><line x1="0" y1="536" x2="1920" y2="536" stroke="#46FF46" stroke-width="1"/><line x1="0" y1="552" x2="1920" y2="552" stroke="#46FF46" stroke-width="1"/><line x1="0" y1="568" x2="1920" y2="568" stroke="#46FF46" stroke-width="1"/><line x1="0" y1="584" x2="1920" y2="584" stroke="#46FF46" stroke-width="1"/><line x1="0" y1="600" x2="1920" y2="600" stroke="#46FF46" stroke-width="1"/><line x1="0" y1="616" x2="1920" y2="616" stroke="#46FF46" stroke-width="1"/><line x1="0" y1="632" x2="1920" y2="632" stroke="#46FF46" stroke-width="1"/><line x1="0" y1="648" x2="1920" y2="648" stroke="#46FF46" stroke-width="1"/><line x1="0" y1="664" x2="1920" y2="664" stroke="#46FF46" stroke-width="1"/><line x1="0" y1="680" x2="1920" y2="680" stroke="#46FF46" stroke-width="1"/><line x1="0" y1="696" x2="1920" y2="696" stroke="#46FF46" stroke-width="1"/><line x1="0" y1="712" x2="1920" y2="712" stroke="#46FF46" stroke-width="1"/><line x1="0" y1="728" x2="1920" y2="728" stroke="#46FF46" stroke-width="1"/><line x1="0" y1="744" x2="1920" y2="744" stroke="#46FF46" stroke-width="1"/><line x1="0" y1="760" x2="1920" y2="760" stroke="#46FF46" stroke-width="1"/><line x1="0" y1="776" x2="1920" y2="776" stroke="#46FF46" stroke-width="1"/><line x1="0" y1="792" x2="1920" y2="792" stroke="#46FF46" stroke-width="1"/><line x1="0" y1="808" x2="1920" y2="808" stroke="#46FF46" stroke-width="1"/><line x1="0" y1="824" x2="1920" y2="824" stroke="#46FF46" stroke-width="1"/><line x1="0" y1="840" x2="1920" y2="840" stroke="#46FF46" stroke-width="1"/><line x1="0" y1="856" x2="1920" y2="856" stroke="#46FF46" stroke-width="1"/><line x1="0" y1="872" x2="1920" y2="872" stroke="#46FF46" stroke-width="1"/><line x1="0" y1="888" x2="1920" y2="888" stroke="#46FF46" stroke-width="1"/><line x1="0" y1="904" x2="1920" y2="904" stroke="#46FF46" stroke-width="1"/><line x1="0" y1="920" x2="1920" y2="920" stroke="#46FF46" stroke-width="1"/><line x1="0" y1="936" x2="1920" y2="936" stroke="#46FF46" stroke-width="1"/><line x1="0" y1="952" x2="1920" y2="952" stroke="#46FF46" stroke-width="1"/><line x1="0" y1="968" x2="1920" y2="968" stroke="#46FF46" stroke-width="1"/><line x1="0" y1="984" x2="1920" y2="984" stroke="#46FF46" stroke-width="1"/><line x1="0" y1="1000" x2="1920" y2="1000" stroke="#46FF46" stroke-width="1"/><line x1="0" y1="1016" x2="1920" y2="1016" stroke="#46FF46" stroke-width="1"/><line x1="0" y1="1032" x2="1920" y2="1032" stroke="#46FF46" stroke-width="1"/><line x1="0" y1="1048" x2="1920" y2="1048" stroke="#46FF46" stroke-width="1"/><line x1="0" y1="1064" x2="1920" y2="1064" stroke="#46FF46" stroke-width="1"/></g><rect x="0" y="0" width="1920" height="56" fill="#0F1D10"/><text x="40" y="38" font-family="Consolas,Microsoft YaHei" font-size="22" fill="#6CDC6C" text-anchor="start" letter-spacing="2">BC-DOS v2.2 · 黑色委托办公系统</text><text x="1180" y="38" font-family="Consolas,Microsoft YaHei" font-size="22" fill="#6CDC6C" text-anchor="start">资金 −180G</text><text x="1420" y="38" font-family="Consolas,Microsoft YaHei" font-size="22" fill="#2E5C36" text-anchor="start">许可证 一级（临时）</text><text x="1860" y="38" font-family="Consolas,Microsoft YaHei" font-size="22" fill="#2E5C36" text-anchor="end">14:32</text><rect x="40" y="80" width="240" height="52" fill="none" stroke="#2E5C36" stroke-width="2" /><text x="60" y="116" font-family="Consolas,Microsoft YaHei" font-size="26" fill="#2E5C36" text-anchor="start">[1] 委托文件</text><rect x="296" y="80" width="240" height="52" fill="none" stroke="#2E5C36" stroke-width="2" /><text x="316" y="116" font-family="Consolas,Microsoft YaHei" font-size="26" fill="#2E5C36" text-anchor="start">[2] 采购目录</text><rect x="552" y="80" width="240" height="52" fill="#6CDC6C"/><text x="572" y="116" font-family="Consolas,Microsoft YaHei" font-size="26" fill="#0A140C" text-anchor="start" font-weight="bold">[3] 公司账本</text><line x1="40" y1="150" x2="1880" y2="150" stroke="#2E5C36" stroke-width="2"/><text x="40" y="1048" font-family="Consolas,Microsoft YaHei" font-size="20" fill="#2E5C36" text-anchor="start">[1][2][3] 切换页签　·　↑↓ 选择　·　[Enter] 确认　·　[Esc] 离开终端</text><text x="40" y="210" font-family="Consolas,Microsoft YaHei" font-size="22" fill="#2E5C36" text-anchor="start">单号          委托                    完整度   实付</text><rect x="40" y="228" width="1100" height="48" fill="#6CDC6C"/><text x="60" y="260" font-family="Consolas,Microsoft YaHei" font-size="22" fill="#0A140C" text-anchor="start">BC-2098-0007</text><text x="360" y="260" font-family="Consolas,Microsoft YaHei" font-size="22" fill="#0A140C" text-anchor="start">「真实海岸」生态柱回收</text><text x="820" y="260" font-family="Consolas,Microsoft YaHei" font-size="22" fill="#0A140C" text-anchor="start"> 91%</text><text x="1000" y="260" font-family="Consolas,Microsoft YaHei" font-size="22" fill="#0A140C" text-anchor="start">+273G</text><text x="60" y="330" font-family="Consolas,Microsoft YaHei" font-size="22" fill="#6CDC6C" text-anchor="start">BC-2098-0006</text><text x="360" y="330" font-family="Consolas,Microsoft YaHei" font-size="22" fill="#6CDC6C" text-anchor="start">「真实海岸」生态柱回收</text><text x="820" y="330" font-family="Consolas,Microsoft YaHei" font-size="22" fill="#6CDC6C" text-anchor="start"> 64%</text><text x="1000" y="330" font-family="Consolas,Microsoft YaHei" font-size="22" fill="#6CDC6C" text-anchor="start">+192G</text><text x="60" y="400" font-family="Consolas,Microsoft YaHei" font-size="22" fill="#6CDC6C" text-anchor="start">BC-2098-0005</text><text x="360" y="400" font-family="Consolas,Microsoft YaHei" font-size="22" fill="#6CDC6C" text-anchor="start">试运营·器材搬运</text><text x="820" y="400" font-family="Consolas,Microsoft YaHei" font-size="22" fill="#6CDC6C" text-anchor="start">100%</text><text x="1000" y="400" font-family="Consolas,Microsoft YaHei" font-size="22" fill="#6CDC6C" text-anchor="start">+120G</text><text x="60" y="480" font-family="Consolas,Microsoft YaHei" font-size="20" fill="#2E5C36" text-anchor="start">客户使用备注（BC-2098-0007）：</text><text x="60" y="518" font-family="Consolas,Microsoft YaHei" font-size="22" fill="#6CDC6C" text-anchor="start" font-style="italic">“柱体状态良好。已陈列于火星新居客厅，邻居均表示羡慕。”</text><line x1="40" y1="940" x2="1880" y2="940" stroke="#2E5C36" stroke-width="2"/><text x="40" y="990" font-family="Consolas,Microsoft YaHei" font-size="30" fill="#E86A50" text-anchor="start" font-weight="bold">当前结余：−180G</text><text x="1880" y="990" font-family="Consolas,Microsoft YaHei" font-size="24" fill="#E86A50" text-anchor="end">本季度应还：1,200G　[逾期]</text></svg>