<svg xmlns="http://www.w3.org/2000/svg" width="1920" height="1080" viewBox="0 0 1920 1080"><defs><linearGradient id="olive" x1="0" y1="0" x2="0" y2="1"><stop offset="0" stop-color="#222B22"/><stop offset="1" stop-color="#181F18"/></linearGradient><linearGradient id="paperg" x1="0" y1="0" x2="0" y2="1"><stop offset="0" stop-color="#CFC4A4"/><stop offset="1" stop-color="#B8AD8E"/></linearGradient><radialGradient id="sodium" cx="0.5" cy="0.5" r="0.5"><stop offset="0" stop-color="#C8861E" stop-opacity="0.5"/><stop offset="1" stop-color="#C8861E" stop-opacity="0"/></radialGradient></defs><rect x="0" y="0" width="1920" height="1080" fill="#0D1113"/><rect x="0" y="660" width="1920" height="420" fill="#0A0D0F"/><line x1="200" y1="200" x2="140" y2="1080" stroke="#15191C" stroke-width="14"/><line x1="520" y1="200" x2="460" y2="1080" stroke="#15191C" stroke-width="14"/><line x1="840" y1="200" x2="780" y2="1080" stroke="#15191C" stroke-width="14"/><line x1="1160" y1="200" x2="1100" y2="1080" stroke="#15191C" stroke-width="14"/><line x1="1480" y1="200" x2="1420" y2="1080" stroke="#15191C" stroke-width="14"/><line x1="1800" y1="200" x2="1740" y2="1080" stroke="#15191C" stroke-width="14"/><ellipse cx="1500" cy="540" rx="420" ry="300" fill="url(#sodium)"/><rect x="1430" y="300" width="140" height="320" fill="#1A1410" opacity="0.9"/><text x="48" y="80" font-family="Microsoft YaHei" font-size="26" fill="#D8D2BC" text-anchor="start" font-weight="bold">目标：取回「真实海岸」生态柱</text><text x="48" y="120" font-family="Microsoft YaHei" font-size="24" fill="#E8B25C" text-anchor="start">密封完整度 94%</text><text x="48" y="160" font-family="Microsoft YaHei" font-size="20" fill="#7E8872" text-anchor="start" opacity="0.7">供电已恢复</text><line x1="952" y1="540" x2="968" y2="540" stroke="#E8B25C" stroke-width="3"/><line x1="960" y1="532" x2="960" y2="548" stroke="#E8B25C" stroke-width="3"/><rect x="910" y="566" width="100" height="10" fill="#262E26"/><rect x="910" y="566" width="60" height="10" fill="#E8B25C"/><text x="960" y="600" font-family="Microsoft YaHei" font-size="18" fill="#7E8872" text-anchor="middle">按住 E · 恢复供电</text><rect x="722" y="920" width="476" height="104" fill="#10140F" opacity="0.85"/><rect x="736" y="932" width="80" height="80" fill="#1A201A" stroke="#3A453A" stroke-width="2" /><text x="776" y="980" font-family="Microsoft YaHei" font-size="20" fill="#BFC4AE" text-anchor="middle">手电</text><text x="744" y="950" font-family="Microsoft YaHei" font-size="14" fill="#7E8872" text-anchor="start">1</text><rect x="744" y="1000" width="64" height="10" fill="#262E26"/><rect x="744" y="1000" width="35" height="10" fill="#E8B25C"/><rect x="828" y="932" width="80" height="80" fill="#1A201A" stroke="#3A453A" stroke-width="2" /><text x="868" y="980" font-family="Microsoft YaHei" font-size="20" fill="#BFC4AE" text-anchor="middle">电池</text><text x="836" y="950" font-family="Microsoft YaHei" font-size="14" fill="#7E8872" text-anchor="start">2</text><rect x="920" y="932" width="80" height="80" fill="#1A201A" stroke="#3A453A" stroke-width="2" /><text x="928" y="950" font-family="Microsoft YaHei" font-size="14" fill="#7E8872" text-anchor="start">3</text><rect x="1012" y="932" width="80" height="80" fill="#1A201A" stroke="#E8B25C" stroke-width="3" /><text x="1052" y="980" font-family="Microsoft YaHei" font-size="20" fill="#D8D2BC" text-anchor="middle">生态柱</text><text x="1020" y="950" font-family="Microsoft YaHei" font-size="14" fill="#7E8872" text-anchor="start">4</text><rect x="1104" y="932" width="80" height="80" fill="#1A201A" stroke="#3A453A" stroke-width="2" /><text x="1112" y="950" font-family="Microsoft YaHei" font-size="14" fill="#7E8872" text-anchor="start">5</text><rect x="736" y="880" width="448" height="10" fill="#262E26"/><rect x="736" y="880" width="358" height="10" fill="#7FA083"/><text x="712" y="890" font-family="Microsoft YaHei" font-size="16" fill="#7E8872" text-anchor="end">HP</text><rect x="736" y="902" width="448" height="10" fill="#262E26"/><rect x="736" y="902" width="201" height="10" fill="#8B9484"/><text x="712" y="912" font-family="Microsoft YaHei" font-size="16" fill="#7E8872" text-anchor="end">STA</text></svg>