<svg xmlns="http://www.w3.org/2000/svg" width="1920" height="1080" viewBox="0 0 1920 1080"><defs>
  <radialGradient id="vig" cx="0.5" cy="0.46" r="0.75">
    <stop offset="0.45" stop-color="#000" stop-opacity="0"/>
    <stop offset="1" stop-color="#000" stop-opacity="0.72"/>
  </radialGradient>
  <radialGradient id="lamp" cx="0.5" cy="0.5" r="0.5">
    <stop offset="0" stop-color="#FF9820" stop-opacity="0.34"/>
    <stop offset="0.55" stop-color="#9A6418" stop-opacity="0.10"/>
    <stop offset="1" stop-color="#FF9820" stop-opacity="0"/>
  </radialGradient>
  <radialGradient id="crtglow" cx="0.5" cy="0.5" r="0.6">
    <stop offset="0" stop-color="#6CFF5F" stop-opacity="0.16"/>
    <stop offset="1" stop-color="#6CFF5F" stop-opacity="0"/>
  </radialGradient>
  <linearGradient id="paperg" x1="0" y1="0" x2="0" y2="1">
    <stop offset="0" stop-color="#CFC4A4"/><stop offset="1" stop-color="#B8AD8E"/>
  </linearGradient>
  <filter id="grain"><feTurbulence type="fractalNoise" baseFrequency="0.9" numOctaves="2" stitchTiles="stitch"/>
    <feColorMatrix type="matrix" values="0 0 0 0 0  0 0 0 0 0  0 0 0 0 0  0 0 0 0.5 0"/></filter>
</defs><rect x="0" y="0" width="1920" height="1080" fill="#0C0F10"/><rect x="0" y="640" width="1920" height="440" fill="#0A0C0D"/><line x1="220" y1="180" x2="160" y2="1080" stroke="#13161A" stroke-width="16"/><line x1="550" y1="180" x2="490" y2="1080" stroke="#13161A" stroke-width="16"/><line x1="880" y1="180" x2="820" y2="1080" stroke="#13161A" stroke-width="16"/><line x1="1210" y1="180" x2="1150" y2="1080" stroke="#13161A" stroke-width="16"/><line x1="1540" y1="180" x2="1480" y2="1080" stroke="#13161A" stroke-width="16"/><line x1="1870" y1="180" x2="1810" y2="1080" stroke="#13161A" stroke-width="16"/><ellipse cx="1480" cy="520" rx="440" ry="320" fill="url(#lamp)"/><rect x="1430" y="300" width="130" height="320" fill="#15110C" opacity="0.85"/><text x="48" y="80" font-family="'Liberation Sans','Arial','Helvetica Neue',sans-serif" font-size="16" fill="#FF9820" text-anchor="start" letter-spacing="4" font-weight="bold">OBJECTIVE</text><text x="48" y="116" font-family="'Liberation Sans','Arial','Helvetica Neue',sans-serif" font-size="25" fill="#D6CCAE" text-anchor="start" font-weight="bold">Recover the "Real Coast" eco-column</text><text x="48" y="158" font-family="'Liberation Sans','Arial','Helvetica Neue',sans-serif" font-size="22" fill="#FFAB40" text-anchor="start">SEAL COMPLETENESS  94%</text><text x="48" y="196" font-family="'Liberation Sans','Arial','Helvetica Neue',sans-serif" font-size="19" fill="#6A6456" text-anchor="start" opacity="0.8">Power restored</text><line x1="950" y1="540" x2="970" y2="540" stroke="#FF9820" stroke-width="3"/><line x1="960" y1="530" x2="960" y2="550" stroke="#FF9820" stroke-width="3"/><rect x="905" y="566" width="110" height="8" fill="#23231D"/><rect x="905" y="566" width="66" height="8" fill="#FF9820"/><text x="960" y="602" font-family="'Liberation Sans','Arial','Helvetica Neue',sans-serif" font-size="17" fill="#9A917A" text-anchor="middle">HOLD  E  ·  RESTORE POWER</text><rect x="712" y="916" width="496" height="108" fill="#0E110D" opacity="0.86"/><rect x="726" y="928" width="84" height="84" fill="#16191400" stroke="#2E332C" stroke-width="2"/><text x="768" y="978" font-family="'Liberation Sans','Arial','Helvetica Neue',sans-serif" font-size="17" fill="#9A917A" text-anchor="middle">LIGHT</text><text x="735" y="950" font-family="'Liberation Sans','Arial','Helvetica Neue',sans-serif" font-size="14" fill="#6A6456" text-anchor="start">1</text><rect x="735" y="994" width="66" height="7" fill="#23231D"/><rect x="735" y="994" width="36" height="7" fill="#FF9820"/><rect x="822" y="928" width="84" height="84" fill="#16191400" stroke="#2E332C" stroke-width="2"/><text x="864" y="978" font-family="'Liberation Sans','Arial','Helvetica Neue',sans-serif" font-size="17" fill="#9A917A" text-anchor="middle">BATT</text><text x="831" y="950" font-family="'Liberation Sans','Arial','Helvetica Neue',sans-serif" font-size="14" fill="#6A6456" text-anchor="start">2</text><rect x="918" y="928" width="84" height="84" fill="#16191400" stroke="#2E332C" stroke-width="2"/><text x="927" y="950" font-family="'Liberation Sans','Arial','Helvetica Neue',sans-serif" font-size="14" fill="#6A6456" text-anchor="start">3</text><rect x="1014" y="928" width="84" height="84" fill="#1E2014" stroke="#FF9820" stroke-width="3"/><text x="1056" y="978" font-family="'Liberation Sans','Arial','Helvetica Neue',sans-serif" font-size="17" fill="#D6CCAE" text-anchor="middle" font-weight="bold">COLUMN</text><text x="1023" y="950" font-family="'Liberation Sans','Arial','Helvetica Neue',sans-serif" font-size="14" fill="#6A6456" text-anchor="start">4</text><rect x="1110" y="928" width="84" height="84" fill="#16191400" stroke="#2E332C" stroke-width="2"/><text x="1119" y="950" font-family="'Liberation Sans','Arial','Helvetica Neue',sans-serif" font-size="14" fill="#6A6456" text-anchor="start">5</text><rect x="726" y="884" width="468" height="10" fill="#23231D"/><rect x="726" y="884" width="374" height="10" fill="#55624A"/><text x="704" y="894" font-family="'Liberation Sans','Arial','Helvetica Neue',sans-serif" font-size="16" fill="#9A917A" text-anchor="end">HP</text><rect x="726" y="900" width="468" height="10" fill="#23231D"/><rect x="726" y="900" width="210" height="10" fill="#6E7A66"/><text x="704" y="910" font-family="'Liberation Sans','Arial','Helvetica Neue',sans-serif" font-size="16" fill="#9A917A" text-anchor="end">STA</text></svg>