<svg xmlns="http://www.w3.org/2000/svg" width="1920" height="1080" viewBox="0 0 1920 1080"><defs><linearGradient id="olive" x1="0" y1="0" x2="0" y2="1"><stop offset="0" stop-color="#222B22"/><stop offset="1" stop-color="#181F18"/></linearGradient><linearGradient id="paperg" x1="0" y1="0" x2="0" y2="1"><stop offset="0" stop-color="#CFC4A4"/><stop offset="1" stop-color="#B8AD8E"/></linearGradient><radialGradient id="sodium" cx="0.5" cy="0.5" r="0.5"><stop offset="0" stop-color="#C8861E" stop-opacity="0.5"/><stop offset="1" stop-color="#C8861E" stop-opacity="0"/></radialGradient></defs><rect x="0" y="0" width="1920" height="1080" fill="#13171A"/><rect x="0" y="0" width="1920" height="240" fill="#1A2023"/><rect x="0" y="840" width="1920" height="240" fill="#101417"/><rect x="120" y="300" width="280" height="420" fill="#1C2326"/><rect x="1520" y="300" width="280" height="420" fill="#1C2326"/><rect x="560" y="60" width="800" height="64" fill="#D6CCAE" opacity="0.95"/><text x="600" y="102" font-family="Microsoft YaHei" font-size="26" fill="#26201A" text-anchor="start" font-weight="bold">全员到齐 4/4</text><text x="1320" y="102" font-family="Microsoft YaHei" font-size="18" fill="#4A4136" text-anchor="end">票据条</text><rect x="574" y="236" width="800" height="660" fill="#000" opacity="0.45"/><rect x="560" y="220" width="800" height="660" fill="url(#paperg)"/><rect x="560" y="220" width="800" height="64" fill="#3F5F5C"/><text x="588" y="263" font-family="KaiTi,FangSong" font-size="30" fill="#D6CCAE" text-anchor="start" letter-spacing="12" font-weight="bold">派 车 单</text><text x="1336" y="261" font-family="Consolas,Microsoft YaHei" font-size="18" fill="#9DB5AE" text-anchor="end">表 BC-07</text><text x="600" y="360" font-family="Microsoft YaHei" font-size="28" fill="#26201A" text-anchor="start" font-weight="bold">委托：「真实海岸」生态柱回收</text><text x="600" y="404" font-family="Microsoft YaHei" font-size="22" fill="#4A4136" text-anchor="start">地点：地球海岸壹号 · 烂尾预售楼</text><line x1="600" y1="440" x2="1320" y2="440" stroke="#8A7F63" stroke-width="2"/><text x="620" y="496" font-family="Consolas,Microsoft YaHei" font-size="20" fill="#4A4136" text-anchor="start">01</text><text x="680" y="496" font-family="Microsoft YaHei" font-size="24" fill="#26201A" text-anchor="start">老王（负责）</text><text x="1300" y="496" font-family="Microsoft YaHei" font-size="20" fill="#3F5F5C" text-anchor="end">已就位</text><text x="620" y="548" font-family="Consolas,Microsoft YaHei" font-size="20" fill="#4A4136" text-anchor="start">02</text><text x="680" y="548" font-family="Microsoft YaHei" font-size="24" fill="#26201A" text-anchor="start">Agent 2</text><text x="1300" y="548" font-family="Microsoft YaHei" font-size="20" fill="#3F5F5C" text-anchor="end">已就位</text><text x="620" y="600" font-family="Consolas,Microsoft YaHei" font-size="20" fill="#4A4136" text-anchor="start">03</text><text x="680" y="600" font-family="Microsoft YaHei" font-size="24" fill="#26201A" text-anchor="start">Agent 3</text><text x="1300" y="600" font-family="Microsoft YaHei" font-size="20" fill="#3F5F5C" text-anchor="end">已就位</text><text x="620" y="652" font-family="Consolas,Microsoft YaHei" font-size="20" fill="#4A4136" text-anchor="start">04</text><text x="680" y="652" font-family="Microsoft YaHei" font-size="24" fill="#26201A" text-anchor="start">Agent 4</text><text x="1300" y="652" font-family="Microsoft YaHei" font-size="20" fill="#3F5F5C" text-anchor="end">已就位</text><line x1="600" y1="730" x2="1320" y2="730" stroke="#8A7F63" stroke-width="2"/><text x="600" y="790" font-family="Microsoft YaHei" font-size="28" fill="#26201A" text-anchor="start" font-weight="bold">[ 空格 ] 房主落章，签发派车</text><text x="600" y="830" font-family="Microsoft YaHei" font-size="18" fill="#4A4136" text-anchor="start">签发后即刻出发，未上车者将被留下</text><g transform="translate(1120,756) rotate(-8)" opacity="0.8"><rect x="0" y="0" width="120" height="56" fill="none" stroke="#C23A2B" stroke-width="5" /><text x="60.0" y="38.8" font-family="KaiTi,FangSong" font-size="30" fill="#C23A2B" text-anchor="middle">待发</text></g></svg>