<svg xmlns="http://www.w3.org/2000/svg" width="1920" height="1080" viewBox="0 0 1920 1080"><defs><linearGradient id="olive" x1="0" y1="0" x2="0" y2="1"><stop offset="0" stop-color="#222B22"/><stop offset="1" stop-color="#181F18"/></linearGradient><linearGradient id="paperg" x1="0" y1="0" x2="0" y2="1"><stop offset="0" stop-color="#CFC4A4"/><stop offset="1" stop-color="#B8AD8E"/></linearGradient><radialGradient id="sodium" cx="0.5" cy="0.5" r="0.5"><stop offset="0" stop-color="#C8861E" stop-opacity="0.5"/><stop offset="1" stop-color="#C8861E" stop-opacity="0"/></radialGradient></defs><rect x="0" y="0" width="1920" height="1080" fill="#13171A"/><rect x="0" y="0" width="1920" height="240" fill="#1A2023"/><rect x="0" y="840" width="1920" height="240" fill="#101417"/><rect x="120" y="300" width="280" height="420" fill="#1C2326"/><rect x="1520" y="300" width="280" height="420" fill="#1C2326"/><rect x="0" y="0" width="1920" height="1080" fill="#000" opacity="0.55"/><rect x="574" y="216" width="800" height="640" fill="#000" opacity="0.45"/><rect x="560" y="200" width="800" height="640" fill="url(#paperg)"/><rect x="560" y="200" width="800" height="64" fill="#3F5F5C"/><text x="588" y="243" font-family="KaiTi,FangSong" font-size="30" fill="#D6CCAE" text-anchor="start" letter-spacing="12" font-weight="bold">提前收工申请单</text><text x="1336" y="241" font-family="Consolas,Microsoft YaHei" font-size="18" fill="#9DB5AE" text-anchor="end">表 BC-08</text><text x="600" y="340" font-family="Microsoft YaHei" font-size="26" fill="#26201A" text-anchor="start" font-weight="bold">目标未取得 —— 本次出勤按空跑折算</text><line x1="600" y1="380" x2="1320" y2="380" stroke="#8A7F63" stroke-width="2"/><text x="600" y="436" font-family="Microsoft YaHei" font-size="24" fill="#26201A" text-anchor="start">条款 B-2 折算预估：</text><text x="1320" y="436" font-family="Microsoft YaHei" font-size="30" fill="#C23A2B" text-anchor="end" font-weight="bold">60G</text><text x="600" y="478" font-family="Microsoft YaHei" font-size="18" fill="#4A4136" text-anchor="start">（含出勤补贴，扣除油费与调度费）</text><line x1="600" y1="520" x2="1320" y2="520" stroke="#8A7F63" stroke-width="2"/><text x="600" y="580" font-family="Microsoft YaHei" font-size="26" fill="#26201A" text-anchor="start" font-weight="bold">房主签字：按住 [E] 1.2 秒</text><rect x="600" y="610" width="720" height="18" fill="#DDD2B0" stroke="#8A7F63" stroke-width="2" /><rect x="600" y="610" width="288" height="18" fill="#3F5F5C"/><text x="600" y="680" font-family="Microsoft YaHei" font-size="22" fill="#4A4136" text-anchor="start">[Esc] 撤回申请</text><text x="600" y="760" font-family="Microsoft YaHei" font-size="18" fill="#6B6149" text-anchor="start">队友视角：票据条附加行「房主正在填写收工申请…」</text></svg>