<svg xmlns="http://www.w3.org/2000/svg" width="1920" height="1080" viewBox="0 0 1920 1080"><defs>
  <radialGradient id="vig" cx="0.5" cy="0.46" r="0.75">
    <stop offset="0.45" stop-color="#000" stop-opacity="0"/>
    <stop offset="1" stop-color="#000" stop-opacity="0.72"/>
  </radialGradient>
  <radialGradient id="lamp" cx="0.5" cy="0.5" r="0.5">
    <stop offset="0" stop-color="#FF9820" stop-opacity="0.34"/>
    <stop offset="0.55" stop-color="#9A6418" stop-opacity="0.10"/>
    <stop offset="1" stop-color="#FF9820" stop-opacity="0"/>
  </radialGradient>
  <radialGradient id="crtglow" cx="0.5" cy="0.5" r="0.6">
    <stop offset="0" stop-color="#6CFF5F" stop-opacity="0.16"/>
    <stop offset="1" stop-color="#6CFF5F" stop-opacity="0"/>
  </radialGradient>
  <linearGradient id="paperg" x1="0" y1="0" x2="0" y2="1">
    <stop offset="0" stop-color="#CFC4A4"/><stop offset="1" stop-color="#B8AD8E"/>
  </linearGradient>
  <filter id="grain"><feTurbulence type="fractalNoise" baseFrequency="0.9" numOctaves="2" stitchTiles="stitch"/>
    <feColorMatrix type="matrix" values="0 0 0 0 0  0 0 0 0 0  0 0 0 0 0  0 0 0 0.5 0"/></filter>
</defs><rect x="0" y="0" width="1920" height="1080" fill="#14130F"/><rect x="0" y="0" width="1920" height="230" fill="#1B1A15"/><rect x="0" y="850" width="1920" height="230" fill="#0F0E0B"/><rect x="110" y="290" width="300" height="440" fill="#1E1D17"/><rect x="1510" y="290" width="300" height="440" fill="#1E1D17"/><line x1="0" y1="230" x2="1920" y2="230" stroke="#000" stroke-width="3" opacity="0.5"/><ellipse cx="960" cy="150" rx="320" ry="90" fill="url(#lamp)" opacity="0.6"/><rect x="0" y="0" width="1920" height="1080" fill="url(#vig)"/><rect x="0" y="0" width="1920" height="1080" filter="url(#grain)" opacity="0.05"/><rect x="0" y="0" width="1920" height="1080" fill="#000" opacity="0.6"/><rect x="574" y="216" width="800" height="640" fill="#000" opacity="0.5"/><rect x="560" y="200" width="800" height="640" fill="url(#paperg)"/><rect x="560" y="200" width="800" height="60" fill="#3F5F5C"/><text x="588" y="240" font-family="'Liberation Sans','Arial','Helvetica Neue',sans-serif" font-size="26" fill="#D6CCAE" text-anchor="start" letter-spacing="8" font-weight="bold">EARLY CLOCK-OUT REQUEST</text><text x="1336" y="239" font-family="'Consolas','Courier New',monospace" font-size="17" fill="#A9C0B8" text-anchor="end">FORM BC-08</text><text x="600" y="338" font-family="'Liberation Sans','Arial','Helvetica Neue',sans-serif" font-size="24" fill="#26201A" text-anchor="start" font-weight="bold">Objective not secured — paid as an empty run.</text><line x1="600" y1="376" x2="1320" y2="376" stroke="#8A7F63" stroke-width="2"/><text x="600" y="434" font-family="'Liberation Sans','Arial','Helvetica Neue',sans-serif" font-size="23" fill="#26201A" text-anchor="start">Clause B-2 estimate:</text><text x="1320" y="434" font-family="'Liberation Sans','Arial','Helvetica Neue',sans-serif" font-size="30" fill="#C23A2B" text-anchor="end" font-weight="bold">60G</text><text x="600" y="474" font-family="'Liberation Sans','Arial','Helvetica Neue',sans-serif" font-size="18" fill="#4A4136" text-anchor="start">(attendance stipend, minus fuel &amp; dispatch fee)</text><line x1="600" y1="516" x2="1320" y2="516" stroke="#8A7F63" stroke-width="2"/><text x="600" y="576" font-family="'Liberation Sans','Arial','Helvetica Neue',sans-serif" font-size="25" fill="#26201A" text-anchor="start" font-weight="bold">Host signs: HOLD [E] for 1.2s</text><rect x="600" y="606" width="720" height="18" fill="#B8AD8E" stroke="#8A7F63" stroke-width="2"/><rect x="600" y="606" width="288" height="18" fill="#3F5F5C"/><text x="600" y="676" font-family="'Liberation Sans','Arial','Helvetica Neue',sans-serif" font-size="21" fill="#4A4136" text-anchor="start">[ESC]  CANCEL REQUEST</text><text x="600" y="760" font-family="'Liberation Sans','Arial','Helvetica Neue',sans-serif" font-size="18" fill="#6B6149" text-anchor="start">Teammates see: "Host is filing an early clock-out…"</text></svg>