<svg xmlns="http://www.w3.org/2000/svg" width="1920" height="1080" viewBox="0 0 1920 1080"><defs><linearGradient id="olive" x1="0" y1="0" x2="0" y2="1"><stop offset="0" stop-color="#222B22"/><stop offset="1" stop-color="#181F18"/></linearGradient><linearGradient id="paperg" x1="0" y1="0" x2="0" y2="1"><stop offset="0" stop-color="#CFC4A4"/><stop offset="1" stop-color="#B8AD8E"/></linearGradient><radialGradient id="sodium" cx="0.5" cy="0.5" r="0.5"><stop offset="0" stop-color="#C8861E" stop-opacity="0.5"/><stop offset="1" stop-color="#C8861E" stop-opacity="0"/></radialGradient></defs><rect x="0" y="0" width="1920" height="1080" fill="#13171A"/><rect x="0" y="0" width="1920" height="240" fill="#1A2023"/><rect x="0" y="840" width="1920" height="240" fill="#101417"/><rect x="120" y="300" width="280" height="420" fill="#1C2326"/><rect x="1520" y="300" width="280" height="420" fill="#1C2326"/><rect x="0" y="0" width="1920" height="1080" fill="#000" opacity="0.55"/><rect x="534" y="136" width="880" height="800" fill="#000" opacity="0.45"/><rect x="520" y="120" width="880" height="800" fill="url(#paperg)"/><rect x="520" y="120" width="880" height="64" fill="#3F5F5C"/><text x="548" y="163" font-family="KaiTi,FangSong" font-size="30" fill="#D6CCAE" text-anchor="start" letter-spacing="12" font-weight="bold">委 托 结 算 单</text><text x="1376" y="161" font-family="Consolas,Microsoft YaHei" font-size="18" fill="#9DB5AE" text-anchor="end">BC-2098-0007</text><text x="560" y="260" font-family="Microsoft YaHei" font-size="26" fill="#26201A" text-anchor="start" font-weight="bold">委托：「真实海岸」生态柱回收</text><text x="560" y="300" font-family="Microsoft YaHei" font-size="20" fill="#4A4136" text-anchor="start">完整度：91%　·　全员返岗</text><line x1="560" y1="336" x2="1360" y2="336" stroke="#8A7F63" stroke-width="2"/><text x="580" y="392" font-family="Microsoft YaHei" font-size="24" fill="#26201A" text-anchor="start">委托报酬</text><text x="1340" y="392" font-family="Microsoft YaHei" font-size="24" fill="#26201A" text-anchor="end" font-weight="bold">300G</text><line x1="560" y1="410" x2="1360" y2="410" stroke="#A2967A" stroke-width="1.5"/><text x="580" y="456" font-family="Microsoft YaHei" font-size="24" fill="#26201A" text-anchor="start">条款 C-7 · 搬运磕碰扣损 ×3</text><text x="1340" y="456" font-family="Microsoft YaHei" font-size="24" fill="#8A5A50" text-anchor="end" font-weight="bold">−27G</text><line x1="560" y1="474" x2="1360" y2="474" stroke="#A2967A" stroke-width="1.5"/><text x="580" y="530" font-family="Microsoft YaHei" font-size="30" fill="#26201A" text-anchor="start" font-weight="bold">实付</text><text x="1340" y="530" font-family="Microsoft YaHei" font-size="44" fill="#26201A" text-anchor="end" font-weight="bold">273G</text><line x1="560" y1="560" x2="1360" y2="560" stroke="#8A7F63" stroke-width="3"/><text x="560" y="630" font-family="Microsoft YaHei" font-size="20" fill="#4A4136" text-anchor="start">客户使用备注：</text><text x="560" y="668" font-family="Microsoft YaHei" font-size="22" fill="#4A4136" text-anchor="start" font-style="italic">“柱体状态良好。已陈列于火星新居客厅，邻居均表示羡慕。”</text><g transform="translate(1130,710) rotate(-8)" opacity="0.8"><rect x="0" y="0" width="170" height="60" fill="none" stroke="#C23A2B" stroke-width="5" /><text x="85.0" y="40.8" font-family="KaiTi,FangSong" font-size="30" fill="#C23A2B" text-anchor="middle">已结清</text></g><text x="560" y="880" font-family="Microsoft YaHei" font-size="20" fill="#4A4136" text-anchor="start">[E] 收起　·　[Tab] 在途重看　·　到站自动收起</text></svg>