<svg xmlns="http://www.w3.org/2000/svg" width="1920" height="1080" viewBox="0 0 1920 1080"><defs>
  <radialGradient id="vig" cx="0.5" cy="0.46" r="0.78">
    <stop offset="0.4" stop-color="#000" stop-opacity="0"/><stop offset="1" stop-color="#000" stop-opacity="0.78"/></radialGradient>
  <linearGradient id="window" x1="0" y1="0" x2="0" y2="1">
    <stop offset="0" stop-color="#6E7A82"/><stop offset="0.5" stop-color="#9AA4A2"/><stop offset="1" stop-color="#5A625E"/></linearGradient>
  <linearGradient id="dust" x1="0" y1="0" x2="1" y2="0">
    <stop offset="0" stop-color="#C7C2B0" stop-opacity="0.5"/><stop offset="0.5" stop-color="#C7C2B0" stop-opacity="0.12"/>
    <stop offset="1" stop-color="#C7C2B0" stop-opacity="0.42"/></linearGradient>
  <linearGradient id="paperg" x1="0" y1="0" x2="0" y2="1">
    <stop offset="0" stop-color="#CFC4A4"/><stop offset="1" stop-color="#B8AD8E"/></linearGradient>
  <radialGradient id="amberp" cx="0.5" cy="0.5" r="0.5">
    <stop offset="0" stop-color="#FF9820" stop-opacity="0.22"/><stop offset="1" stop-color="#FF9820" stop-opacity="0"/></radialGradient>
  <filter id="grain"><feTurbulence type="fractalNoise" baseFrequency="0.9" numOctaves="2" stitchTiles="stitch"/>
    <feColorMatrix type="matrix" values="0 0 0 0 0 0 0 0 0 0 0 0 0 0 0 0 0 0 0.5 0"/></filter>
</defs><rect x="0" y="0" width="1920" height="1080" fill="#1A1A17"/><rect x="220" y="250" width="1480" height="470" fill="url(#window)"/><g opacity="0.5"><polygon points="552.2,680 558.44,630.86 564.68,680" fill="#0E0E0C"/><polygon points="570.92,680 563.12,630.86 558.44,680" fill="#0E0E0C"/><rect x="542.06" y="588.74" width="35.88" height="46.800000000000004" fill="#3A352C"/><rect x="542.06" y="588.74" width="35.88" height="11.700000000000001" fill="#0E0E0C"/><rect x="535.8199999999999" y="593.42" width="9.36" height="35.1" fill="#15140F"/><circle cx="560" cy="579.38" r="11.700000000000001" fill="#0E0E0C"/></g><g opacity="0.5"><polygon points="751.4,680 758.28,625.82 765.16,680" fill="#0E0E0C"/><polygon points="772.04,680 763.44,625.82 758.28,680" fill="#0E0E0C"/><rect x="740.22" y="579.38" width="39.56" height="51.6" fill="#3A352C"/><rect x="740.22" y="579.38" width="39.56" height="12.9" fill="#0E0E0C"/><rect x="733.34" y="584.54" width="10.32" height="38.699999999999996" fill="#15140F"/><circle cx="760" cy="569.06" r="12.9" fill="#0E0E0C"/></g><g opacity="1.0"><polygon points="968.2,680 977.64,605.66 987.08,680" fill="#0A0A08"/><polygon points="996.52,680 984.72,605.66 977.64,680" fill="#0A0A08"/><rect x="952.86" y="541.94" width="54.279999999999994" height="70.8" fill="#8C5937"/><rect x="952.86" y="541.94" width="54.279999999999994" height="17.7" fill="#0A0A08"/><rect x="943.42" y="549.02" width="14.16" height="53.1" fill="#15140F"/><circle cx="980" cy="527.78" r="17.7" fill="#0A0A08"/></g><g opacity="0.5"><polygon points="1231.4,680 1238.28,625.82 1245.16,680" fill="#0E0E0C"/><polygon points="1252.04,680 1243.44,625.82 1238.28,680" fill="#0E0E0C"/><rect x="1220.22" y="579.38" width="39.56" height="51.6" fill="#3A352C"/><rect x="1220.22" y="579.38" width="39.56" height="12.9" fill="#0E0E0C"/><rect x="1213.34" y="584.54" width="10.32" height="38.699999999999996" fill="#15140F"/><circle cx="1240" cy="569.06" r="12.9" fill="#0E0E0C"/></g><g opacity="0.5"><polygon points="1422.2,680 1428.44,630.86 1434.68,680" fill="#0E0E0C"/><polygon points="1440.92,680 1433.12,630.86 1428.44,680" fill="#0E0E0C"/><rect x="1412.06" y="588.74" width="35.88" height="46.800000000000004" fill="#3A352C"/><rect x="1412.06" y="588.74" width="35.88" height="11.700000000000001" fill="#0E0E0C"/><rect x="1405.82" y="593.42" width="9.36" height="35.1" fill="#15140F"/><circle cx="1430" cy="579.38" r="11.700000000000001" fill="#0E0E0C"/></g><rect x="220" y="250" width="1480" height="470" fill="url(#dust)"/><line x1="260" y1="250" x2="220" y2="720" stroke="#D8D2C2" stroke-width="1" opacity="0.06"/><line x1="350" y1="250" x2="310" y2="720" stroke="#D8D2C2" stroke-width="1" opacity="0.06"/><line x1="440" y1="250" x2="400" y2="720" stroke="#D8D2C2" stroke-width="1" opacity="0.06"/><line x1="530" y1="250" x2="490" y2="720" stroke="#D8D2C2" stroke-width="1" opacity="0.06"/><line x1="620" y1="250" x2="580" y2="720" stroke="#D8D2C2" stroke-width="1" opacity="0.06"/><line x1="710" y1="250" x2="670" y2="720" stroke="#D8D2C2" stroke-width="1" opacity="0.06"/><line x1="800" y1="250" x2="760" y2="720" stroke="#D8D2C2" stroke-width="1" opacity="0.06"/><line x1="890" y1="250" x2="850" y2="720" stroke="#D8D2C2" stroke-width="1" opacity="0.06"/><line x1="980" y1="250" x2="940" y2="720" stroke="#D8D2C2" stroke-width="1" opacity="0.06"/><line x1="1070" y1="250" x2="1030" y2="720" stroke="#D8D2C2" stroke-width="1" opacity="0.06"/><line x1="1160" y1="250" x2="1120" y2="720" stroke="#D8D2C2" stroke-width="1" opacity="0.06"/><line x1="1250" y1="250" x2="1210" y2="720" stroke="#D8D2C2" stroke-width="1" opacity="0.06"/><line x1="1340" y1="250" x2="1300" y2="720" stroke="#D8D2C2" stroke-width="1" opacity="0.06"/><line x1="1430" y1="250" x2="1390" y2="720" stroke="#D8D2C2" stroke-width="1" opacity="0.06"/><line x1="1520" y1="250" x2="1480" y2="720" stroke="#D8D2C2" stroke-width="1" opacity="0.06"/><line x1="1610" y1="250" x2="1570" y2="720" stroke="#D8D2C2" stroke-width="1" opacity="0.06"/><rect x="220" y="250" width="1480" height="470" fill="none" stroke="#0C0C0A" stroke-width="14"/><line x1="960" y1="250" x2="960" y2="720" stroke="#0C0C0A" stroke-width="10"/><rect x="206" y="236" width="1508" height="16" fill="#15140F"/><rect x="206" y="718" width="1508" height="20" fill="#15140F"/><rect x="0" y="0" width="1920" height="236" fill="#161512"/><rect x="0" y="738" width="1920" height="342" fill="#121110"/><ellipse cx="960" cy="1000" rx="720" ry="220" fill="url(#amberp)"/><line x1="880" y1="280" x2="880" y2="320" stroke="#FF9820" stroke-width="4"/><line x1="880" y1="280" x2="920" y2="280" stroke="#FF9820" stroke-width="4"/><line x1="1080" y1="280" x2="1080" y2="320" stroke="#FF9820" stroke-width="4"/><line x1="1080" y1="280" x2="1040" y2="280" stroke="#FF9820" stroke-width="4"/><line x1="880" y1="660" x2="880" y2="620" stroke="#FF9820" stroke-width="4"/><line x1="880" y1="660" x2="920" y2="660" stroke="#FF9820" stroke-width="4"/><line x1="1080" y1="660" x2="1080" y2="620" stroke="#FF9820" stroke-width="4"/><line x1="1080" y1="660" x2="1040" y2="660" stroke="#FF9820" stroke-width="4"/><rect x="220" y="70" width="1480" height="96" fill="#1C1B16"/><line x1="220" y1="166" x2="1700" y2="166" stroke="#9A6418" stroke-width="2" opacity="0.4"/><text x="252" y="118" font-family="'Liberation Sans','Arial',sans-serif" font-size="34" fill="#D6CCAE" text-anchor="start" letter-spacing="6" font-weight="bold">DISPATCH ELIGIBILITY WINDOW</text><text x="254" y="150" font-family="'Liberation Sans','Arial',sans-serif" font-size="18" fill="#9A917A" text-anchor="start" letter-spacing="4">LABOR REVIEW BOOTH · MARS RELAY · YOU PICK ONE, THEY ALSO PICK YOU</text><text x="1668" y="124" font-family="'Consolas','Courier New',monospace" font-size="24" fill="#FFAB40" text-anchor="end">CAND. 1 / 5</text><rect x="600" y="820" width="720" height="150" fill="url(#paperg)"/><rect x="600" y="820" width="720" height="44" fill="#3F5F5C"/><text x="624" y="850" font-family="'Liberation Sans','Arial',sans-serif" font-size="20" fill="#D6CCAE" text-anchor="start" letter-spacing="6" font-weight="bold">ASSIGNMENT CHIT</text><text x="1296" y="849" font-family="'Consolas','Courier New',monospace" font-size="15" fill="#A9C0B8" text-anchor="end">FORM BC-04</text><rect x="628" y="888" width="56" height="56" fill="#8C5937"/><rect x="628" y="888" width="56" height="56" fill="none" stroke="#8A7F63" stroke-width="2"/><text x="704" y="912" font-family="'Liberation Sans','Arial',sans-serif" font-size="24" fill="#26201A" text-anchor="start" font-weight="bold">CANDIDATE 01 · "COPPER" VEST</text><text x="704" y="944" font-family="'Liberation Sans','Arial',sans-serif" font-size="17" fill="#4A4136" text-anchor="start">Cleared for surface work · no prior incidents on file</text><g transform="translate(1160,884) rotate(-9)" opacity="0.8"><rect x="0" y="0" width="130" height="54" fill="none" stroke="#C23A2B" stroke-width="4"/><text x="65" y="35" font-family="'Liberation Sans','Arial',sans-serif" font-size="22" fill="#C23A2B" text-anchor="middle" font-weight="bold">ELIGIBLE</text></g><text x="960" y="1024" font-family="'Liberation Sans','Arial',sans-serif" font-size="20" fill="#9A917A" text-anchor="middle" letter-spacing="2">‹ ›  CYCLE CANDIDATE     ·     [E]  STAMP &amp; ASSIGN     ·     [ESC]  KEEP CURRENT</text><rect x="0" y="0" width="1920" height="1080" fill="url(#vig)"/><rect x="0" y="0" width="1920" height="1080" filter="url(#grain)" opacity="0.06"/></svg>