<svg xmlns="http://www.w3.org/2000/svg" width="1920" height="1080" viewBox="0 0 1920 1080"><defs>
 <radialGradient id="vig" cx="0.5" cy="0.5" r="0.82"><stop offset="0.32" stop-color="#000" stop-opacity="0"/><stop offset="1" stop-color="#000" stop-opacity="0.82"/></radialGradient>
 <linearGradient id="sky" x1="0" y1="0" x2="0" y2="1"><stop offset="0" stop-color="#5A636A"/><stop offset="0.5" stop-color="#727A7C"/><stop offset="0.78" stop-color="#5C6360"/><stop offset="1" stop-color="#3E443F"/></linearGradient>
 <linearGradient id="fog" x1="0" y1="0" x2="0" y2="1"><stop offset="0" stop-color="#838A86" stop-opacity="0"/><stop offset="1" stop-color="#9098920" stop-opacity="0.7"/></linearGradient>
 <linearGradient id="dust" x1="0" y1="0" x2="1" y2="0.3"><stop offset="0" stop-color="#C6C9C0" stop-opacity="0.6"/><stop offset="0.5" stop-color="#C6C9C0" stop-opacity="0.14"/><stop offset="1" stop-color="#C6C9C0" stop-opacity="0.55"/></linearGradient>
 <radialGradient id="warm" cx="0.42" cy="0.92" r="0.95"><stop offset="0" stop-color="#FFC062" stop-opacity="0.42"/><stop offset="0.5" stop-color="#9A6418" stop-opacity="0.16"/><stop offset="1" stop-color="#FFC062" stop-opacity="0"/></radialGradient>
 <radialGradient id="chand" cx="0.5" cy="0.3" r="0.7"><stop offset="0" stop-color="#FFE0A0" stop-opacity="0.5"/><stop offset="1" stop-color="#FFE0A0" stop-opacity="0"/></radialGradient>
 <linearGradient id="shaft" x1="0" y1="0" x2="0" y2="1"><stop offset="0" stop-color="#FFE6B0" stop-opacity="0.16"/><stop offset="1" stop-color="#FFE6B0" stop-opacity="0"/></linearGradient>
 <linearGradient id="paperg" x1="0" y1="0" x2="0" y2="1"><stop offset="0" stop-color="#CFC4A4"/><stop offset="1" stop-color="#B8AD8E"/></linearGradient>
 <filter id="grain"><feTurbulence type="fractalNoise" baseFrequency="0.9" numOctaves="2" stitchTiles="stitch"/><feColorMatrix type="matrix" values="0 0 0 0 0 0 0 0 0 0 0 0 0 0 0 0 0 0 0.5 0"/></filter></defs><rect x="0" y="0" width="1920" height="1080" fill="#26190F"/><rect x="0" y="0" width="1920" height="1080" fill="url(#warm)"/><rect x="0" y="0" width="1920" height="40" fill="#1A1009"/><line x1="0" y1="40" x2="1920" y2="40" stroke="#C8A24A" stroke-width="3" opacity="0.7"/><rect x="60" y="70" width="210" height="560" fill="#3A2616" opacity="0.35"/><rect x="60" y="70" width="210" height="560" fill="none" stroke="#C8A24A" stroke-width="1.5"/><rect x="360" y="70" width="210" height="560" fill="#3A2616" opacity="0.35"/><rect x="360" y="70" width="210" height="560" fill="none" stroke="#C8A24A" stroke-width="1.5"/><rect x="660" y="70" width="210" height="560" fill="#3A2616" opacity="0.35"/><rect x="660" y="70" width="210" height="560" fill="none" stroke="#C8A24A" stroke-width="1.5"/><rect x="960" y="70" width="210" height="560" fill="#3A2616" opacity="0.35"/><rect x="960" y="70" width="210" height="560" fill="none" stroke="#C8A24A" stroke-width="1.5"/><rect x="1260" y="70" width="210" height="560" fill="#3A2616" opacity="0.35"/><rect x="1260" y="70" width="210" height="560" fill="none" stroke="#C8A24A" stroke-width="1.5"/><rect x="1560" y="70" width="210" height="560" fill="#3A2616" opacity="0.35"/><rect x="1560" y="70" width="210" height="560" fill="none" stroke="#C8A24A" stroke-width="1.5"/><rect x="1860" y="70" width="210" height="560" fill="#3A2616" opacity="0.35"/><rect x="1860" y="70" width="210" height="560" fill="none" stroke="#C8A24A" stroke-width="1.5"/><rect x="0" y="910" width="1920" height="170" fill="#3E2A18"/><line x1="0" y1="910" x2="1920" y2="910" stroke="#C8A24A" stroke-width="3" opacity="0.6"/><line x1="80" y1="910" x2="80" y2="1080" stroke="#241608" stroke-width="2"/><line x1="320" y1="910" x2="320" y2="1080" stroke="#241608" stroke-width="2"/><line x1="560" y1="910" x2="560" y2="1080" stroke="#241608" stroke-width="2"/><line x1="800" y1="910" x2="800" y2="1080" stroke="#241608" stroke-width="2"/><line x1="1040" y1="910" x2="1040" y2="1080" stroke="#241608" stroke-width="2"/><line x1="1280" y1="910" x2="1280" y2="1080" stroke="#241608" stroke-width="2"/><line x1="1520" y1="910" x2="1520" y2="1080" stroke="#241608" stroke-width="2"/><line x1="1760" y1="910" x2="1760" y2="1080" stroke="#241608" stroke-width="2"/><ellipse cx="960" cy="1010" rx="900" ry="150" fill="#4A2E16" opacity="0.6"/><ellipse cx="960" cy="150" rx="260" ry="150" fill="url(#chand)"/><line x1="960" y1="0" x2="960" y2="70" stroke="#C8A24A" stroke-width="3" opacity="0.7"/><circle cx="870" cy="98" r="7" fill="#E4C77A"/><line x1="960" y1="70" x2="870" y2="98" stroke="#C8A24A" stroke-width="2" opacity="0.6"/><circle cx="915" cy="98" r="7" fill="#E4C77A"/><line x1="960" y1="70" x2="915" y2="98" stroke="#C8A24A" stroke-width="2" opacity="0.6"/><circle cx="960" cy="98" r="7" fill="#E4C77A"/><line x1="960" y1="70" x2="960" y2="98" stroke="#C8A24A" stroke-width="2" opacity="0.6"/><circle cx="1005" cy="98" r="7" fill="#E4C77A"/><line x1="960" y1="70" x2="1005" y2="98" stroke="#C8A24A" stroke-width="2" opacity="0.6"/><circle cx="1050" cy="98" r="7" fill="#E4C77A"/><line x1="960" y1="70" x2="1050" y2="98" stroke="#C8A24A" stroke-width="2" opacity="0.6"/><path d="M 860,96 Q 960,150 1060,96" fill="none" opacity="0.6" stroke="#C8A24A" stroke-width="3"/><rect x="90" y="200" width="150" height="200" fill="#1C120A" stroke="#C8A24A" stroke-width="6"/><rect x="108" y="218" width="114" height="164" fill="#3A2A1C"/><path d="M 108,360 L 150,300 L 180,340 L 222,290 L 222,382 L 108,382 Z" fill="#241A12"/><rect x="270" y="110" width="1380" height="670" fill="#160E07" stroke="#C8A24A" stroke-width="5"/><rect x="300" y="140" width="1320" height="610" fill="url(#sky)"/><rect x="360" y="380" width="70" height="300" fill="#4A504C" opacity="0.6"/><rect x="450" y="500" width="130" height="180" fill="#4A504C" opacity="0.6"/><rect x="620" y="320" width="60" height="360" fill="#4A504C" opacity="0.6"/><rect x="700" y="450" width="150" height="230" fill="#4A504C" opacity="0.6"/><rect x="900" y="380" width="90" height="300" fill="#4A504C" opacity="0.6"/><rect x="1040" y="480" width="120" height="200" fill="#4A504C" opacity="0.6"/><rect x="1180" y="340" width="70" height="340" fill="#4A504C" opacity="0.6"/><rect x="1320" y="470" width="140" height="210" fill="#4A504C" opacity="0.6"/><rect x="1470" y="390" width="80" height="290" fill="#4A504C" opacity="0.6"/><line x1="640" y1="320" x2="640" y2="200" stroke="#3E443F" stroke-width="6"/><line x1="640" y1="220" x2="720" y2="260" stroke="#3E443F" stroke-width="5"/><rect x="300" y="600" width="1320" height="150" fill="url(#fog)"/><rect x="300" y="140" width="1320" height="610" fill="url(#dust)"/><line x1="260" y1="140" x2="170" y2="750" stroke="#D6D8CE" stroke-width="1.5" opacity="0.1"/><line x1="330" y1="140" x2="240" y2="750" stroke="#D6D8CE" stroke-width="1.5" opacity="0.1"/><line x1="400" y1="140" x2="310" y2="750" stroke="#D6D8CE" stroke-width="1.5" opacity="0.1"/><line x1="470" y1="140" x2="380" y2="750" stroke="#D6D8CE" stroke-width="1.5" opacity="0.1"/><line x1="540" y1="140" x2="450" y2="750" stroke="#D6D8CE" stroke-width="1.5" opacity="0.1"/><line x1="610" y1="140" x2="520" y2="750" stroke="#D6D8CE" stroke-width="1.5" opacity="0.1"/><line x1="680" y1="140" x2="590" y2="750" stroke="#D6D8CE" stroke-width="1.5" opacity="0.1"/><line x1="750" y1="140" x2="660" y2="750" stroke="#D6D8CE" stroke-width="1.5" opacity="0.1"/><line x1="820" y1="140" x2="730" y2="750" stroke="#D6D8CE" stroke-width="1.5" opacity="0.1"/><line x1="890" y1="140" x2="800" y2="750" stroke="#D6D8CE" stroke-width="1.5" opacity="0.1"/><line x1="960" y1="140" x2="870" y2="750" stroke="#D6D8CE" stroke-width="1.5" opacity="0.1"/><line x1="1030" y1="140" x2="940" y2="750" stroke="#D6D8CE" stroke-width="1.5" opacity="0.1"/><line x1="1100" y1="140" x2="1010" y2="750" stroke="#D6D8CE" stroke-width="1.5" opacity="0.1"/><line x1="1170" y1="140" x2="1080" y2="750" stroke="#D6D8CE" stroke-width="1.5" opacity="0.1"/><line x1="1240" y1="140" x2="1150" y2="750" stroke="#D6D8CE" stroke-width="1.5" opacity="0.1"/><line x1="1310" y1="140" x2="1220" y2="750" stroke="#D6D8CE" stroke-width="1.5" opacity="0.1"/><line x1="1380" y1="140" x2="1290" y2="750" stroke="#D6D8CE" stroke-width="1.5" opacity="0.1"/><line x1="1450" y1="140" x2="1360" y2="750" stroke="#D6D8CE" stroke-width="1.5" opacity="0.1"/><line x1="1520" y1="140" x2="1430" y2="750" stroke="#D6D8CE" stroke-width="1.5" opacity="0.1"/><line x1="1590" y1="140" x2="1500" y2="750" stroke="#D6D8CE" stroke-width="1.5" opacity="0.1"/><g opacity="0.46"><path d="M 461.32,638.44 L 460.08,716.56 L 468.76,716.56 L 471.24,638.44 Z" fill="#16171B"/><path d="M 472.48,638.44 L 479.92,716.56 L 487.36,716.56 L 479.92,638.44 Z" fill="#16171B"/><path d="M 457.6,715.32 L 473.72,715.32 L 476.20000000000005,721.52 L 476.20000000000005,724 L 456.36,724 Z" fill="#16171B"/><path d="M 477.44,715.32 L 493.56,715.32 L 496.04,721.52 L 496.04,724 L 476.2,724 Z" fill="#16171B"/><rect x="448.92" y="564.102" width="11.16" height="63.24" fill="#16171B"/><line x1="454.5" y1="565.342" x2="454.5" y2="627.342" stroke="#17181B" stroke-width="0.9299999999999999" opacity="0.7"/><path d="M 460.328,560.382 L 457.6,638.44 L 482.4,638.44 L 482.648,560.382 C 474.96,555.4219999999999 465.04,555.4219999999999 460.328,560.382 Z" fill="#16171B"/><path d="M 453.012,562.862 L 450.532,634.72 L 491.452,634.72 L 488.972,562.862 L 475.3072,559.1419999999999 L 470.992,571.5419999999999 L 466.6768,559.1419999999999 Z" fill="#2E2A22"/><path d="M 479.92,564.102 L 486.12,634.72 L 481.16,637.2 L 474.96,567.822 Z" fill="#16171B"/><rect x="478.68" y="635.96" width="18.6" height="13.64" fill="#16171B"/><line x1="483.64" y1="635.96" x2="483.64" y2="631.0" stroke="#16171B" stroke-width="1.8599999999999999"/><circle cx="470" cy="549.78" r="11.78" fill="#16171B"/><rect x="458.22" y="545.068" width="23.56" height="9.424" fill="#16171B"/><rect x="466.28" y="558.026" width="7.4399999999999995" height="4.96" fill="#16171B"/><line x1="488.972" y1="564.102" x2="488.972" y2="638.44" stroke="#C2C8C0" stroke-width="2" opacity="0.35"/></g><g opacity="0.46"><path d="M 654.36,619.12 L 652.84,714.88 L 663.48,714.88 L 666.52,619.12 Z" fill="#16171B"/><path d="M 668.04,619.12 L 677.16,714.88 L 686.28,714.88 L 677.16,619.12 Z" fill="#16171B"/><path d="M 649.8,713.36 L 669.56,713.36 L 672.5999999999999,720.96 L 672.5999999999999,724 L 648.28,724 Z" fill="#16171B"/><path d="M 674.12,713.36 L 693.88,713.36 L 696.92,720.96 L 696.92,724 L 672.6,724 Z" fill="#16171B"/><rect x="639.16" y="527.996" width="13.68" height="77.52000000000001" fill="#16171B"/><line x1="646.0" y1="529.5160000000001" x2="646.0" y2="605.516" stroke="#17181B" stroke-width="1.1400000000000001" opacity="0.7"/><path d="M 653.144,523.436 L 649.8,619.12 L 680.2,619.12 L 680.5039999999999,523.436 C 671.08,517.356 658.92,517.356 653.144,523.436 Z" fill="#16171B"/><path d="M 644.176,526.476 L 641.1360000000001,614.5600000000001 L 691.296,614.5600000000001 L 688.2560000000001,526.476 L 671.5056000000001,521.916 L 666.216,537.116 L 660.9264000000001,521.916 Z" fill="#2E2A22"/><path d="M 677.16,527.996 L 684.76,614.5600000000001 L 678.68,617.6 L 671.08,532.556 Z" fill="#16171B"/><rect x="678.68" y="610.0" width="13.68" height="18.240000000000002" fill="#16171B"/><rect x="680.96" y="612.28" width="9.120000000000001" height="9.120000000000001" fill="#9A917A" opacity="0.5"/><circle cx="665" cy="510.44" r="14.44" fill="#16171B"/><rect x="650.56" y="506.108" width="28.88" height="3.04" fill="#16171B"/><rect x="677.1600000000001" y="507.552" width="12.996" height="3.8" fill="#16171B"/><rect x="660.44" y="520.548" width="9.120000000000001" height="6.08" fill="#16171B"/><line x1="688.2560000000001" y1="527.996" x2="688.2560000000001" y2="619.12" stroke="#C2C8C0" stroke-width="2" opacity="0.35"/></g><g opacity="1.0"><path d="M 915.44,580.48 L 913.36,711.52 L 927.92,711.52 L 932.08,580.48 Z" fill="#0B0C0D"/><path d="M 934.16,580.48 L 946.64,711.52 L 959.12,711.52 L 946.64,580.48 Z" fill="#0B0C0D"/><path d="M 909.2,709.44 L 936.24,709.44 L 940.4000000000001,719.84 L 940.4000000000001,724 L 907.12,724 Z" fill="#0B0C0D"/><path d="M 942.48,709.44 L 969.52,709.44 L 973.6800000000001,719.84 L 973.6800000000001,724 L 940.4,724 Z" fill="#0B0C0D"/><rect x="894.64" y="455.784" width="18.72" height="106.08000000000001" fill="#0B0C0D"/><line x1="904.0" y1="457.864" x2="904.0" y2="561.864" stroke="#17181B" stroke-width="1.56" opacity="0.7"/><path d="M 913.776,449.544 L 909.2,580.48 L 950.8,580.48 L 951.216,449.544 C 938.32,441.224 921.68,441.224 913.776,449.544 Z" fill="#0B0C0D"/><path d="M 901.504,453.704 L 897.344,574.24 L 965.984,574.24 L 961.8240000000001,453.704 L 938.9024000000001,447.464 L 931.664,468.264 L 924.4256,447.464 Z" fill="#9A6038"/><rect x="899.424" y="472.424" width="64.48" height="5.2" fill="#E8E4D4" opacity="0.9"/><rect x="899.424" y="559.6800000000001" width="64.48" height="5.2" fill="#E8E4D4" opacity="0.85"/><rect x="909.8240000000001" y="459.94399999999996" width="9.36" height="6.24" fill="#C9C2A8" opacity="0.8"/><path d="M 946.64,455.784 L 957.04,574.24 L 948.72,578.4 L 938.32,462.024 Z" fill="#0B0C0D"/><rect x="948.72" y="570.08" width="8.32" height="18.72" fill="#0B0C0D"/><path d="M 957.04,578.4 L 1002.8,611.6800000000001 L 996.56,626.24 L 952.88,586.72 Z" fill="#FFD27A" opacity="0.22"/><path d="M 910.24,435.712 A 19.76 19.76 0 0 1 949.76,435.712 Z" fill="#0B0C0D"/><rect x="905.04" y="433.736" width="49.92" height="5.2" fill="#0B0C0D"/><rect x="910.24" y="421.88" width="39.52" height="4.16" fill="#E8E4D4" opacity="0.85"/><rect x="923.76" y="445.592" width="12.48" height="8.32" fill="#0B0C0D"/><path d="M 927.92,415.12 Q 947.68,421.88 946.64,439.664" fill="none" stroke="#C2C8C0" stroke-width="3.12"/><line x1="961.8240000000001" y1="455.784" x2="963.9040000000001" y2="574.24" stroke="#C2C8C0" stroke-width="3.12" opacity="0.8"/><line x1="946.64" y1="455.784" x2="957.04" y2="574.24" stroke="#C2C8C0" stroke-width="2.6" opacity="0.6"/></g><g opacity="0.46"><path d="M 1224.36,619.12 L 1222.84,714.88 L 1233.48,714.88 L 1236.52,619.12 Z" fill="#16171B"/><path d="M 1238.04,619.12 L 1247.16,714.88 L 1256.28,714.88 L 1247.16,619.12 Z" fill="#16171B"/><path d="M 1219.8,713.36 L 1239.56,713.36 L 1242.6,720.96 L 1242.6,724 L 1218.28,724 Z" fill="#16171B"/><path d="M 1244.12,713.36 L 1263.8799999999999,713.36 L 1266.9199999999998,720.96 L 1266.9199999999998,724 L 1242.6,724 Z" fill="#16171B"/><rect x="1209.16" y="527.996" width="13.68" height="77.52000000000001" fill="#16171B"/><line x1="1216.0" y1="529.5160000000001" x2="1216.0" y2="605.516" stroke="#17181B" stroke-width="1.1400000000000001" opacity="0.7"/><path d="M 1223.144,523.436 L 1219.8,619.12 L 1250.2,619.12 L 1250.5040000000001,523.436 C 1241.08,517.356 1228.92,517.356 1223.144,523.436 Z" fill="#16171B"/><path d="M 1214.176,526.476 L 1211.136,614.5600000000001 L 1261.2959999999998,614.5600000000001 L 1258.2559999999999,526.476 L 1241.5056,521.916 L 1236.216,537.116 L 1230.9263999999998,521.916 Z" fill="#2E2A22"/><path d="M 1247.16,527.996 L 1254.76,614.5600000000001 L 1248.68,617.6 L 1241.08,532.556 Z" fill="#16171B"/><circle cx="1253.24" cy="619.12" r="9.120000000000001" fill="none" stroke="#16171B" stroke-width="3.8"/><circle cx="1235" cy="510.44" r="12.274" fill="#16171B"/><path d="M 1217.52,520.548 Q 1235,488.78 1252.48,520.548 L 1249.44,526.324 Q 1235,504.664 1220.56,526.324 Z" fill="#16171B"/><rect x="1230.44" y="520.548" width="9.120000000000001" height="6.08" fill="#16171B"/><line x1="1258.2559999999999" y1="527.996" x2="1258.2559999999999" y2="619.12" stroke="#C2C8C0" stroke-width="2" opacity="0.35"/></g><g opacity="0.46"><path d="M 1416.32,638.44 L 1415.08,716.56 L 1423.76,716.56 L 1426.24,638.44 Z" fill="#16171B"/><path d="M 1427.48,638.44 L 1434.92,716.56 L 1442.36,716.56 L 1434.92,638.44 Z" fill="#16171B"/><path d="M 1412.6,715.32 L 1428.7199999999998,715.32 L 1431.1999999999998,721.52 L 1431.1999999999998,724 L 1411.36,724 Z" fill="#16171B"/><path d="M 1432.44,715.32 L 1448.56,715.32 L 1451.04,721.52 L 1451.04,724 L 1431.2,724 Z" fill="#16171B"/><rect x="1403.92" y="564.102" width="11.16" height="63.24" fill="#16171B"/><line x1="1409.5" y1="565.342" x2="1409.5" y2="627.342" stroke="#17181B" stroke-width="0.9299999999999999" opacity="0.7"/><path d="M 1415.328,560.382 L 1412.6,638.44 L 1437.4,638.44 L 1437.6480000000001,560.382 C 1429.96,555.4219999999999 1420.04,555.4219999999999 1415.328,560.382 Z" fill="#16171B"/><path d="M 1408.012,562.862 L 1405.532,634.72 L 1446.452,634.72 L 1443.972,562.862 L 1430.3072,559.1419999999999 L 1425.992,571.5419999999999 L 1421.6768,559.1419999999999 Z" fill="#2E2A22"/><path d="M 1434.92,564.102 L 1441.12,634.72 L 1436.16,637.2 L 1429.96,567.822 Z" fill="#16171B"/><rect x="1436.16" y="632.24" width="4.96" height="11.16" fill="#16171B"/><path d="M 1413.22,552.136 A 11.78 11.78 0 0 1 1436.78,552.136 Z" fill="#16171B"/><rect x="1410.1200000000001" y="550.958" width="29.759999999999998" height="3.1" fill="#16171B"/><rect x="1421.28" y="558.026" width="7.4399999999999995" height="4.96" fill="#16171B"/><line x1="1443.972" y1="564.102" x2="1443.972" y2="638.44" stroke="#C2C8C0" stroke-width="2" opacity="0.35"/></g><rect x="300" y="140" width="1320" height="610" fill="url(#dust)" opacity="0.5"/><line x1="740.0" y1="140" x2="740.0" y2="750" stroke="#160E07" stroke-width="10"/><line x1="1180.0" y1="140" x2="1180.0" y2="750" stroke="#160E07" stroke-width="10"/><line x1="300" y1="445.0" x2="1620" y2="445.0" stroke="#160E07" stroke-width="8"/><path d="M 440,750 L 1480,750 L 1760,910 L 160,910 Z" fill="url(#shaft)"/><path d="M 110,1080 L 110,800 Q 110,720 210,720 L 340,720 Q 380,720 380,800 L 380,1080 Z" fill="#1A0F07"/><rect x="120" y="870" width="260" height="210" fill="#22140A"/><path d="M 130,870 Q 250,830 370,870 L 370,910 L 130,910 Z" fill="#2A1A0E"/><rect x="1560" y="820" width="170" height="200" fill="#1C1109"/><path d="M 1600,820 L 1690,820 L 1700,760 L 1590,760 Z" fill="#241509"/><rect x="1612" y="720" width="46" height="60" fill="#3A2614"/><ellipse cx="1635" cy="720" rx="23" ry="7" fill="#E4C77A" opacity="0.5"/><path d="M 1700,800 L 1712,760 L 1730,760 L 1742,800 Z" fill="#2A1A0E"/><ellipse cx="1721" cy="762" rx="15" ry="5" fill="#E4C77A" opacity="0.4"/><rect x="300" y="56" width="1320" height="62" fill="#1B120A"/><line x1="300" y1="118" x2="1620" y2="118" stroke="#C8A24A" stroke-width="2" opacity="0.55"/><text x="330" y="98" font-family="'Consolas','Courier New',monospace" font-size="30" fill="#E4C77A" text-anchor="start" letter-spacing="6" font-weight="bold">SELECT YOUR AGENT</text><text x="1590" y="96" font-family="'Consolas','Courier New',monospace" font-size="24" fill="#FFAB40" text-anchor="end">1 / 5</text><line x1="838" y1="174" x2="882" y2="174" stroke="#FF9820" stroke-width="4"/><line x1="838" y1="174" x2="838" y2="218" stroke="#FF9820" stroke-width="4"/><line x1="1022" y1="174" x2="978" y2="174" stroke="#FF9820" stroke-width="4"/><line x1="1022" y1="174" x2="1022" y2="218" stroke="#FF9820" stroke-width="4"/><line x1="838" y1="674" x2="882" y2="674" stroke="#FF9820" stroke-width="4"/><line x1="838" y1="674" x2="838" y2="630" stroke="#FF9820" stroke-width="4"/><line x1="1022" y1="674" x2="978" y2="674" stroke="#FF9820" stroke-width="4"/><line x1="1022" y1="674" x2="1022" y2="630" stroke="#FF9820" stroke-width="4"/><rect x="590" y="800" width="740" height="152" fill="url(#paperg)"/><rect x="590" y="800" width="740" height="44" fill="#3F5F5C"/><text x="614" y="830" font-family="'Consolas','Courier New',monospace" font-size="20" fill="#D6CCAE" text-anchor="start" letter-spacing="4" font-weight="bold">AGENT DOSSIER — THIS IS ME</text><text x="1306" y="829" font-family="'Consolas','Courier New',monospace" font-size="15" fill="#A9C0B8" text-anchor="end">FORM BC-04</text><rect x="618" y="868" width="58" height="58" fill="#9A6038"/><rect x="618" y="868" width="58" height="58" fill="none" stroke="#8A7F63" stroke-width="2"/><text x="698" y="896" font-family="'Liberation Sans','Arial',sans-serif" font-size="22" fill="#26201A" text-anchor="start" font-weight="bold">REPAIRMAN — ORANGE HELMET, HI-VIS VEST</text><text x="698" y="928" font-family="'Liberation Sans','Arial',sans-serif" font-size="17" fill="#4A4136" text-anchor="start">Temp hire · supply-closet kit · carries a hand torch</text><g transform="translate(1172,864) rotate(-9)" opacity="0.82"><rect x="0" y="0" width="130" height="54" fill="none" stroke="#C23A2B" stroke-width="4"/><text x="65" y="35" font-family="'Liberation Sans','Arial',sans-serif" font-size="20" fill="#C23A2B" text-anchor="middle" font-weight="bold">ASSIGNED</text></g><text x="960" y="1004" font-family="'Liberation Sans','Arial',sans-serif" font-size="20" fill="#9A917A" text-anchor="middle" letter-spacing="2">‹ ›  CYCLE LOOK     ·     [E]  THIS IS ME     ·     [ESC]  KEEP CURRENT</text><rect x="0" y="0" width="1920" height="1080" fill="url(#vig)"/><rect x="0" y="0" width="1920" height="1080" filter="url(#grain)" opacity="0.06"/></svg>