<svg xmlns="http://www.w3.org/2000/svg" width="1920" height="1080" viewBox="0 0 1920 1080"><defs>
 <radialGradient id="vig" cx="0.5" cy="0.5" r="0.82"><stop offset="0.32" stop-color="#000" stop-opacity="0"/><stop offset="1" stop-color="#000" stop-opacity="0.82"/></radialGradient>
 <linearGradient id="sky" x1="0" y1="0" x2="0" y2="1"><stop offset="0" stop-color="#5A636A"/><stop offset="0.5" stop-color="#727A7C"/><stop offset="0.78" stop-color="#5C6360"/><stop offset="1" stop-color="#3E443F"/></linearGradient>
 <linearGradient id="fog" x1="0" y1="0" x2="0" y2="1"><stop offset="0" stop-color="#838A86" stop-opacity="0"/><stop offset="1" stop-color="#9098920" stop-opacity="0.7"/></linearGradient>
 <linearGradient id="dust" x1="0" y1="0" x2="1" y2="0.3"><stop offset="0" stop-color="#C6C9C0" stop-opacity="0.6"/><stop offset="0.5" stop-color="#C6C9C0" stop-opacity="0.14"/><stop offset="1" stop-color="#C6C9C0" stop-opacity="0.55"/></linearGradient>
 <radialGradient id="warm" cx="0.42" cy="0.92" r="0.95"><stop offset="0" stop-color="#FFC062" stop-opacity="0.42"/><stop offset="0.5" stop-color="#9A6418" stop-opacity="0.16"/><stop offset="1" stop-color="#FFC062" stop-opacity="0"/></radialGradient>
 <radialGradient id="chand" cx="0.5" cy="0.3" r="0.7"><stop offset="0" stop-color="#FFE0A0" stop-opacity="0.5"/><stop offset="1" stop-color="#FFE0A0" stop-opacity="0"/></radialGradient>
 <linearGradient id="shaft" x1="0" y1="0" x2="0" y2="1"><stop offset="0" stop-color="#FFE6B0" stop-opacity="0.16"/><stop offset="1" stop-color="#FFE6B0" stop-opacity="0"/></linearGradient>
 <linearGradient id="paperg" x1="0" y1="0" x2="0" y2="1"><stop offset="0" stop-color="#CFC4A4"/><stop offset="1" stop-color="#B8AD8E"/></linearGradient>
 <filter id="grain"><feTurbulence type="fractalNoise" baseFrequency="0.9" numOctaves="2" stitchTiles="stitch"/><feColorMatrix type="matrix" values="0 0 0 0 0 0 0 0 0 0 0 0 0 0 0 0 0 0 0.5 0"/></filter></defs><rect x="0" y="0" width="1920" height="1080" fill="#26190F"/><rect x="0" y="0" width="1920" height="1080" fill="url(#warm)"/><rect x="0" y="0" width="1920" height="40" fill="#1A1009"/><line x1="0" y1="40" x2="1920" y2="40" stroke="#C8A24A" stroke-width="3" opacity="0.7"/><rect x="60" y="70" width="210" height="560" fill="#3A2616" opacity="0.35"/><rect x="60" y="70" width="210" height="560" fill="none" stroke="#C8A24A" stroke-width="1.5"/><rect x="360" y="70" width="210" height="560" fill="#3A2616" opacity="0.35"/><rect x="360" y="70" width="210" height="560" fill="none" stroke="#C8A24A" stroke-width="1.5"/><rect x="660" y="70" width="210" height="560" fill="#3A2616" opacity="0.35"/><rect x="660" y="70" width="210" height="560" fill="none" stroke="#C8A24A" stroke-width="1.5"/><rect x="960" y="70" width="210" height="560" fill="#3A2616" opacity="0.35"/><rect x="960" y="70" width="210" height="560" fill="none" stroke="#C8A24A" stroke-width="1.5"/><rect x="1260" y="70" width="210" height="560" fill="#3A2616" opacity="0.35"/><rect x="1260" y="70" width="210" height="560" fill="none" stroke="#C8A24A" stroke-width="1.5"/><rect x="1560" y="70" width="210" height="560" fill="#3A2616" opacity="0.35"/><rect x="1560" y="70" width="210" height="560" fill="none" stroke="#C8A24A" stroke-width="1.5"/><rect x="1860" y="70" width="210" height="560" fill="#3A2616" opacity="0.35"/><rect x="1860" y="70" width="210" height="560" fill="none" stroke="#C8A24A" stroke-width="1.5"/><rect x="0" y="910" width="1920" height="170" fill="#3E2A18"/><line x1="0" y1="910" x2="1920" y2="910" stroke="#C8A24A" stroke-width="3" opacity="0.6"/><line x1="80" y1="910" x2="80" y2="1080" stroke="#241608" stroke-width="2"/><line x1="320" y1="910" x2="320" y2="1080" stroke="#241608" stroke-width="2"/><line x1="560" y1="910" x2="560" y2="1080" stroke="#241608" stroke-width="2"/><line x1="800" y1="910" x2="800" y2="1080" stroke="#241608" stroke-width="2"/><line x1="1040" y1="910" x2="1040" y2="1080" stroke="#241608" stroke-width="2"/><line x1="1280" y1="910" x2="1280" y2="1080" stroke="#241608" stroke-width="2"/><line x1="1520" y1="910" x2="1520" y2="1080" stroke="#241608" stroke-width="2"/><line x1="1760" y1="910" x2="1760" y2="1080" stroke="#241608" stroke-width="2"/><ellipse cx="960" cy="1010" rx="900" ry="150" fill="#4A2E16" opacity="0.6"/><ellipse cx="960" cy="150" rx="260" ry="150" fill="url(#chand)"/><line x1="960" y1="0" x2="960" y2="70" stroke="#C8A24A" stroke-width="3" opacity="0.7"/><circle cx="870" cy="98" r="7" fill="#E4C77A"/><line x1="960" y1="70" x2="870" y2="98" stroke="#C8A24A" stroke-width="2" opacity="0.6"/><circle cx="915" cy="98" r="7" fill="#E4C77A"/><line x1="960" y1="70" x2="915" y2="98" stroke="#C8A24A" stroke-width="2" opacity="0.6"/><circle cx="960" cy="98" r="7" fill="#E4C77A"/><line x1="960" y1="70" x2="960" y2="98" stroke="#C8A24A" stroke-width="2" opacity="0.6"/><circle cx="1005" cy="98" r="7" fill="#E4C77A"/><line x1="960" y1="70" x2="1005" y2="98" stroke="#C8A24A" stroke-width="2" opacity="0.6"/><circle cx="1050" cy="98" r="7" fill="#E4C77A"/><line x1="960" y1="70" x2="1050" y2="98" stroke="#C8A24A" stroke-width="2" opacity="0.6"/><path d="M 860,96 Q 960,150 1060,96" fill="none" opacity="0.6" stroke="#C8A24A" stroke-width="3"/><rect x="90" y="200" width="150" height="200" fill="#1C120A" stroke="#C8A24A" stroke-width="6"/><rect x="108" y="218" width="114" height="164" fill="#3A2A1C"/><path d="M 108,360 L 150,300 L 180,340 L 222,290 L 222,382 L 108,382 Z" fill="#241A12"/><rect x="270" y="110" width="1380" height="670" fill="#160E07" stroke="#C8A24A" stroke-width="5"/><rect x="300" y="140" width="1320" height="610" fill="url(#sky)"/><rect x="360" y="380" width="70" height="300" fill="#4A504C" opacity="0.6"/><rect x="450" y="500" width="130" height="180" fill="#4A504C" opacity="0.6"/><rect x="620" y="320" width="60" height="360" fill="#4A504C" opacity="0.6"/><rect x="700" y="450" width="150" height="230" fill="#4A504C" opacity="0.6"/><rect x="900" y="380" width="90" height="300" fill="#4A504C" opacity="0.6"/><rect x="1040" y="480" width="120" height="200" fill="#4A504C" opacity="0.6"/><rect x="1180" y="340" width="70" height="340" fill="#4A504C" opacity="0.6"/><rect x="1320" y="470" width="140" height="210" fill="#4A504C" opacity="0.6"/><rect x="1470" y="390" width="80" height="290" fill="#4A504C" opacity="0.6"/><line x1="640" y1="320" x2="640" y2="200" stroke="#3E443F" stroke-width="6"/><line x1="640" y1="220" x2="720" y2="260" stroke="#3E443F" stroke-width="5"/><rect x="300" y="600" width="1320" height="150" fill="url(#fog)"/><rect x="300" y="140" width="1320" height="610" fill="url(#dust)"/><line x1="260" y1="140" x2="170" y2="750" stroke="#D6D8CE" stroke-width="1.5" opacity="0.1"/><line x1="330" y1="140" x2="240" y2="750" stroke="#D6D8CE" stroke-width="1.5" opacity="0.1"/><line x1="400" y1="140" x2="310" y2="750" stroke="#D6D8CE" stroke-width="1.5" opacity="0.1"/><line x1="470" y1="140" x2="380" y2="750" stroke="#D6D8CE" stroke-width="1.5" opacity="0.1"/><line x1="540" y1="140" x2="450" y2="750" stroke="#D6D8CE" stroke-width="1.5" opacity="0.1"/><line x1="610" y1="140" x2="520" y2="750" stroke="#D6D8CE" stroke-width="1.5" opacity="0.1"/><line x1="680" y1="140" x2="590" y2="750" stroke="#D6D8CE" stroke-width="1.5" opacity="0.1"/><line x1="750" y1="140" x2="660" y2="750" stroke="#D6D8CE" stroke-width="1.5" opacity="0.1"/><line x1="820" y1="140" x2="730" y2="750" stroke="#D6D8CE" stroke-width="1.5" opacity="0.1"/><line x1="890" y1="140" x2="800" y2="750" stroke="#D6D8CE" stroke-width="1.5" opacity="0.1"/><line x1="960" y1="140" x2="870" y2="750" stroke="#D6D8CE" stroke-width="1.5" opacity="0.1"/><line x1="1030" y1="140" x2="940" y2="750" stroke="#D6D8CE" stroke-width="1.5" opacity="0.1"/><line x1="1100" y1="140" x2="1010" y2="750" stroke="#D6D8CE" stroke-width="1.5" opacity="0.1"/><line x1="1170" y1="140" x2="1080" y2="750" stroke="#D6D8CE" stroke-width="1.5" opacity="0.1"/><line x1="1240" y1="140" x2="1150" y2="750" stroke="#D6D8CE" stroke-width="1.5" opacity="0.1"/><line x1="1310" y1="140" x2="1220" y2="750" stroke="#D6D8CE" stroke-width="1.5" opacity="0.1"/><line x1="1380" y1="140" x2="1290" y2="750" stroke="#D6D8CE" stroke-width="1.5" opacity="0.1"/><line x1="1450" y1="140" x2="1360" y2="750" stroke="#D6D8CE" stroke-width="1.5" opacity="0.1"/><line x1="1520" y1="140" x2="1430" y2="750" stroke="#D6D8CE" stroke-width="1.5" opacity="0.1"/><line x1="1590" y1="140" x2="1500" y2="750" stroke="#D6D8CE" stroke-width="1.5" opacity="0.1"/><g opacity="0.5"><path d="M 466.4,626.8 L 452.0,720.4 L 452.0,724 L 462.8,724 L 471.2,626.8 Z" fill="#15161A"/><path d="M 473.6,626.8 L 485.6,668.8 L 496.4,724 L 484.4,724 L 476.0,670.0 L 468.8,626.8 Z" fill="#15161A"/><rect x="450.8" y="718.0" width="14.399999999999999" height="7.199999999999999" fill="#15161A"/><rect x="483.2" y="718.0" width="15.6" height="7.199999999999999" fill="#15161A"/><rect x="446.0" y="535.5999999999999" width="12.0" height="77.75999999999999" fill="#181A1E" rx="3.5999999999999996"/><rect x="443.6" y="572.0799999999999" width="6.0" height="6.0" fill="#181A1E"/><path d="M 454.4,533.1999999999999 C 449.6,580.0 453.2,626.8 459.2,632.8 L 483.2,632.8 C 488.0,626.8 488.0,580.0 483.2,533.1999999999999 C 476.0,525.9999999999999 461.6,525.9999999999999 454.4,533.1999999999999 Z" fill="#181A1E"/><line x1="465.2" y1="539.1999999999999" x2="468.8" y2="626.8" stroke="#16171A" stroke-width="1.2" opacity="0.8"/><line x1="474.8" y1="537.9999999999999" x2="477.2" y2="626.8" stroke="#16171A" stroke-width="1.2" opacity="0.6"/><path d="M 480.8,536.8 C 490.4,557.1999999999999 488.0,620.8 482.0,626.8 L 476.0,624.4 C 480.8,580.0 478.4,551.1999999999999 474.8,539.1999999999999 Z" fill="#181A1E"/><line x1="459.2" y1="537.9999999999999" x2="479.6" y2="608.8" stroke="#0A0B0C" stroke-width="2.4"/><rect x="464.6" y="540.4" width="10.799999999999999" height="13.2" fill="#2C2A26"/><circle cx="470" cy="520.0" r="12.0" fill="#15161A"/><path d="M 455.6,526.0 Q 470,500.8 484.4,526.0 L 482.6,530.8 Q 470,514.0 457.4,530.8 Z" fill="#181A1E"/><line x1="478.4" y1="533.1999999999999" x2="479.6" y2="626.8" stroke="#C2C8C0" stroke-width="2" opacity="0.4"/></g><g opacity="0.5"><path d="M 655.56,604.12 L 637.8,719.56 L 637.8,724 L 651.12,724 L 661.48,604.12 Z" fill="#15161A"/><path d="M 664.44,604.12 L 679.24,655.92 L 692.56,724 L 677.76,724 L 667.4,657.4 L 658.52,604.12 Z" fill="#15161A"/><rect x="636.32" y="716.6" width="17.759999999999998" height="8.879999999999999" fill="#15161A"/><rect x="676.28" y="716.6" width="19.24" height="8.879999999999999" fill="#15161A"/><rect x="630.4" y="491.64000000000004" width="14.8" height="95.90399999999998" fill="#181A1E" rx="4.4399999999999995"/><rect x="627.44" y="536.6320000000001" width="7.4" height="7.4" fill="#181A1E"/><path d="M 640.76,488.68000000000006 C 634.84,546.4000000000001 639.28,604.12 646.68,611.52 L 676.28,611.52 C 682.2,604.12 682.2,546.4000000000001 676.28,488.68000000000006 C 667.4,479.80000000000007 649.64,479.80000000000007 640.76,488.68000000000006 Z" fill="#181A1E"/><line x1="654.08" y1="496.08000000000004" x2="658.52" y2="604.12" stroke="#16171A" stroke-width="1.48" opacity="0.8"/><line x1="665.92" y1="494.6000000000001" x2="668.88" y2="604.12" stroke="#16171A" stroke-width="1.48" opacity="0.6"/><path d="M 673.32,493.12000000000006 C 685.16,518.2800000000001 682.2,596.72 674.8,604.12 L 667.4,601.16 C 673.32,546.4000000000001 670.36,510.88000000000005 665.92,496.08000000000004 Z" fill="#181A1E"/><line x1="646.68" y1="494.6000000000001" x2="671.84" y2="581.92" stroke="#0A0B0C" stroke-width="2.96"/><rect x="653.34" y="497.56000000000006" width="13.32" height="16.28" fill="#2C2A26"/><circle cx="660" cy="472.40000000000003" r="14.8" fill="#15161A"/><path d="M 642.24,479.8 Q 660,448.72 677.76,479.8 L 675.54,485.72 Q 660,465.0 644.46,485.72 Z" fill="#181A1E"/><line x1="670.36" y1="488.68000000000006" x2="671.84" y2="604.12" stroke="#C2C8C0" stroke-width="2" opacity="0.4"/></g><g opacity="1.0"><path d="M 923.64,552.28 L 898.2,717.64 L 898.2,724 L 917.28,724 L 932.12,552.28 Z" fill="#0A0B0C"/><path d="M 936.36,552.28 L 957.56,626.48 L 976.64,724 L 955.44,724 L 940.6,628.6 L 927.88,552.28 Z" fill="#0A0B0C"/><rect x="896.08" y="713.4" width="25.44" height="12.72" fill="#0A0B0C"/><rect x="953.32" y="713.4" width="27.560000000000002" height="12.72" fill="#0A0B0C"/><rect x="887.6" y="391.16" width="21.200000000000003" height="137.376" fill="#0E0F10" rx="6.36"/><rect x="883.36" y="455.608" width="10.600000000000001" height="10.600000000000001" fill="#0E0F10"/><path d="M 902.44,386.92 C 893.96,469.6 900.32,552.28 910.92,562.88 L 953.32,562.88 C 961.8,552.28 961.8,469.6 953.32,386.92 C 940.6,374.2 915.16,374.2 902.44,386.92 Z" fill="#0E0F10"/><line x1="921.52" y1="397.52000000000004" x2="927.88" y2="552.28" stroke="#16171A" stroke-width="2.12" opacity="0.8"/><line x1="938.48" y1="395.40000000000003" x2="942.72" y2="552.28" stroke="#16171A" stroke-width="2.12" opacity="0.6"/><path d="M 949.08,393.28000000000003 C 966.04,429.32000000000005 961.8,541.68 951.2,552.28 L 940.6,548.04 C 949.08,469.6 944.84,418.72 938.48,397.52000000000004 Z" fill="#0E0F10"/><line x1="910.92" y1="395.40000000000003" x2="946.96" y2="520.48" stroke="#0A0B0C" stroke-width="4.24"/><rect x="917.28" y="401.76" width="25.44" height="31.8" fill="#9A6038"/><line x1="917.28" y1="401.76" x2="942.72" y2="401.76" stroke="#C2C8C0" stroke-width="1.5" opacity="0.4"/><circle cx="930" cy="363.59999999999997" r="21.200000000000003" fill="#0A0B0C"/><path d="M 904.56,374.2 Q 930,329.67999999999995 955.44,374.2 L 952.26,382.67999999999995 Q 930,353.0 907.74,382.67999999999995 Z" fill="#0E0F10"/><path d="M 927.88,344.52 Q 949.08,350.88 948.0200000000001,369.96" fill="none" stroke="#C2C8C0" stroke-width="3.18"/><line x1="951.2" y1="384.8" x2="955.44" y2="552.28" stroke="#C2C8C0" stroke-width="3.18" opacity="0.85"/><line x1="938.48" y1="377.38" x2="951.2" y2="384.8" stroke="#C2C8C0" stroke-width="3.18" opacity="0.7"/><line x1="961.8" y1="584.0799999999999" x2="974.52" y2="717.64" stroke="#C2C8C0" stroke-width="2.6500000000000004" opacity="0.6"/></g><g opacity="0.5"><path d="M 1235.56,604.12 L 1217.8,719.56 L 1217.8,724 L 1231.12,724 L 1241.48,604.12 Z" fill="#15161A"/><path d="M 1244.44,604.12 L 1259.24,655.92 L 1272.56,724 L 1257.76,724 L 1247.4,657.4 L 1238.52,604.12 Z" fill="#15161A"/><rect x="1216.32" y="716.6" width="17.759999999999998" height="8.879999999999999" fill="#15161A"/><rect x="1256.28" y="716.6" width="19.24" height="8.879999999999999" fill="#15161A"/><rect x="1210.4" y="491.64000000000004" width="14.8" height="95.90399999999998" fill="#181A1E" rx="4.4399999999999995"/><rect x="1207.44" y="536.6320000000001" width="7.4" height="7.4" fill="#181A1E"/><path d="M 1220.76,488.68000000000006 C 1214.84,546.4000000000001 1219.28,604.12 1226.68,611.52 L 1256.28,611.52 C 1262.2,604.12 1262.2,546.4000000000001 1256.28,488.68000000000006 C 1247.4,479.80000000000007 1229.64,479.80000000000007 1220.76,488.68000000000006 Z" fill="#181A1E"/><line x1="1234.08" y1="496.08000000000004" x2="1238.52" y2="604.12" stroke="#16171A" stroke-width="1.48" opacity="0.8"/><line x1="1245.92" y1="494.6000000000001" x2="1248.88" y2="604.12" stroke="#16171A" stroke-width="1.48" opacity="0.6"/><path d="M 1253.32,493.12000000000006 C 1265.16,518.2800000000001 1262.2,596.72 1254.8,604.12 L 1247.4,601.16 C 1253.32,546.4000000000001 1250.36,510.88000000000005 1245.92,496.08000000000004 Z" fill="#181A1E"/><line x1="1226.68" y1="494.6000000000001" x2="1251.84" y2="581.92" stroke="#0A0B0C" stroke-width="2.96"/><rect x="1233.34" y="497.56000000000006" width="13.32" height="16.28" fill="#2C2A26"/><circle cx="1240" cy="472.40000000000003" r="14.8" fill="#15161A"/><path d="M 1222.24,479.8 Q 1240,448.72 1257.76,479.8 L 1255.54,485.72 Q 1240,465.0 1224.46,485.72 Z" fill="#181A1E"/><line x1="1250.36" y1="488.68000000000006" x2="1251.84" y2="604.12" stroke="#C2C8C0" stroke-width="2" opacity="0.4"/></g><g opacity="0.5"><path d="M 1426.4,626.8 L 1412.0,720.4 L 1412.0,724 L 1422.8,724 L 1431.2,626.8 Z" fill="#15161A"/><path d="M 1433.6,626.8 L 1445.6,668.8 L 1456.4,724 L 1444.4,724 L 1436.0,670.0 L 1428.8,626.8 Z" fill="#15161A"/><rect x="1410.8" y="718.0" width="14.399999999999999" height="7.199999999999999" fill="#15161A"/><rect x="1443.2" y="718.0" width="15.6" height="7.199999999999999" fill="#15161A"/><rect x="1406.0" y="535.5999999999999" width="12.0" height="77.75999999999999" fill="#181A1E" rx="3.5999999999999996"/><rect x="1403.6" y="572.0799999999999" width="6.0" height="6.0" fill="#181A1E"/><path d="M 1414.4,533.1999999999999 C 1409.6,580.0 1413.2,626.8 1419.2,632.8 L 1443.2,632.8 C 1448.0,626.8 1448.0,580.0 1443.2,533.1999999999999 C 1436.0,525.9999999999999 1421.6,525.9999999999999 1414.4,533.1999999999999 Z" fill="#181A1E"/><line x1="1425.2" y1="539.1999999999999" x2="1428.8" y2="626.8" stroke="#16171A" stroke-width="1.2" opacity="0.8"/><line x1="1434.8" y1="537.9999999999999" x2="1437.2" y2="626.8" stroke="#16171A" stroke-width="1.2" opacity="0.6"/><path d="M 1440.8,536.8 C 1450.4,557.1999999999999 1448.0,620.8 1442.0,626.8 L 1436.0,624.4 C 1440.8,580.0 1438.4,551.1999999999999 1434.8,539.1999999999999 Z" fill="#181A1E"/><line x1="1419.2" y1="537.9999999999999" x2="1439.6" y2="608.8" stroke="#0A0B0C" stroke-width="2.4"/><rect x="1424.6" y="540.4" width="10.799999999999999" height="13.2" fill="#2C2A26"/><circle cx="1430" cy="520.0" r="12.0" fill="#15161A"/><path d="M 1415.6,526.0 Q 1430,500.8 1444.4,526.0 L 1442.6,530.8 Q 1430,514.0 1417.4,530.8 Z" fill="#181A1E"/><line x1="1438.4" y1="533.1999999999999" x2="1439.6" y2="626.8" stroke="#C2C8C0" stroke-width="2" opacity="0.4"/></g><rect x="300" y="140" width="1320" height="610" fill="url(#dust)" opacity="0.5"/><line x1="740.0" y1="140" x2="740.0" y2="750" stroke="#160E07" stroke-width="10"/><line x1="1180.0" y1="140" x2="1180.0" y2="750" stroke="#160E07" stroke-width="10"/><line x1="300" y1="445.0" x2="1620" y2="445.0" stroke="#160E07" stroke-width="8"/><path d="M 440,750 L 1480,750 L 1760,910 L 160,910 Z" fill="url(#shaft)"/><path d="M 110,1080 L 110,800 Q 110,720 210,720 L 340,720 Q 380,720 380,800 L 380,1080 Z" fill="#1A0F07"/><rect x="120" y="870" width="260" height="210" fill="#22140A"/><path d="M 130,870 Q 250,830 370,870 L 370,910 L 130,910 Z" fill="#2A1A0E"/><rect x="1560" y="820" width="170" height="200" fill="#1C1109"/><path d="M 1600,820 L 1690,820 L 1700,760 L 1590,760 Z" fill="#241509"/><rect x="1612" y="720" width="46" height="60" fill="#3A2614"/><ellipse cx="1635" cy="720" rx="23" ry="7" fill="#E4C77A" opacity="0.5"/><path d="M 1700,800 L 1712,760 L 1730,760 L 1742,800 Z" fill="#2A1A0E"/><ellipse cx="1721" cy="762" rx="15" ry="5" fill="#E4C77A" opacity="0.4"/><rect x="300" y="56" width="1320" height="62" fill="#1B120A"/><line x1="300" y1="118" x2="1620" y2="118" stroke="#C8A24A" stroke-width="2" opacity="0.55"/><text x="330" y="98" font-family="'Consolas','Courier New',monospace" font-size="30" fill="#E4C77A" text-anchor="start" letter-spacing="6" font-weight="bold">SELECT YOUR AGENT</text><text x="1590" y="96" font-family="'Consolas','Courier New',monospace" font-size="24" fill="#FFAB40" text-anchor="end">1 / 5</text><line x1="838" y1="174" x2="882" y2="174" stroke="#FF9820" stroke-width="4"/><line x1="838" y1="174" x2="838" y2="218" stroke="#FF9820" stroke-width="4"/><line x1="1022" y1="174" x2="978" y2="174" stroke="#FF9820" stroke-width="4"/><line x1="1022" y1="174" x2="1022" y2="218" stroke="#FF9820" stroke-width="4"/><line x1="838" y1="674" x2="882" y2="674" stroke="#FF9820" stroke-width="4"/><line x1="838" y1="674" x2="838" y2="630" stroke="#FF9820" stroke-width="4"/><line x1="1022" y1="674" x2="978" y2="674" stroke="#FF9820" stroke-width="4"/><line x1="1022" y1="674" x2="1022" y2="630" stroke="#FF9820" stroke-width="4"/><rect x="590" y="800" width="740" height="152" fill="url(#paperg)"/><rect x="590" y="800" width="740" height="44" fill="#3F5F5C"/><text x="614" y="830" font-family="'Consolas','Courier New',monospace" font-size="20" fill="#D6CCAE" text-anchor="start" letter-spacing="4" font-weight="bold">AGENT DOSSIER — THIS IS ME</text><text x="1306" y="829" font-family="'Consolas','Courier New',monospace" font-size="15" fill="#A9C0B8" text-anchor="end">FORM BC-04</text><rect x="618" y="868" width="58" height="58" fill="#9A6038"/><rect x="618" y="868" width="58" height="58" fill="none" stroke="#8A7F63" stroke-width="2"/><text x="698" y="896" font-family="'Liberation Sans','Arial',sans-serif" font-size="24" fill="#26201A" text-anchor="start" font-weight="bold">"COPPER" — HEAVY COAT, FULL PACK</text><text x="698" y="928" font-family="'Liberation Sans','Arial',sans-serif" font-size="17" fill="#4A4136" text-anchor="start">Surface-rated · the build you'll wear on the job</text><g transform="translate(1172,864) rotate(-9)" opacity="0.82"><rect x="0" y="0" width="130" height="54" fill="none" stroke="#C23A2B" stroke-width="4"/><text x="65" y="35" font-family="'Liberation Sans','Arial',sans-serif" font-size="20" fill="#C23A2B" text-anchor="middle" font-weight="bold">ASSIGNED</text></g><text x="960" y="1004" font-family="'Liberation Sans','Arial',sans-serif" font-size="20" fill="#9A917A" text-anchor="middle" letter-spacing="2">‹ ›  CYCLE LOOK     ·     [E]  THIS IS ME     ·     [ESC]  KEEP CURRENT</text><rect x="0" y="0" width="1920" height="1080" fill="url(#vig)"/><rect x="0" y="0" width="1920" height="1080" filter="url(#grain)" opacity="0.06"/></svg>