<svg xmlns="http://www.w3.org/2000/svg" width="1920" height="1080" viewBox="0 0 1920 1080"><defs>
 <radialGradient id="vig" cx="0.5" cy="0.52" r="0.82"><stop offset="0.34" stop-color="#000" stop-opacity="0"/><stop offset="1" stop-color="#000" stop-opacity="0.8"/></radialGradient>
 <linearGradient id="sky" x1="0" y1="0" x2="0" y2="1"><stop offset="0" stop-color="#5A636A"/><stop offset="0.5" stop-color="#727A7C"/><stop offset="0.8" stop-color="#5A615D"/><stop offset="1" stop-color="#3C423D"/></linearGradient>
 <linearGradient id="fog" x1="0" y1="0" x2="0" y2="1"><stop offset="0" stop-color="#838A86" stop-opacity="0"/><stop offset="1" stop-color="#8E9690" stop-opacity="0.7"/></linearGradient>
 <linearGradient id="dust" x1="0" y1="0" x2="1" y2="0.3"><stop offset="0" stop-color="#C6C9C0" stop-opacity="0.55"/><stop offset="0.5" stop-color="#C6C9C0" stop-opacity="0.12"/><stop offset="1" stop-color="#C6C9C0" stop-opacity="0.5"/></linearGradient>
 <radialGradient id="warm" cx="0.42" cy="0.92" r="0.95"><stop offset="0" stop-color="#FFC062" stop-opacity="0.40"/><stop offset="0.5" stop-color="#9A6418" stop-opacity="0.15"/><stop offset="1" stop-color="#FFC062" stop-opacity="0"/></radialGradient>
 <radialGradient id="dais" cx="0.5" cy="0.5" r="0.5"><stop offset="0" stop-color="#FFCE78" stop-opacity="0.45"/><stop offset="1" stop-color="#FFCE78" stop-opacity="0"/></radialGradient>
 <radialGradient id="chand" cx="0.5" cy="0.3" r="0.7"><stop offset="0" stop-color="#FFE0A0" stop-opacity="0.5"/><stop offset="1" stop-color="#FFE0A0" stop-opacity="0"/></radialGradient>
 <linearGradient id="paperg" x1="0" y1="0" x2="0" y2="1"><stop offset="0" stop-color="#CFC4A4"/><stop offset="1" stop-color="#B8AD8E"/></linearGradient>
 <filter id="grain"><feTurbulence type="fractalNoise" baseFrequency="0.9" numOctaves="2" stitchTiles="stitch"/><feColorMatrix type="matrix" values="0 0 0 0 0 0 0 0 0 0 0 0 0 0 0 0 0 0 0.5 0"/></filter></defs><rect x="0" y="0" width="1920" height="1080" fill="#26190F"/><rect x="0" y="0" width="1920" height="1080" fill="url(#warm)"/><rect x="0" y="0" width="1920" height="40" fill="#1A1009"/><line x1="0" y1="40" x2="1920" y2="40" stroke="#C8A24A" stroke-width="3" opacity="0.7"/><rect x="60" y="70" width="210" height="500" fill="#3A2616" opacity="0.32"/><rect x="60" y="70" width="210" height="500" fill="none" stroke="#C8A24A" stroke-width="1.5"/><rect x="360" y="70" width="210" height="500" fill="#3A2616" opacity="0.32"/><rect x="360" y="70" width="210" height="500" fill="none" stroke="#C8A24A" stroke-width="1.5"/><rect x="660" y="70" width="210" height="500" fill="#3A2616" opacity="0.32"/><rect x="660" y="70" width="210" height="500" fill="none" stroke="#C8A24A" stroke-width="1.5"/><rect x="960" y="70" width="210" height="500" fill="#3A2616" opacity="0.32"/><rect x="960" y="70" width="210" height="500" fill="none" stroke="#C8A24A" stroke-width="1.5"/><rect x="1260" y="70" width="210" height="500" fill="#3A2616" opacity="0.32"/><rect x="1260" y="70" width="210" height="500" fill="none" stroke="#C8A24A" stroke-width="1.5"/><rect x="1560" y="70" width="210" height="500" fill="#3A2616" opacity="0.32"/><rect x="1560" y="70" width="210" height="500" fill="none" stroke="#C8A24A" stroke-width="1.5"/><rect x="1860" y="70" width="210" height="500" fill="#3A2616" opacity="0.32"/><rect x="1860" y="70" width="210" height="500" fill="none" stroke="#C8A24A" stroke-width="1.5"/><rect x="0" y="930" width="1920" height="150" fill="#3E2A18"/><line x1="0" y1="930" x2="1920" y2="930" stroke="#C8A24A" stroke-width="3" opacity="0.6"/><ellipse cx="960" cy="120" rx="240" ry="130" fill="url(#chand)"/><line x1="960" y1="0" x2="960" y2="70" stroke="#C8A24A" stroke-width="3" opacity="0.6"/><circle cx="880" cy="92" r="6" fill="#E4C77A"/><circle cx="920" cy="92" r="6" fill="#E4C77A"/><circle cx="960" cy="92" r="6" fill="#E4C77A"/><circle cx="1000" cy="92" r="6" fill="#E4C77A"/><circle cx="1040" cy="92" r="6" fill="#E4C77A"/><rect x="90" y="200" width="140" height="180" fill="#1C120A" stroke="#C8A24A" stroke-width="5"/><rect x="106" y="216" width="108" height="148" fill="#3A2A1C"/><rect x="272" y="92" width="1376" height="616" fill="#160E07" stroke="#C8A24A" stroke-width="5"/><rect x="300" y="120" width="1320" height="560" fill="url(#sky)"/><rect x="360" y="360" width="70" height="260" fill="#4A504C" opacity="0.55"/><rect x="450" y="460" width="120" height="160" fill="#4A504C" opacity="0.55"/><rect x="620" y="300" width="60" height="320" fill="#4A504C" opacity="0.55"/><rect x="720" y="420" width="140" height="200" fill="#4A504C" opacity="0.55"/><rect x="900" y="360" width="90" height="260" fill="#4A504C" opacity="0.55"/><rect x="1050" y="440" width="110" height="180" fill="#4A504C" opacity="0.55"/><rect x="1190" y="320" width="70" height="300" fill="#4A504C" opacity="0.55"/><rect x="1330" y="430" width="130" height="190" fill="#4A504C" opacity="0.55"/><rect x="1470" y="370" width="80" height="250" fill="#4A504C" opacity="0.55"/><line x1="640" y1="300" x2="640" y2="170" stroke="#3E443F" stroke-width="6"/><line x1="640" y1="190" x2="710" y2="230" stroke="#3E443F" stroke-width="5"/><rect x="300" y="550" width="1320" height="130" fill="url(#fog)"/><g opacity="0.55"><rect x="451.4" y="590.9" width="15.81" height="55.8" fill="#1A1C20"/><rect x="473.72" y="590.9" width="15.81" height="55.8" fill="#1A1C20"/><rect x="447.68" y="522.08" width="44.64" height="72.54" fill="#1A1C20"/><rect x="430.94" y="525.8" width="13.020000000000001" height="55.8" fill="#1A1C20"/><rect x="497.9" y="525.8" width="13.020000000000001" height="55.8" fill="#1A1C20"/><rect x="446.75" y="529.52" width="46.5" height="31.62" fill="#2f3527"/><circle cx="470" cy="509" r="15" fill="#1A1C20"/><rect x="453.26" y="485.81" width="33.48" height="10.23" fill="#1A1C20"/><line x1="492.32" y1="522.08" x2="492.32" y2="590.9" stroke="#AEB4AC" stroke-width="2" opacity="0.4"/></g><g opacity="0.55"><rect x="668.4" y="580.4" width="18.360000000000003" height="64.8" fill="#1A1C20"/><rect x="694.32" y="580.4" width="18.360000000000003" height="64.8" fill="#1A1C20"/><rect x="664.08" y="500.48" width="51.839999999999996" height="84.24000000000001" fill="#1A1C20"/><rect x="644.64" y="504.8" width="15.120000000000001" height="64.8" fill="#1A1C20"/><rect x="722.4" y="504.8" width="15.120000000000001" height="64.8" fill="#1A1C20"/><rect x="663.0" y="509.12" width="54.0" height="36.720000000000006" fill="#3e3125"/><circle cx="690" cy="485" r="18" fill="#1A1C20"/><rect x="670.56" y="458.36" width="38.879999999999995" height="11.88" fill="#1A1C20"/><line x1="715.92" y1="500.48" x2="715.92" y2="580.4" stroke="#AEB4AC" stroke-width="2" opacity="0.4"/></g><g opacity="0.55"><rect x="1158.4" y="580.4" width="18.360000000000003" height="64.8" fill="#1A1C20"/><rect x="1184.32" y="580.4" width="18.360000000000003" height="64.8" fill="#1A1C20"/><rect x="1154.08" y="500.48" width="51.839999999999996" height="84.24000000000001" fill="#1A1C20"/><rect x="1134.64" y="504.8" width="15.120000000000001" height="64.8" fill="#1A1C20"/><rect x="1212.4" y="504.8" width="15.120000000000001" height="64.8" fill="#1A1C20"/><rect x="1153.0" y="509.12" width="54.0" height="36.720000000000006" fill="#20302f"/><circle cx="1180" cy="485" r="18" fill="#1A1C20"/><rect x="1160.56" y="458.36" width="38.879999999999995" height="11.88" fill="#1A1C20"/><line x1="1205.92" y1="500.48" x2="1205.92" y2="580.4" stroke="#AEB4AC" stroke-width="2" opacity="0.4"/></g><g opacity="0.55"><rect x="1391.4" y="590.9" width="15.81" height="55.8" fill="#1A1C20"/><rect x="1413.72" y="590.9" width="15.81" height="55.8" fill="#1A1C20"/><rect x="1387.68" y="522.08" width="44.64" height="72.54" fill="#1A1C20"/><rect x="1370.94" y="525.8" width="13.020000000000001" height="55.8" fill="#1A1C20"/><rect x="1437.9" y="525.8" width="13.020000000000001" height="55.8" fill="#1A1C20"/><rect x="1386.75" y="529.52" width="46.5" height="31.62" fill="#544216"/><circle cx="1410" cy="509" r="15" fill="#1A1C20"/><rect x="1393.26" y="485.81" width="33.48" height="10.23" fill="#1A1C20"/><line x1="1432.32" y1="522.08" x2="1432.32" y2="590.9" stroke="#AEB4AC" stroke-width="2" opacity="0.4"/></g><rect x="300" y="120" width="1320" height="560" fill="url(#dust)"/><line x1="260" y1="120" x2="174" y2="680" stroke="#D6D8CE" stroke-width="1.4" opacity="0.09"/><line x1="332" y1="120" x2="246" y2="680" stroke="#D6D8CE" stroke-width="1.4" opacity="0.09"/><line x1="404" y1="120" x2="318" y2="680" stroke="#D6D8CE" stroke-width="1.4" opacity="0.09"/><line x1="476" y1="120" x2="390" y2="680" stroke="#D6D8CE" stroke-width="1.4" opacity="0.09"/><line x1="548" y1="120" x2="462" y2="680" stroke="#D6D8CE" stroke-width="1.4" opacity="0.09"/><line x1="620" y1="120" x2="534" y2="680" stroke="#D6D8CE" stroke-width="1.4" opacity="0.09"/><line x1="692" y1="120" x2="606" y2="680" stroke="#D6D8CE" stroke-width="1.4" opacity="0.09"/><line x1="764" y1="120" x2="678" y2="680" stroke="#D6D8CE" stroke-width="1.4" opacity="0.09"/><line x1="836" y1="120" x2="750" y2="680" stroke="#D6D8CE" stroke-width="1.4" opacity="0.09"/><line x1="908" y1="120" x2="822" y2="680" stroke="#D6D8CE" stroke-width="1.4" opacity="0.09"/><line x1="980" y1="120" x2="894" y2="680" stroke="#D6D8CE" stroke-width="1.4" opacity="0.09"/><line x1="1052" y1="120" x2="966" y2="680" stroke="#D6D8CE" stroke-width="1.4" opacity="0.09"/><line x1="1124" y1="120" x2="1038" y2="680" stroke="#D6D8CE" stroke-width="1.4" opacity="0.09"/><line x1="1196" y1="120" x2="1110" y2="680" stroke="#D6D8CE" stroke-width="1.4" opacity="0.09"/><line x1="1268" y1="120" x2="1182" y2="680" stroke="#D6D8CE" stroke-width="1.4" opacity="0.09"/><line x1="1340" y1="120" x2="1254" y2="680" stroke="#D6D8CE" stroke-width="1.4" opacity="0.09"/><line x1="1412" y1="120" x2="1326" y2="680" stroke="#D6D8CE" stroke-width="1.4" opacity="0.09"/><line x1="1484" y1="120" x2="1398" y2="680" stroke="#D6D8CE" stroke-width="1.4" opacity="0.09"/><line x1="1556" y1="120" x2="1470" y2="680" stroke="#D6D8CE" stroke-width="1.4" opacity="0.09"/><line x1="740.0" y1="120" x2="740.0" y2="680" stroke="#160E07" stroke-width="10"/><line x1="1180.0" y1="120" x2="1180.0" y2="680" stroke="#160E07" stroke-width="10"/><line x1="300" y1="400.0" x2="1620" y2="400.0" stroke="#160E07" stroke-width="8"/><ellipse cx="960" cy="960" rx="360" ry="84" fill="url(#dais)"/><ellipse cx="960" cy="962" rx="250" ry="46" fill="#1A0F07" opacity="0.6"/><ellipse cx="960" cy="962" rx="250" ry="46" fill="none" stroke="#C8A24A" stroke-width="2" opacity="0.5"/><polygon points="953.0400000000001,789.6 974.3840000000001,770.112 974.3840000000001,913.952 953.0400000000001,933.44" fill="#191e19"/><polygon points="913.6,789.6 953.0400000000001,789.6 974.3840000000001,770.112 934.9440000000001,770.112" fill="#343e34"/><rect x="913.6" y="789.6" width="39.440000000000005" height="143.84" fill="#2b332b"/><polygon points="1008.72,789.6 1030.064,770.112 1030.064,913.952 1008.72,933.44" fill="#191e19"/><polygon points="969.28,789.6 1008.72,789.6 1030.064,770.112 990.624,770.112" fill="#343e34"/><rect x="969.28" y="789.6" width="39.440000000000005" height="143.84" fill="#2b332b"/><polygon points="957.6800000000001,928.8 985.4272000000001,903.4656 985.4272000000001,926.6656 957.6800000000001,952.0" fill="#0a0c0b"/><polygon points="908.96,928.8 957.6800000000001,928.8 985.4272000000001,903.4656 936.7072000000001,903.4656" fill="#151817"/><rect x="908.96" y="928.8" width="48.72" height="23.200000000000003" fill="#121413"/><polygon points="1013.36,928.8 1041.1072,903.4656 1041.1072,926.6656 1013.36,952.0" fill="#0a0c0b"/><polygon points="964.64,928.8 1013.36,928.8 1041.1072,903.4656 992.3872,903.4656" fill="#151817"/><rect x="964.64" y="928.8" width="48.72" height="23.200000000000003" fill="#121413"/><polygon points="1045.84,650.4 1058.6463999999999,638.7072 1058.6463999999999,750.0672 1045.84,761.76" fill="#0d0e0d"/><polygon points="957.68,650.4 1045.84,650.4 1058.6463999999999,638.7072 970.4864,638.7072" fill="#1a1d1a"/><rect x="957.68" y="650.4" width="88.16" height="111.36" fill="#161716"/><polygon points="1015.6800000000001,617.9200000000001 1045.5616,590.6368000000001 1045.5616,771.5968000000001 1015.6800000000001,798.8800000000001" fill="#191e19"/><polygon points="904.32,617.9200000000001 1015.6800000000001,617.9200000000001 1045.5616,590.6368000000001 934.2016000000001,590.6368000000001" fill="#343e34"/><rect x="904.32" y="617.9200000000001" width="111.36" height="180.96" fill="#2b332b"/><polygon points="895.04,627.2 912.1152,611.6096 912.1152,755.4496 895.04,771.0400000000001" fill="#191e19"/><polygon points="862.56,627.2 895.04,627.2 912.1152,611.6096 879.6351999999999,611.6096" fill="#343e34"/><rect x="862.56" y="627.2" width="32.480000000000004" height="143.84" fill="#2b332b"/><polygon points="1062.08,627.2 1079.1552,611.6096 1079.1552,755.4496 1062.08,771.0400000000001" fill="#191e19"/><polygon points="1029.6,627.2 1062.08,627.2 1079.1552,611.6096 1046.6752,611.6096" fill="#343e34"/><rect x="1029.6" y="627.2" width="32.480000000000004" height="143.84" fill="#2b332b"/><rect x="902.0" y="636.48" width="116.0" height="83.52" fill="#d99930"/><rect x="902.0" y="659.6800000000001" width="116.0" height="10.44" fill="#edead9" opacity="0.95"/><rect x="902.0" y="696.8000000000001" width="116.0" height="10.44" fill="#edead9" opacity="0.9"/><rect x="971.6" y="650.4" width="27.84" height="16.240000000000002" fill="#c23a2b"/><circle cx="974" cy="585" r="38" fill="#644738"/><circle cx="960" cy="585" r="38" fill="#8f6650"/><polygon points="1001.76,527.44 1038.0448,494.3104000000001 1038.0448,519.8304 1001.76,552.96" fill="#787466"/><polygon points="918.24,527.44 1001.76,527.44 1038.0448,494.3104000000001 954.5248,494.3104000000001" fill="#f5ecd0"/><rect x="918.24" y="527.44" width="83.52" height="25.52" fill="#c9c2ab"/><rect x="918.24" y="536.72" width="83.52" height="6.96" fill="#edead9" opacity="0.85"/><polygon points="1052.8,720.0 1060.2703999999999,713.1792 1060.2703999999999,759.5792 1052.8,766.4" fill="#222220"/><polygon points="1036.56,720.0 1052.8,720.0 1060.2703999999999,713.1792 1044.0303999999999,713.1792" fill="#464641"/><rect x="1036.56" y="720.0" width="16.240000000000002" height="46.400000000000006" fill="#3a3a36"/><rect x="1560" y="820" width="160" height="200" fill="#1C1109"/><rect x="1600" y="760" width="44" height="58" fill="#3A2614"/><ellipse cx="1622" cy="760" rx="22" ry="7" fill="#E4C77A" opacity="0.5"/><rect x="300" y="52" width="1320" height="60" fill="#1B120A"/><line x1="300" y1="112" x2="1620" y2="112" stroke="#C8A24A" stroke-width="2" opacity="0.55"/><text x="330" y="93" font-family="'Consolas','Courier New',monospace" font-size="30" fill="#E4C77A" text-anchor="start" letter-spacing="6" font-weight="bold">SELECT YOUR AGENT</text><text x="1590" y="91" font-family="'Consolas','Courier New',monospace" font-size="24" fill="#FFAB40" text-anchor="end">1 / 6</text><line x1="812" y1="560" x2="858" y2="560" stroke="#FF9820" stroke-width="4"/><line x1="812" y1="560" x2="812" y2="606" stroke="#FF9820" stroke-width="4"/><line x1="1108" y1="560" x2="1062" y2="560" stroke="#FF9820" stroke-width="4"/><line x1="1108" y1="560" x2="1108" y2="606" stroke="#FF9820" stroke-width="4"/><line x1="812" y1="960" x2="858" y2="960" stroke="#FF9820" stroke-width="4"/><line x1="812" y1="960" x2="812" y2="914" stroke="#FF9820" stroke-width="4"/><line x1="1108" y1="960" x2="1062" y2="960" stroke="#FF9820" stroke-width="4"/><line x1="1108" y1="960" x2="1108" y2="914" stroke="#FF9820" stroke-width="4"/><rect x="120" y="470" width="460" height="210" fill="url(#paperg)"/><rect x="120" y="470" width="460" height="44" fill="#3F5F5C"/><text x="142" y="500" font-family="'Consolas','Courier New',monospace" font-size="20" fill="#D6CCAE" text-anchor="start" letter-spacing="4" font-weight="bold">AGENT DOSSIER</text><text x="558" y="499" font-family="'Consolas','Courier New',monospace" font-size="15" fill="#A9C0B8" text-anchor="end">BC-04</text><rect x="144" y="536" width="52" height="52" fill="#D99930"/><rect x="144" y="536" width="52" height="52" fill="none" stroke="#8A7F63" stroke-width="2"/><text x="216" y="562" font-family="'Liberation Sans','Arial',sans-serif" font-size="24" fill="#26201A" text-anchor="start" font-weight="bold">REPAIRMAN</text><text x="216" y="590" font-family="'Liberation Sans','Arial',sans-serif" font-size="17" fill="#4A4136" text-anchor="start">Orange helmet · hi-vis vest</text><text x="216" y="614" font-family="'Liberation Sans','Arial',sans-serif" font-size="17" fill="#4A4136" text-anchor="start">Temp hire · supply-closet kit</text><text x="144" y="654" font-family="'Liberation Sans','Arial',sans-serif" font-size="17" fill="#26201A" text-anchor="start">Tool: hand torch</text><g transform="translate(420,620) rotate(-9)" opacity="0.82"><rect x="0" y="0" width="128" height="52" fill="none" stroke="#C23A2B" stroke-width="4"/><text x="64" y="34" font-family="'Liberation Sans','Arial',sans-serif" font-size="19" fill="#C23A2B" text-anchor="middle" font-weight="bold">ASSIGNED</text></g><text x="960" y="1044" font-family="'Liberation Sans','Arial',sans-serif" font-size="20" fill="#9A917A" text-anchor="middle" letter-spacing="2">‹ ›  CYCLE LOOK     ·     [E]  THIS IS ME     ·     [ESC]  KEEP CURRENT</text><rect x="0" y="0" width="1920" height="1080" fill="url(#vig)"/><rect x="0" y="0" width="1920" height="1080" filter="url(#grain)" opacity="0.055"/></svg>