<svg xmlns="http://www.w3.org/2000/svg" width="1920" height="1080" viewBox="0 0 1920 1080"><defs>
 <radialGradient id="vig" cx="0.5" cy="0.5" r="0.85"><stop offset="0.35" stop-color="#000" stop-opacity="0"/><stop offset="1" stop-color="#000" stop-opacity="0.8"/></radialGradient>
 <linearGradient id="sky" x1="0" y1="0" x2="0" y2="1"><stop offset="0" stop-color="#8A9098"/><stop offset="0.45" stop-color="#A6ABA8"/><stop offset="0.72" stop-color="#7E837E"/><stop offset="1" stop-color="#565C56"/></linearGradient>
 <linearGradient id="dust" x1="0" y1="0" x2="1" y2="0"><stop offset="0" stop-color="#CDCABA" stop-opacity="0.55"/><stop offset="0.5" stop-color="#CDCABA" stop-opacity="0.10"/><stop offset="1" stop-color="#CDCABA" stop-opacity="0.5"/></linearGradient>
 <radialGradient id="warm" cx="0.5" cy="0.85" r="0.8"><stop offset="0" stop-color="#FFB45A" stop-opacity="0.36"/><stop offset="0.5" stop-color="#9A6418" stop-opacity="0.14"/><stop offset="1" stop-color="#FFB45A" stop-opacity="0"/></radialGradient>
 <linearGradient id="shaft" x1="0" y1="0" x2="0" y2="1"><stop offset="0" stop-color="#FFE0A0" stop-opacity="0.18"/><stop offset="1" stop-color="#FFE0A0" stop-opacity="0"/></linearGradient>
 <linearGradient id="paperg" x1="0" y1="0" x2="0" y2="1"><stop offset="0" stop-color="#CFC4A4"/><stop offset="1" stop-color="#B8AD8E"/></linearGradient>
 <filter id="grain"><feTurbulence type="fractalNoise" baseFrequency="0.9" numOctaves="2" stitchTiles="stitch"/><feColorMatrix type="matrix" values="0 0 0 0 0 0 0 0 0 0 0 0 0 0 0 0 0 0 0.5 0"/></filter></defs><rect x="0" y="0" width="1920" height="1080" fill="#241814"/><rect x="0" y="0" width="1920" height="1080" fill="url(#warm)"/><rect x="0" y="930" width="1920" height="150" fill="#5A4028"/><line x1="0" y1="930" x2="1920" y2="930" stroke="#C8A24A" stroke-width="3" opacity="0.6"/><rect x="120" y="930" width="180" height="150" fill="#4A3422" opacity="0.5"/><line x1="120" y1="930" x2="120" y2="1080" stroke="#2E2014" stroke-width="2"/><rect x="380" y="930" width="180" height="150" fill="#4A3422" opacity="0.5"/><line x1="380" y1="930" x2="380" y2="1080" stroke="#2E2014" stroke-width="2"/><rect x="640" y="930" width="180" height="150" fill="#4A3422" opacity="0.5"/><line x1="640" y1="930" x2="640" y2="1080" stroke="#2E2014" stroke-width="2"/><rect x="900" y="930" width="180" height="150" fill="#4A3422" opacity="0.5"/><line x1="900" y1="930" x2="900" y2="1080" stroke="#2E2014" stroke-width="2"/><rect x="1160" y="930" width="180" height="150" fill="#4A3422" opacity="0.5"/><line x1="1160" y1="930" x2="1160" y2="1080" stroke="#2E2014" stroke-width="2"/><rect x="1420" y="930" width="180" height="150" fill="#4A3422" opacity="0.5"/><line x1="1420" y1="930" x2="1420" y2="1080" stroke="#2E2014" stroke-width="2"/><rect x="1680" y="930" width="180" height="150" fill="#4A3422" opacity="0.5"/><line x1="1680" y1="930" x2="1680" y2="1080" stroke="#2E2014" stroke-width="2"/><ellipse cx="1300" cy="980" rx="760" ry="180" fill="#3A2616" opacity="0.7"/><rect x="274" y="124" width="1372" height="672" fill="#1A120C"/><rect x="274" y="124" width="1372" height="672" fill="none" stroke="#C8A24A" stroke-width="4"/><rect x="300" y="150" width="1320" height="620" fill="url(#sky)"/><rect x="360" y="530" width="90" height="150" fill="#6E736E" opacity="0.5"/><rect x="470" y="470" width="60" height="210" fill="#6E736E" opacity="0.5"/><rect x="560" y="560" width="120" height="120" fill="#6E736E" opacity="0.5"/><rect x="760" y="420" width="70" height="260" fill="#6E736E" opacity="0.5"/><rect x="880" y="520" width="140" height="160" fill="#6E736E" opacity="0.5"/><rect x="1080" y="460" width="80" height="220" fill="#6E736E" opacity="0.5"/><rect x="1200" y="540" width="110" height="140" fill="#6E736E" opacity="0.5"/><rect x="1360" y="480" width="90" height="200" fill="#6E736E" opacity="0.5"/><rect x="1480" y="510" width="70" height="170" fill="#6E736E" opacity="0.5"/><rect x="300" y="660" width="1320" height="110" fill="#6A6F68" opacity="0.6"/><g opacity="0.42"><path d="M 467.52,637.328 L 453.88,740 L 462.56,740 L 472.48,637.328 Z" fill="#0C0D0E"/><path d="M 472.48,637.328 L 483.64,736.28 L 492.32,740 L 476.2,637.328 Z" fill="#0C0D0E"/><path d="M 456.36,534.718 C 451.4,586.0229999999999 455.12,637.328 460.08,642.288 L 481.16,642.288 C 484.88,637.328 486.12,586.0229999999999 481.16,534.718 C 474.96,528.5179999999999 462.56,528.5179999999999 456.36,534.718 Z" fill="#0C0D0E"/><rect x="463.8" y="538.438" width="12.4" height="14.879999999999999" fill="#2E2A22"/><rect x="448.92" y="535.958" width="9.92" height="75.888" rx="3.1" fill="#101010"/><rect x="447.68" y="579.358" width="12.4" height="4.96" fill="#141414"/><circle cx="470" cy="527.3399999999999" r="10.54" fill="#0C0D0E"/><path d="M 457.59999999999997,531.5559999999999 Q 470,511.53 482.40000000000003,531.5559999999999" fill="#0C0D0E"/></g><g opacity="0.42"><path d="M 657.04,617.456 L 640.76,740 L 651.12,740 L 662.96,617.456 Z" fill="#0C0D0E"/><path d="M 662.96,617.456 L 676.28,735.56 L 686.64,740 L 667.4,617.456 Z" fill="#0C0D0E"/><path d="M 643.72,494.98600000000005 C 637.8,556.221 642.24,617.456 648.16,623.376 L 673.32,623.376 C 677.76,617.456 679.24,556.221 673.32,494.98600000000005 C 665.92,487.58600000000007 651.12,487.58600000000007 643.72,494.98600000000005 Z" fill="#0C0D0E"/><rect x="652.6" y="499.42600000000004" width="14.8" height="17.759999999999998" fill="#2E2A22"/><rect x="634.84" y="496.46600000000007" width="11.84" height="90.576" rx="3.7" fill="#101010"/><rect x="633.36" y="548.2660000000001" width="14.8" height="5.92" fill="#141414"/><circle cx="660" cy="486.18" r="12.58" fill="#0C0D0E"/><path d="M 645.1999999999999,491.21200000000005 Q 660,467.31 674.8000000000001,491.21200000000005" fill="#0C0D0E"/></g><g opacity="1.0"><line x1="951.2" y1="740" x2="938.72" y2="383.28" stroke="#15140F" stroke-width="4.16"/><path d="M 915.84,567.776 L 892.96,740 L 907.52,740 L 924.16,567.776 Z" fill="#070809"/><path d="M 924.16,567.776 L 942.88,733.76 L 957.44,740 L 930.4,567.776 Z" fill="#070809"/><path d="M 897.12,395.65599999999995 C 888.8,481.71599999999995 895.04,567.776 903.36,576.096 L 938.72,576.096 C 944.96,567.776 947.04,481.71599999999995 938.72,395.65599999999995 C 928.32,385.256 907.52,385.256 897.12,395.65599999999995 Z" fill="#070809"/><rect x="906.48" y="401.89599999999996" width="27.04" height="31.200000000000003" fill="#8C5937"/><rect x="884.64" y="397.73599999999993" width="16.64" height="127.29600000000002" rx="5.2" fill="#0A0B0C"/><rect x="882.56" y="470.53599999999994" width="20.8" height="8.32" fill="#0E0F10"/><circle cx="920" cy="383.28" r="17.68" fill="#070809"/><path d="M 899.2,390.352 Q 920,356.76 940.8,390.352" fill="#070809"/></g><g opacity="0.42"><path d="M 1227.04,617.456 L 1210.76,740 L 1221.12,740 L 1232.96,617.456 Z" fill="#0C0D0E"/><path d="M 1232.96,617.456 L 1246.28,735.56 L 1256.64,740 L 1237.4,617.456 Z" fill="#0C0D0E"/><path d="M 1213.72,494.98600000000005 C 1207.8,556.221 1212.24,617.456 1218.16,623.376 L 1243.32,623.376 C 1247.76,617.456 1249.24,556.221 1243.32,494.98600000000005 C 1235.92,487.58600000000007 1221.12,487.58600000000007 1213.72,494.98600000000005 Z" fill="#0C0D0E"/><rect x="1222.6" y="499.42600000000004" width="14.8" height="17.759999999999998" fill="#2E2A22"/><rect x="1204.84" y="496.46600000000007" width="11.84" height="90.576" rx="3.7" fill="#101010"/><rect x="1203.36" y="548.2660000000001" width="14.8" height="5.92" fill="#141414"/><circle cx="1230" cy="486.18" r="12.58" fill="#0C0D0E"/><path d="M 1215.2,491.21200000000005 Q 1230,467.31 1244.8,491.21200000000005" fill="#0C0D0E"/></g><g opacity="0.42"><path d="M 1417.52,637.328 L 1403.88,740 L 1412.56,740 L 1422.48,637.328 Z" fill="#0C0D0E"/><path d="M 1422.48,637.328 L 1433.64,736.28 L 1442.32,740 L 1426.2,637.328 Z" fill="#0C0D0E"/><path d="M 1406.36,534.718 C 1401.4,586.0229999999999 1405.12,637.328 1410.08,642.288 L 1431.16,642.288 C 1434.88,637.328 1436.12,586.0229999999999 1431.16,534.718 C 1424.96,528.5179999999999 1412.56,528.5179999999999 1406.36,534.718 Z" fill="#0C0D0E"/><rect x="1413.8" y="538.438" width="12.4" height="14.879999999999999" fill="#2E2A22"/><rect x="1398.92" y="535.958" width="9.92" height="75.888" rx="3.1" fill="#101010"/><rect x="1397.68" y="579.358" width="12.4" height="4.96" fill="#141414"/><circle cx="1420" cy="527.3399999999999" r="10.54" fill="#0C0D0E"/><path d="M 1407.6000000000001,531.5559999999999 Q 1420,511.53 1432.3999999999999,531.5559999999999" fill="#0C0D0E"/></g><rect x="300" y="150" width="1320" height="620" fill="url(#dust)"/><line x1="340" y1="150" x2="294" y2="770" stroke="#E0DCCE" stroke-width="1" opacity="0.05"/><line x1="450" y1="150" x2="404" y2="770" stroke="#E0DCCE" stroke-width="1" opacity="0.05"/><line x1="560" y1="150" x2="514" y2="770" stroke="#E0DCCE" stroke-width="1" opacity="0.05"/><line x1="670" y1="150" x2="624" y2="770" stroke="#E0DCCE" stroke-width="1" opacity="0.05"/><line x1="780" y1="150" x2="734" y2="770" stroke="#E0DCCE" stroke-width="1" opacity="0.05"/><line x1="890" y1="150" x2="844" y2="770" stroke="#E0DCCE" stroke-width="1" opacity="0.05"/><line x1="1000" y1="150" x2="954" y2="770" stroke="#E0DCCE" stroke-width="1" opacity="0.05"/><line x1="1110" y1="150" x2="1064" y2="770" stroke="#E0DCCE" stroke-width="1" opacity="0.05"/><line x1="1220" y1="150" x2="1174" y2="770" stroke="#E0DCCE" stroke-width="1" opacity="0.05"/><line x1="1330" y1="150" x2="1284" y2="770" stroke="#E0DCCE" stroke-width="1" opacity="0.05"/><line x1="1440" y1="150" x2="1394" y2="770" stroke="#E0DCCE" stroke-width="1" opacity="0.05"/><line x1="1550" y1="150" x2="1504" y2="770" stroke="#E0DCCE" stroke-width="1" opacity="0.05"/><line x1="740.0" y1="150" x2="740.0" y2="770" stroke="#1A120C" stroke-width="10"/><line x1="1180.0" y1="150" x2="1180.0" y2="770" stroke="#1A120C" stroke-width="10"/><line x1="300" y1="460.0" x2="1620" y2="460.0" stroke="#1A120C" stroke-width="8"/><polygon points="420,770 1500,770 1740,1080 180,1080" fill="url(#shaft)"/><path d="M 120,1080 L 120,820 Q 120,760 200,760 L 320,760 Q 360,760 360,820 L 360,1080 Z" fill="#160E08"/><rect x="120" y="900" width="250" height="180" fill="#1A100A"/><rect x="1560" y="840" width="150" height="180" fill="#170F09"/><rect x="1600" y="790" width="70" height="60" fill="#1F140C"/><ellipse cx="1635" cy="790" rx="22" ry="8" fill="#C8A24A" opacity="0.4"/><circle cx="1700" cy="880" r="6" fill="#C8A24A" opacity="0.5"/><rect x="300" y="60" width="1320" height="66" fill="#1B130C"/><line x1="300" y1="126" x2="1620" y2="126" stroke="#C8A24A" stroke-width="2" opacity="0.5"/><text x="330" y="104" font-family="'Liberation Sans','Arial',sans-serif" font-size="30" fill="#C8A24A" text-anchor="start" letter-spacing="4" font-weight="bold">DISPATCH ELIGIBILITY — SELECT YOUR CREW</text><text x="1590" y="100" font-family="'Consolas','Courier New',monospace" font-size="22" fill="#FFAB40" text-anchor="end">CAND. 1 / 5</text><line x1="830" y1="190" x2="872" y2="190" stroke="#FF9820" stroke-width="4"/><line x1="830" y1="190" x2="830" y2="232" stroke="#FF9820" stroke-width="4"/><line x1="1010" y1="190" x2="968" y2="190" stroke="#FF9820" stroke-width="4"/><line x1="1010" y1="190" x2="1010" y2="232" stroke="#FF9820" stroke-width="4"/><line x1="830" y1="680" x2="872" y2="680" stroke="#FF9820" stroke-width="4"/><line x1="830" y1="680" x2="830" y2="638" stroke="#FF9820" stroke-width="4"/><line x1="1010" y1="680" x2="968" y2="680" stroke="#FF9820" stroke-width="4"/><line x1="1010" y1="680" x2="1010" y2="638" stroke="#FF9820" stroke-width="4"/><rect x="590" y="800" width="740" height="150" fill="url(#paperg)"/><rect x="590" y="800" width="740" height="44" fill="#3F5F5C"/><text x="614" y="830" font-family="'Liberation Sans','Arial',sans-serif" font-size="20" fill="#D6CCAE" text-anchor="start" letter-spacing="6" font-weight="bold">ASSIGNMENT CHIT</text><text x="1306" y="829" font-family="'Consolas','Courier New',monospace" font-size="15" fill="#A9C0B8" text-anchor="end">FORM BC-04</text><rect x="618" y="868" width="56" height="56" fill="#8C5937"/><rect x="618" y="868" width="56" height="56" fill="none" stroke="#8A7F63" stroke-width="2"/><text x="694" y="894" font-family="'Liberation Sans','Arial',sans-serif" font-size="24" fill="#26201A" text-anchor="start" font-weight="bold">CANDIDATE 01  ·  "COPPER" VEST</text><text x="694" y="926" font-family="'Liberation Sans','Arial',sans-serif" font-size="17" fill="#4A4136" text-anchor="start">Cleared for surface work · no incidents on file</text><g transform="translate(1170,864) rotate(-9)" opacity="0.82"><rect x="0" y="0" width="130" height="54" fill="none" stroke="#C23A2B" stroke-width="4"/><text x="65" y="35" font-family="'Liberation Sans','Arial',sans-serif" font-size="22" fill="#C23A2B" text-anchor="middle" font-weight="bold">ELIGIBLE</text></g><text x="960" y="1004" font-family="'Liberation Sans','Arial',sans-serif" font-size="20" fill="#9A917A" text-anchor="middle" letter-spacing="2">‹ ›  CYCLE     ·     [E]  STAMP &amp; ASSIGN     ·     [ESC]  KEEP CURRENT</text><rect x="0" y="0" width="1920" height="1080" fill="url(#vig)"/><rect x="0" y="0" width="1920" height="1080" filter="url(#grain)" opacity="0.06"/></svg>